G04 start of page 8 for group 0 layer_idx 7 *
G04 Title: (unknown), top_paste *
G04 Creator: pcb-rnd 3.1.4 *
G04 CreationDate: 2026-04-06 20:24:15 UTC *
G04 For: Alex Jokela *
G04 Format: Gerber/RS-274X *
G04 PCB-Dimensions: 340000 210000 *
G04 PCB-Coordinate-Origin: lower left *
%MOIN*%
%FSLAX25Y25*%
%LNTOP_PASTE_NONE_0*%
%ADD47C,0.0001*%
G54D47*G36*
X43602Y202952D02*X38484D01*
Y197048D01*
X43602D01*
Y202952D01*
G37*
G36*
X36516D02*X31398D01*
Y197048D01*
X36516D01*
Y202952D01*
G37*
G36*
X77048Y151102D02*Y145984D01*
X82952D01*
Y151102D01*
X77048D01*
G37*
G36*
X305315Y202952D02*X300197D01*
Y197048D01*
X305315D01*
Y202952D01*
G37*
G36*
X298229D02*X293111D01*
Y197048D01*
X298229D01*
Y202952D01*
G37*
G36*
X233268Y126102D02*Y120984D01*
X239172D01*
Y126102D01*
X233268D01*
G37*
G36*
Y119016D02*Y113898D01*
X239172D01*
Y119016D01*
X233268D01*
G37*
G36*
X225394Y21102D02*Y15984D01*
X231298D01*
Y21102D01*
X225394D01*
G37*
G36*
Y14016D02*Y8898D01*
X231298D01*
Y14016D01*
X225394D01*
G37*
G36*
X77048Y144016D02*Y138898D01*
X82952D01*
Y144016D01*
X77048D01*
G37*
G36*
X107048Y111102D02*Y105984D01*
X112952D01*
Y111102D01*
X107048D01*
G37*
G36*
Y104016D02*Y98898D01*
X112952D01*
Y104016D01*
X107048D01*
G37*
G36*
X187048Y74016D02*Y68898D01*
X192952D01*
Y74016D01*
X187048D01*
G37*
G36*
Y81102D02*Y75984D01*
X192952D01*
Y81102D01*
X187048D01*
G37*
G36*
X27048Y14016D02*Y8898D01*
X32952D01*
Y14016D01*
X27048D01*
G37*
G36*
Y21102D02*Y15984D01*
X32952D01*
Y21102D01*
X27048D01*
G37*
M02*
