G04 start of page 9 for group -1 layer_idx 268435462 *
G04 Title: (unknown), <virtual group> *
G04 Creator: pcb-rnd 3.1.4 *
G04 CreationDate: 2026-04-06 23:37:44 UTC *
G04 For: Alex Jokela *
G04 Format: Gerber/RS-274X *
G04 PCB-Dimensions: 340000 210000 *
G04 PCB-Coordinate-Origin: lower left *
%MOIN*%
%FSLAX25Y25*%
%LNGLOBAL_VIRTUAL_PDRILL_NONE*%
%ADD51C,0.0280*%
%ADD50C,0.0430*%
%ADD49C,0.0380*%
%ADD48C,0.0200*%
G54D48*X45000Y200000D03*
X77500D03*
G54D49*X100000D03*
Y190000D03*
G54D48*X77500D03*
X82404Y186443D03*
X68413Y188457D03*
X32328D03*
X86594Y183409D03*
G54D49*X100000Y170000D03*
Y160000D03*
Y180000D03*
G54D50*X55000Y200000D03*
X65000D03*
G54D48*X72286Y174989D03*
X77451Y171561D03*
X84065Y172587D03*
G54D49*X10000Y200000D03*
X20000D03*
X10000Y190000D03*
Y180000D03*
Y170000D03*
Y160000D03*
X20000D03*
Y170000D03*
Y180000D03*
Y190000D03*
G54D48*X39293Y155070D03*
X170000Y195000D03*
X162500Y185000D03*
X147500Y180000D03*
Y190000D03*
X153492Y186276D03*
X155000Y175000D03*
Y160000D03*
G54D51*X180000D03*
Y170000D03*
Y180000D03*
Y190000D03*
Y200000D03*
G54D48*X185487Y154507D03*
X140102Y155493D03*
G54D49*X200000Y200000D03*
Y190000D03*
X228346Y200000D03*
G54D51*X259843D03*
G54D49*X238346D03*
X228346Y190000D03*
X238346D03*
X228346Y180000D03*
G54D48*X221246Y179715D03*
G54D49*X238346Y180000D03*
X228346Y170000D03*
Y160000D03*
G54D48*X217522Y172400D03*
G54D49*X238346Y170000D03*
Y160000D03*
G54D48*X249295Y170000D03*
G54D51*X259843Y190000D03*
Y180000D03*
Y170000D03*
Y160000D03*
G54D48*X132500Y195000D03*
G54D51*X120000Y200000D03*
Y190000D03*
Y180000D03*
Y170000D03*
Y160000D03*
G54D48*X70000Y150000D03*
G54D49*X10000D03*
X20000D03*
X100000D03*
G54D48*X162500D03*
G54D51*X120000D03*
X180000D03*
X259843D03*
G54D49*X228346D03*
X238346D03*
X200000Y180000D03*
Y170000D03*
Y160000D03*
Y150000D03*
G54D48*X60000Y140000D03*
X65000Y145000D03*
X62500Y135000D03*
X63440Y123993D03*
X66859Y109997D03*
Y84402D03*
G54D49*X100000Y140000D03*
G54D51*X120000D03*
Y130000D03*
G54D48*X92992Y84507D03*
X131263Y138796D03*
X138372Y128934D03*
X148452Y89486D03*
X139638Y109045D03*
X129691Y127091D03*
X92186Y99968D03*
X153930Y78459D03*
X170000Y140000D03*
X165000Y135000D03*
G54D51*X180000Y140000D03*
G54D48*X169051Y124424D03*
G54D49*X200000Y140000D03*
G54D51*X180000Y130000D03*
G54D48*X185998Y102545D03*
X189489Y133344D03*
X208173Y127152D03*
X208311Y146838D03*
X186149Y90315D03*
X192993Y85000D03*
X207188Y81002D03*
G54D51*X259843Y140000D03*
X319843Y150000D03*
Y160000D03*
Y140000D03*
Y170000D03*
Y180000D03*
Y190000D03*
Y200000D03*
G54D48*X308445D03*
G54D51*X259843Y130000D03*
X319843D03*
G54D48*X234854Y138172D03*
G54D51*X259843Y120000D03*
X319843D03*
G54D48*X213781Y117703D03*
X219743Y123931D03*
G54D51*X259843Y110000D03*
Y100000D03*
Y90000D03*
Y80000D03*
G54D48*X215809Y77695D03*
X211312Y88816D03*
X213802Y107553D03*
G54D51*X259843Y70000D03*
Y60000D03*
Y50000D03*
Y40000D03*
X319843Y50000D03*
Y60000D03*
Y40000D03*
Y70000D03*
Y80000D03*
Y90000D03*
Y100000D03*
Y110000D03*
G54D48*X302501Y73058D03*
G54D51*X259843Y30000D03*
X319843D03*
X259843Y20000D03*
X319843D03*
G54D48*X232038Y24011D03*
G54D51*X259843Y10000D03*
X319843D03*
G54D48*X55000Y135000D03*
X48346Y127846D03*
X38258Y131152D03*
X75000Y138000D03*
X70984Y144084D03*
X88715Y140931D03*
G54D49*X10000Y140000D03*
X20000D03*
X10000Y130000D03*
X20000D03*
G54D48*X35872Y110990D03*
X30796Y113074D03*
X23680Y64594D03*
X57500Y125000D03*
X50000Y120000D03*
X57500Y110000D03*
G54D49*X100000Y130000D03*
G54D48*X85000Y107500D03*
X132500Y120000D03*
G54D51*X120000D03*
Y110000D03*
G54D49*X200000Y130000D03*
G54D48*X145000Y115000D03*
Y125000D03*
X160000Y130000D03*
Y120000D03*
G54D51*X180000D03*
Y110000D03*
G54D48*X135000Y132500D03*
G54D51*X120000Y100000D03*
Y90000D03*
Y80000D03*
Y70000D03*
Y60000D03*
Y50000D03*
Y40000D03*
Y30000D03*
X180000D03*
Y70000D03*
Y80000D03*
Y90000D03*
Y100000D03*
Y40000D03*
Y50000D03*
Y60000D03*
G54D49*X10000Y120000D03*
X20000D03*
X10000Y110000D03*
X20000D03*
X10000Y100000D03*
Y90000D03*
Y80000D03*
Y70000D03*
Y60000D03*
Y50000D03*
Y40000D03*
Y30000D03*
X20000D03*
Y40000D03*
Y50000D03*
Y60000D03*
Y70000D03*
Y80000D03*
Y90000D03*
Y100000D03*
X100000Y120000D03*
Y110000D03*
Y100000D03*
G54D48*X110000Y112500D03*
G54D49*X100000Y90000D03*
Y80000D03*
Y70000D03*
X200000Y120000D03*
G54D48*X82500Y90000D03*
Y80000D03*
Y70000D03*
G54D49*X100000Y60000D03*
G54D48*X82500D03*
X127500Y90000D03*
X137500Y75000D03*
X130000Y95000D03*
X140000Y67500D03*
G54D49*X100000Y50000D03*
Y40000D03*
G54D48*X140000D03*
X165000D03*
G54D49*X100000Y30000D03*
Y20000D03*
Y10000D03*
G54D48*X135000Y15000D03*
X160000D03*
G54D51*X120000Y20000D03*
Y10000D03*
X180000D03*
Y20000D03*
G54D49*X200000Y110000D03*
Y100000D03*
Y90000D03*
Y80000D03*
Y70000D03*
Y60000D03*
Y50000D03*
Y40000D03*
Y30000D03*
Y20000D03*
Y10000D03*
M02*
