M48
INCH
T14C0.028
T13C0.043
T12C0.038
T11C0.020
%
T11
G05
X004500Y020000
X007750Y020000
X007750Y019000
X008240Y018644
X006841Y018846
X003233Y018846
X008659Y018341
X007229Y017499
X007745Y017156
X008406Y017259
X003929Y015507
X017000Y019500
X016250Y018500
X014750Y018000
X014750Y019000
X015349Y018628
X015500Y017500
X015500Y016000
X018549Y015451
X014010Y015549
X022125Y017971
X021752Y017240
X024929Y017000
X013250Y019500
X007000Y015000
X016250Y015000
X006000Y014000
X006500Y014500
X006250Y013500
X006344Y012399
X006686Y011000
X006686Y008440
X009299Y008451
X013126Y013880
X013837Y012893
X014845Y008949
X013964Y010905
X012969Y012709
X009219Y009997
X015393Y007846
X017000Y014000
X016500Y013500
X016905Y012442
X018600Y010255
X018949Y013334
X020817Y012715
X020831Y014684
X018615Y009031
X019299Y008500
X020719Y008100
X030844Y020000
X023485Y013817
X021378Y011770
X021974Y012393
X021581Y007769
X021131Y008882
X021380Y010755
X030250Y007306
X023204Y002401
X005500Y013500
X004835Y012785
X003826Y013115
X007500Y013800
X007098Y014408
X008871Y014093
X003587Y011099
X003080Y011307
X002368Y006459
X005750Y012500
X005000Y012000
X005750Y011000
X008500Y010750
X013250Y012000
X014500Y011500
X014500Y012500
X016000Y013000
X016000Y012000
X013500Y013250
X011000Y011250
X008250Y009000
X008250Y008000
X008250Y007000
X008250Y006000
X012750Y009000
X013750Y007500
X013000Y009500
X014000Y006750
X014000Y004000
X016500Y004000
X013500Y001500
X016000Y001500
T14
X018000Y016000
X018000Y017000
X018000Y018000
X018000Y019000
X018000Y020000
X025984Y020000
X025984Y019000
X025984Y018000
X025984Y017000
X025984Y016000
X012000Y020000
X012000Y019000
X012000Y018000
X012000Y017000
X012000Y016000
X012000Y015000
X018000Y015000
X025984Y015000
X012000Y014000
X012000Y013000
X018000Y014000
X018000Y013000
X025984Y014000
X031984Y015000
X031984Y016000
X031984Y014000
X031984Y017000
X031984Y018000
X031984Y019000
X031984Y020000
X025984Y013000
X031984Y013000
X025984Y012000
X031984Y012000
X025984Y011000
X025984Y010000
X025984Y009000
X025984Y008000
X025984Y007000
X025984Y006000
X025984Y005000
X025984Y004000
X031984Y005000
X031984Y006000
X031984Y004000
X031984Y007000
X031984Y008000
X031984Y009000
X031984Y010000
X031984Y011000
X025984Y003000
X031984Y003000
X025984Y002000
X031984Y002000
X025984Y001000
X031984Y001000
X012000Y012000
X012000Y011000
X018000Y012000
X018000Y011000
X012000Y010000
X012000Y009000
X012000Y008000
X012000Y007000
X012000Y006000
X012000Y005000
X012000Y004000
X012000Y003000
X018000Y003000
X018000Y007000
X018000Y008000
X018000Y009000
X018000Y010000
X018000Y004000
X018000Y005000
X018000Y006000
X012000Y002000
X012000Y001000
X018000Y001000
X018000Y002000
T12
X010000Y020000
X010000Y019000
X010000Y017000
X010000Y016000
X010000Y018000
X001000Y020000
X002000Y020000
X001000Y019000
X001000Y018000
X001000Y017000
X001000Y016000
X002000Y016000
X002000Y017000
X002000Y018000
X002000Y019000
X020000Y020000
X020000Y019000
X022835Y020000
X023835Y020000
X022835Y019000
X023835Y019000
X022835Y018000
X023835Y018000
X022835Y017000
X022835Y016000
X023835Y017000
X023835Y016000
X001000Y015000
X002000Y015000
X010000Y015000
X022835Y015000
X023835Y015000
X020000Y018000
X020000Y017000
X020000Y016000
X020000Y015000
X010000Y014000
X020000Y014000
X001000Y014000
X002000Y014000
X001000Y013000
X002000Y013000
X010000Y013000
X020000Y013000
X001000Y012000
X002000Y012000
X001000Y011000
X002000Y011000
X001000Y010000
X001000Y009000
X001000Y008000
X001000Y007000
X001000Y006000
X001000Y005000
X001000Y004000
X001000Y003000
X002000Y003000
X002000Y004000
X002000Y005000
X002000Y006000
X002000Y007000
X002000Y008000
X002000Y009000
X002000Y010000
X010000Y012000
X010000Y011000
X010000Y010000
X010000Y009000
X010000Y008000
X010000Y007000
X020000Y012000
X010000Y006000
X010000Y005000
X010000Y004000
X010000Y003000
X010000Y002000
X010000Y001000
X020000Y011000
X020000Y010000
X020000Y009000
X020000Y008000
X020000Y007000
X020000Y006000
X020000Y005000
X020000Y004000
X020000Y003000
X020000Y002000
X020000Y001000
T13
X005500Y020000
X006500Y020000
M30
