G04 start of page 4 for group 6 layer_idx 1 *
G04 Title: (unknown), bottom_copper *
G04 Creator: pcb-rnd 3.1.4 *
G04 CreationDate: 2026-04-06 20:24:15 UTC *
G04 For: Alex Jokela *
G04 Format: Gerber/RS-274X *
G04 PCB-Dimensions: 340000 210000 *
G04 PCB-Coordinate-Origin: lower left *
%MOIN*%
%FSLAX25Y25*%
%LNBOTTOM_COPPER_NONE_6*%
%ADD35C,0.0280*%
%ADD34C,0.0430*%
%ADD33C,0.0380*%
%ADD32C,0.0200*%
%ADD31C,0.0460*%
%ADD30C,0.0650*%
%ADD29C,0.0001*%
%ADD28C,0.0360*%
%ADD27C,0.0410*%
%ADD26C,0.0600*%
%ADD25C,0.0560*%
%ADD24C,0.0100*%
G54D24*X20000Y100000D02*X29972D01*
X8490Y105000D02*X3165Y99674D01*
X29644Y94796D02*X8355D01*
X5335Y91777D01*
X27752Y90000D02*X20000D01*
X29972Y100000D02*X32275Y102303D01*
X94183Y99444D02*X87956D01*
X14507Y85493D02*X88133D01*
X36688Y91709D02*X55998D01*
X87051Y96134D02*X97692Y85493D01*
X103149D01*
X98133Y95493D02*X94183Y99444D01*
X5335Y91777D02*Y84665D01*
X10000Y90000D02*X14507Y85493D01*
X105493Y95493D02*X98133D01*
X42353Y104965D02*Y104601D01*
X63154Y103596D02*X45660D01*
X42353Y104601D02*X27752Y90000D01*
X254215Y81140D02*X209751D01*
X253402Y100730D02*X208552D01*
X208106Y100283D01*
X218766Y94563D02*X218320Y94117D01*
X215581D01*
X215135Y94563D01*
X103149Y85493D02*X112950Y95295D01*
X122017D01*
X215135Y94563D02*X184563D01*
X180000Y90000D01*
X124508Y85492D02*X255334D01*
X124508D02*X120000Y90000D01*
X122017Y95295D02*X129227Y102505D01*
X173293D01*
X258567Y85493D02*X254215Y81140D01*
X257672Y105000D02*X253402Y100730D01*
X315280Y94563D02*X218766D01*
X255334Y85492D02*X259843Y90000D01*
Y100000D02*X257266Y97423D01*
X322024Y85493D02*X258567D01*
X314843Y105000D02*X257672D01*
X319843Y90000D02*X315280Y94563D01*
X257266Y97423D02*X216950D01*
X319843Y100000D02*X324409Y95433D01*
X319843Y110000D02*X314843Y105000D01*
X319843Y120000D02*X326572Y113270D01*
X324409Y95433D02*Y87878D01*
X322024Y85493D01*
X326572Y113270D02*Y80326D01*
X321524Y75278D01*
X325077Y34606D02*X315974D01*
X306762Y25394D01*
X321758Y25493D02*X313386D01*
X319843Y40000D02*X312649D01*
X307962Y35313D01*
X319843Y130000D02*X315298Y134544D01*
X315266Y145423D02*X319843Y150000D01*
Y200000D02*X313211Y206631D01*
X319843Y140000D02*X324417Y135426D01*
X319843Y160000D02*X334444Y145398D01*
X321311Y165000D02*X336571Y149740D01*
X324417Y135426D02*Y127924D01*
X334444Y145398D02*Y43973D01*
X325077Y34606D01*
X336571Y149740D02*Y40306D01*
X321758Y25493D01*
X324417Y127924D02*X321493Y125000D01*
X209751Y81140D02*X207587Y78976D01*
X214387Y77415D02*X214179Y77207D01*
X184544Y134544D02*X180000Y130000D01*
X254565Y111893D02*X209350D01*
X225720Y125455D02*Y125454D01*
X255297D01*
X259834Y120000D02*X255125Y115291D01*
X230372Y119190D02*X252659D01*
X257976Y124507D01*
X315298Y134544D02*X184544D01*
X255297Y125454D02*X259843Y130000D01*
Y120000D02*X259834D01*
X257976Y124507D02*X265141D01*
X311308Y125000D02*X301308Y115000D01*
X257672D01*
X254565Y111893D01*
X236307Y145423D02*X315266D01*
X227780Y144744D02*X232524Y140000D01*
X259843D01*
Y110000D02*X255715D01*
X250969Y105254D01*
X160168Y71057D02*X163637Y74526D01*
X212184D01*
X142444Y60000D02*X146985Y64541D01*
X178026Y25493D02*X172025Y31494D01*
Y38710D01*
X220024Y45404D02*X136564D01*
X212184Y74526D02*X212809Y73900D01*
X217777D01*
X188041Y25493D02*X178026D01*
X184687Y35313D02*X180000Y40000D01*
X256054Y77415D02*X214387D01*
X217777Y73900D02*X219156Y75279D01*
X254564D01*
X258191Y75278D02*X256054Y77415D01*
X221507Y25394D02*X218743Y28158D01*
X253991Y59702D02*X249663Y55375D01*
X257672Y65000D02*X250700Y71972D01*
X222407D01*
X146985Y64541D02*X254956D01*
X250969Y105254D02*X175220D01*
X170474Y110000D01*
X249663Y55375D02*X131269D01*
X306762Y25394D02*X221507D01*
X254564Y75279D02*X259843Y70000D01*
X254956Y64541D02*X259496Y60000D01*
X304843Y65000D02*X257672D01*
X321524Y75278D02*X258191D01*
X331028Y45404D02*X220024D01*
X259496Y60000D02*X259843D01*
X319843Y50000D02*X304843Y65000D01*
X313386Y25493D02*X303278Y15385D01*
X198150D01*
X307962Y35313D02*X184687D01*
X20000Y60000D02*X24473Y64473D01*
X114473D01*
X115341Y54659D02*X14659D01*
X114473Y64473D02*X120000Y70000D01*
X117857Y55375D02*X115282Y57950D01*
Y61739D01*
X118728Y65185D01*
X114687Y45313D02*X24687D01*
X20000Y50000D01*
X120000Y70000D02*X121057Y71057D01*
X120000Y50000D02*X115341Y54659D01*
X131269Y55375D02*X130602Y56042D01*
X126530D02*X125863Y55375D01*
X117857D01*
X118728Y65185D02*X123409D01*
X136564Y45404D02*X129428Y52539D01*
X121057Y71057D02*X160168D01*
X120000Y60000D02*X142444D01*
X130602Y56042D02*X126530D01*
X3165Y99674D02*Y70322D01*
X8237Y65250D01*
X15000Y68287D02*Y75000D01*
X5335Y84665D02*X10000Y80000D01*
X20000Y70000D02*X23720Y73720D01*
X8237Y65250D02*X11963D01*
X15000Y68287D01*
Y75000D02*X20000Y80000D01*
X14659Y54659D02*X10000Y50000D01*
X40346Y105498D02*X29644Y94796D01*
X47205Y106902D02*X44291D01*
X42353Y104965D01*
X23720Y73720D02*X97069D01*
X97302Y73487D01*
X102698D01*
X87956Y99444D02*X81675Y105725D01*
X88133Y85493D02*X98133Y75493D01*
X101867D01*
X106373Y80000D01*
X120000Y110000D02*X105493Y95493D01*
X170474Y110000D02*X120000D01*
X106373Y80000D02*X120000D01*
X55998Y91709D02*X80995Y116706D01*
X75009Y115451D02*X63154Y103596D01*
X102698Y73487D02*X104562Y75351D01*
X121949D01*
X124508Y77910D01*
X152064Y20836D02*X132343D01*
X177659Y4179D02*X46739D01*
X37308Y13609D01*
X180000Y10000D02*X165000Y25000D01*
X132343Y20836D02*X126854Y15348D01*
X124508Y77910D02*Y85492D01*
X120000Y40000D02*X114687Y45313D01*
X40246Y15348D02*X25594Y30000D01*
X20000D01*
X10000D01*
X126854Y15348D02*X40246D01*
X62383Y39775D02*X66796Y35363D01*
X164637D01*
X180000Y20000D01*
X165000Y25000D02*X35000D01*
X20000Y40000D01*
X198150Y15385D02*X188041Y25493D01*
X120000Y130000D02*X121413Y128587D01*
X93487Y124537D02*X91886Y126139D01*
X74661D01*
X121413Y128587D02*X150453D01*
X120000Y140000D02*X157170D01*
X161915Y144744D01*
X227780D01*
X150453Y128587D02*X153585Y125455D01*
X255125Y115291D02*X150406D01*
X147058Y118639D01*
X137116D01*
X134878Y116400D01*
X321493Y125000D02*X311308D01*
X153585Y125455D02*X225720D01*
X134878Y116400D02*X120187D01*
X120000Y116587D01*
X74661Y126139D02*X71284Y122762D01*
X83196Y124132D02*X75492D01*
X71954Y120594D01*
X82365Y122125D02*X76323D01*
X87960Y115504D02*Y119368D01*
X83196Y124132D01*
X84302Y120188D02*X82365Y122125D01*
X76323D02*X72785Y118588D01*
X80995Y116706D02*Y118819D01*
X120000Y116587D02*X108811Y105398D01*
X98065D01*
X87960Y115504D01*
X120000Y116587D02*Y120000D01*
X81675Y105725D02*Y110085D01*
X84302Y112711D01*
Y120188D01*
X71284Y122762D02*X54664D01*
X71954Y120594D02*X57530D01*
X72785Y118588D02*X58891D01*
X54664Y122762D02*X53798Y123628D01*
X45463D02*X26836Y105000D01*
X8490D01*
X43459Y108909D02*X40346Y105796D01*
Y105498D01*
X53798Y123628D02*X45463D01*
X57530Y120594D02*X45845Y108909D01*
X43459D01*
X58891Y118588D02*X47205Y106902D01*
X10000Y130000D02*X5435Y134565D01*
X20000Y140000D02*X41306D01*
X14687Y145313D02*X40565D01*
X109305Y175493D02*X98133D01*
X103825Y165337D02*X113025Y174537D01*
X148874D01*
X148861Y164480D02*X124480D01*
X101867Y115493D02*X98133D01*
X125475Y144019D02*X124940Y144554D01*
X116639D01*
X107579Y135493D01*
X105493Y155493D02*X98133D01*
X98134Y145493D02*X105493D01*
X139289Y154507D02*X128801Y144019D01*
X125475D01*
X98133Y155493D02*X97886Y155741D01*
X107579Y135493D02*X97918D01*
X147618Y161047D02*X140566D01*
X126844Y147326D01*
X120000Y170000D02*X105493Y155493D01*
Y145493D02*X120000Y160000D01*
X124480Y164480D02*X120000Y160000D01*
X132883Y135412D02*X119009D01*
X104507Y120910D02*Y118133D01*
X101867Y115493D01*
X148874Y174537D02*X157667Y165744D01*
X162124Y161765D02*X160332Y163557D01*
X149785D01*
X157667Y165744D02*X162820D01*
X174507Y154507D02*X139289D01*
X170259Y164511D02*X167513Y161765D01*
X162124D01*
X149785Y163557D02*X148861Y164480D01*
X162820Y165744D02*X163493Y165072D01*
X170356Y173237D02*X163223D01*
X159036Y169051D01*
X180000Y150000D02*X184722Y154722D01*
X191839Y158709D02*X181291D01*
X180000Y160000D01*
X184722Y154722D02*X230419D01*
X228346Y150000D02*X218759D01*
X218163Y150596D01*
X230364Y164511D02*X170259D01*
X230419Y154722D02*X233077Y152063D01*
Y148654D01*
X236307Y145423D01*
X236370Y155328D02*X233347Y158351D01*
Y161528D01*
X230364Y164511D01*
X180000Y160000D02*X174507Y154507D01*
X238346Y160000D02*X252877Y174531D01*
X255170Y155328D02*X236370D01*
X245509Y175380D02*X172896D01*
X259843Y170000D02*X264843Y165000D01*
X259843Y160000D02*X255170Y155328D01*
X159519Y137550D02*X135020D01*
X132883Y135412D01*
X119009D02*X104507Y120910D01*
X98133Y115493D02*X95493Y118133D01*
X20000Y120000D02*X26276Y113724D01*
Y111563D01*
X95493Y118133D02*Y121867D01*
X96813Y123187D01*
X97918Y135493D02*X93815Y131390D01*
X66534Y128145D02*X64579Y126190D01*
X93815Y131390D02*X36635D01*
X32826Y135199D01*
X96813Y123187D02*Y125888D01*
X94556Y128145D01*
X66534D01*
X10000Y120000D02*X3407Y126593D01*
X97886Y155741D02*X25741D01*
X48981Y153729D02*X89898D01*
X98134Y145493D01*
X25741Y155741D02*X20000Y150000D01*
X41306Y140000D02*X47114Y145808D01*
X40565Y145313D02*X48981Y153729D01*
X10000Y150000D02*X14687Y145313D01*
X98133Y175493D02*X89418Y184209D01*
X123583Y183583D02*X120000Y180000D01*
X97411Y186216D02*X98996Y184631D01*
X109678D01*
X114308Y180000D01*
X120000D01*
X127756Y189589D02*X132119D01*
X136957Y194428D01*
X153963Y183583D02*X123583D01*
X136957Y194428D02*X162246D01*
X165535Y191139D01*
X180000Y191818D02*X182864Y194682D01*
X186631Y206631D02*X180000Y200000D01*
X115046Y204954D02*X120000Y200000D01*
X162787Y198564D02*X128564D01*
X182864Y194682D02*X310226D01*
X313211Y206631D02*X186631D01*
X221492Y198809D02*Y201541D01*
X224543Y204593D01*
X255250D01*
X259843Y200000D01*
X128564Y198564D02*X120000Y190000D01*
X310226Y194682D02*X314907Y190000D01*
X319843D01*
X259843D02*X255183Y185341D01*
X176010D01*
X180000Y191818D02*Y190000D01*
X172896Y175380D02*X171731Y176544D01*
X161001D01*
X153963Y183583D01*
X176010Y185341D02*X162787Y198564D01*
X252877Y174531D02*X299213D01*
X259843Y180000D02*X250129D01*
X245509Y175380D01*
X264843Y165000D02*X321311D01*
X15430Y184570D02*X10000Y190000D01*
X20000D02*Y191777D01*
X25039Y196815D01*
X10000Y200000D02*X20000D01*
X25039Y196815D02*X39257D01*
X42385Y193687D01*
X26408Y193509D02*X32416Y187501D01*
X73041Y184570D02*X15430D01*
X42385Y193687D02*X47615D01*
X48509Y194580D01*
X32416Y187501D02*X73949D01*
X75234Y186216D01*
X97411D01*
X20000Y200000D02*X38910D01*
X43217Y195693D01*
X46783D01*
X51090Y200000D01*
X55000D01*
X48509Y194580D02*X104404D01*
X111649Y187335D01*
X5786Y206988D02*X164830D01*
X6778Y204954D02*X115046D01*
X164830Y206988D02*X180000Y191818D01*
X20000Y180000D02*X21234Y178766D01*
X29361D01*
X10000Y170000D02*X15291Y175291D01*
X78549D01*
X80959Y177702D01*
X44447Y179931D02*X45419Y180902D01*
X75365D01*
X89418Y184209D02*X73402D01*
X73041Y184570D01*
X20000Y170000D02*X24663Y165337D01*
X103825D01*
X3407Y126593D02*Y204609D01*
X5435Y134565D02*Y203611D01*
X3407Y204609D02*X5786Y206988D01*
X5435Y203611D02*X6778Y204954D01*
G54D25*X45000Y200000D03*
G54D26*X100000D03*
Y190000D03*
G54D27*X77500D03*
Y200000D03*
G54D26*X100000Y180000D03*
G54D28*X109305Y175493D03*
X80959Y177702D03*
X75365Y180902D03*
G54D26*X100000Y170000D03*
Y160000D03*
G54D28*X111649Y187335D03*
G54D29*G36*
X51750Y203250D02*X58250D01*
Y196750D01*
X51750D01*
Y203250D01*
G37*
G54D28*X44447Y179931D03*
G54D30*X65000Y200000D03*
G54D29*G36*
X7000Y203000D02*X13000D01*
Y197000D01*
X7000D01*
Y203000D01*
G37*
G54D26*X20000Y200000D03*
X10000Y190000D03*
Y180000D03*
Y170000D03*
Y160000D03*
X20000D03*
Y170000D03*
Y180000D03*
Y190000D03*
G54D28*X29361Y178766D03*
X26408Y193509D03*
G54D27*X170000Y195000D03*
X162500Y185000D03*
X147500Y180000D03*
Y190000D03*
G54D28*X165535Y191139D03*
G54D27*X155000Y175000D03*
Y160000D03*
G54D28*X163493Y165072D03*
X159036Y169051D03*
X170356Y173237D03*
G54D26*X180000Y160000D03*
Y170000D03*
Y180000D03*
Y190000D03*
Y200000D03*
G54D28*X147618Y161047D03*
G54D26*X200000Y200000D03*
Y190000D03*
G54D29*G36*
X225346Y203000D02*X231346D01*
Y197000D01*
X225346D01*
Y203000D01*
G37*
G54D28*X221492Y198809D03*
G54D29*G36*
X256843Y203000D02*X262843D01*
Y197000D01*
X256843D01*
Y203000D01*
G37*
G54D26*X238346Y200000D03*
X228346Y190000D03*
X238346D03*
X228346Y180000D03*
X238346D03*
X228346Y170000D03*
Y160000D03*
G54D28*X191839Y158709D03*
G54D26*X238346Y170000D03*
Y160000D03*
X259843Y190000D03*
Y180000D03*
Y170000D03*
Y160000D03*
G54D27*X132500Y195000D03*
G54D29*G36*
X117000Y203000D02*X123000D01*
Y197000D01*
X117000D01*
Y203000D01*
G37*
G54D26*X120000Y190000D03*
G54D28*X127756Y189589D03*
G54D26*X120000Y180000D03*
Y170000D03*
Y160000D03*
G54D27*X70000Y150000D03*
G54D26*X10000D03*
X20000D03*
X100000D03*
G54D27*X162500D03*
G54D26*X120000D03*
X180000D03*
X259843D03*
X228346D03*
G54D28*X218163Y150596D03*
G54D26*X238346Y150000D03*
X200000Y180000D03*
Y170000D03*
Y160000D03*
Y150000D03*
G54D27*X60000Y140000D03*
X65000Y145000D03*
X62500Y135000D03*
G54D28*X64579Y126190D03*
X47114Y145808D03*
G54D26*X100000Y140000D03*
X120000D03*
Y130000D03*
G54D28*X126844Y147326D03*
X129428Y52539D03*
X152064Y20836D03*
X123409Y65185D03*
X172025Y38710D03*
G54D26*X200000Y140000D03*
G54D27*X170000D03*
X165000Y135000D03*
G54D26*X180000Y140000D03*
G54D28*X159519Y137550D03*
G54D26*X180000Y130000D03*
G54D28*X173293Y102505D03*
G54D26*X259843Y140000D03*
X319843Y150000D03*
Y160000D03*
Y140000D03*
Y170000D03*
Y180000D03*
Y190000D03*
Y200000D03*
G54D28*X299213Y174531D03*
G54D26*X259843Y130000D03*
X319843D03*
G54D28*X225720Y125454D03*
X230372Y119190D03*
G54D26*X259843Y120000D03*
X319843D03*
G54D28*X265141Y124507D03*
G54D26*X259843Y110000D03*
Y100000D03*
Y90000D03*
Y80000D03*
G54D28*X207587Y78976D03*
X208106Y100283D03*
X214179Y77207D03*
X216950Y97423D03*
G54D26*X259843Y70000D03*
Y60000D03*
Y50000D03*
G54D28*X209350Y111893D03*
X220024Y45404D03*
X253991Y59702D03*
X222407Y71972D03*
G54D26*X259843Y40000D03*
X319843Y50000D03*
Y60000D03*
Y40000D03*
Y70000D03*
Y80000D03*
Y90000D03*
Y100000D03*
Y110000D03*
G54D28*X331028Y45404D03*
G54D26*X259843Y30000D03*
X319843D03*
G54D28*X218743Y28158D03*
G54D26*X259843Y20000D03*
X319843D03*
X259843Y10000D03*
X319843D03*
G54D27*X55000Y135000D03*
G54D28*X37308Y13609D03*
X62383Y39775D03*
X36688Y91709D03*
X45660Y103596D03*
G54D31*X75000Y138000D03*
G54D28*X87051Y96134D03*
X93487Y124537D03*
X80995Y118819D03*
X75009Y115451D03*
G54D26*X10000Y140000D03*
X20000D03*
X10000Y130000D03*
X20000D03*
G54D28*X32275Y102303D03*
X32826Y135199D03*
X26276Y111563D03*
G54D27*X57500Y125000D03*
X50000Y120000D03*
X57500Y110000D03*
G54D26*X100000Y130000D03*
G54D27*X85000Y107500D03*
X132500Y120000D03*
G54D26*X120000D03*
Y110000D03*
X200000Y130000D03*
G54D27*X145000Y115000D03*
Y125000D03*
X160000Y130000D03*
Y120000D03*
G54D26*X180000D03*
Y110000D03*
G54D27*X135000Y132500D03*
G54D26*X120000Y100000D03*
Y90000D03*
Y80000D03*
Y70000D03*
Y60000D03*
Y50000D03*
Y40000D03*
Y30000D03*
X180000D03*
Y70000D03*
Y80000D03*
Y90000D03*
Y100000D03*
Y40000D03*
Y50000D03*
Y60000D03*
X10000Y120000D03*
X20000D03*
X10000Y110000D03*
X20000D03*
X10000Y100000D03*
Y90000D03*
Y80000D03*
Y70000D03*
Y60000D03*
Y50000D03*
Y40000D03*
Y30000D03*
X20000D03*
Y40000D03*
Y50000D03*
Y60000D03*
Y70000D03*
Y80000D03*
Y90000D03*
Y100000D03*
X100000Y120000D03*
Y110000D03*
Y100000D03*
G54D31*X110000Y112500D03*
G54D26*X100000Y90000D03*
Y80000D03*
Y70000D03*
X200000Y120000D03*
G54D27*X82500Y90000D03*
Y80000D03*
Y70000D03*
G54D26*X100000Y60000D03*
G54D27*X82500D03*
X127500Y90000D03*
X137500Y75000D03*
X130000Y95000D03*
X140000Y67500D03*
G54D26*X100000Y50000D03*
Y40000D03*
G54D27*X140000D03*
X165000D03*
G54D26*X100000Y30000D03*
Y20000D03*
Y10000D03*
G54D27*X135000Y15000D03*
X160000D03*
G54D26*X120000Y20000D03*
Y10000D03*
X180000D03*
Y20000D03*
G54D28*X177659Y4179D03*
G54D26*X200000Y110000D03*
Y100000D03*
Y90000D03*
Y80000D03*
Y70000D03*
Y60000D03*
Y50000D03*
Y40000D03*
Y30000D03*
Y20000D03*
Y10000D03*
G54D32*G54D33*G54D32*G54D33*G54D32*G54D33*G54D32*G54D34*G54D32*G54D34*G54D33*G54D32*G54D35*G54D32*G54D33*G54D32*G54D35*G54D33*G54D32*G54D33*G54D35*G54D32*G54D35*G54D32*G54D35*G54D32*G54D33*G54D32*G54D35*G54D33*G54D32*G54D33*G54D32*G54D33*G54D35*G54D32*G54D33*G54D32*G54D35*G54D32*G54D35*G54D32*G54D35*G54D32*G54D35*G54D32*G54D35*G54D32*G54D35*G54D32*G54D35*G54D32*G54D35*G54D32*G54D35*G54D32*G54D35*G54D32*G54D33*G54D32*G54D33*G54D32*G54D35*G54D33*G54D32*G54D35*G54D32*G54D35*G54D33*G54D32*G54D33*G54D32*G54D33*G54D32*G54D33*G54D32*G54D33*G54D32*G54D35*G54D32*G54D33*M02*
