M48
INCH
T14C0.043
T13C0.028
T12C0.020
T11C0.038
%
T12
G05
X003026Y015814
X004279Y016072
X005855Y016042
X005855Y018125
X007629Y017898
X015019Y018850
X019877Y015246
X015642Y015500
X008584Y014718
X013549Y013577
X010421Y011069
X006249Y006280
X020839Y014424
X003246Y010229
X019416Y012511
X022997Y012511
X020709Y011645
X019399Y011646
X020960Y012045
X019978Y007529
X020818Y008000
X003765Y008000
X019750Y008101
X022399Y002810
X022012Y001658
T13
X025984Y020000
X025984Y019000
X025984Y018000
X025984Y017000
X025984Y016000
X025984Y015000
X012000Y020000
X018000Y020000
X012000Y019000
X012000Y018000
X012000Y017000
X012000Y016000
X012000Y015000
X018000Y015000
X018000Y016000
X018000Y017000
X018000Y018000
X018000Y019000
X012000Y014000
X018000Y014000
X012000Y013000
X018000Y013000
X012000Y012000
X012000Y011000
X012000Y010000
X012000Y009000
X012000Y008000
X012000Y007000
X012000Y006000
X012000Y005000
X018000Y006000
X018000Y007000
X018000Y005000
X018000Y008000
X018000Y009000
X018000Y010000
X018000Y011000
X018000Y012000
X012000Y004000
X018000Y004000
X012000Y003000
X018000Y003000
X012000Y002000
X012000Y001000
X018000Y001000
X018000Y002000
X025984Y014000
X031984Y014000
X031984Y015000
X031984Y016000
X031984Y017000
X031984Y018000
X031984Y019000
X031984Y020000
X025984Y013000
X031984Y013000
X025984Y012000
X025984Y011000
X025984Y010000
X025984Y009000
X025984Y008000
X031984Y008000
X031984Y009000
X031984Y010000
X031984Y011000
X031984Y012000
X025984Y007000
X031984Y007000
X025984Y006000
X031984Y006000
X025984Y005000
X025984Y004000
X025984Y003000
X025984Y002000
X025984Y001000
X031984Y001000
X031984Y002000
X031984Y003000
X031984Y004000
X031984Y005000
T11
X001000Y020000
X001000Y019000
X001000Y018000
X001000Y017000
X001000Y016000
X022835Y020000
X023835Y020000
X022835Y019000
X023835Y019000
X022835Y018000
X023835Y018000
X022835Y017000
X023835Y017000
X022835Y016000
X023835Y016000
X022835Y015000
X023835Y015000
X002000Y017000
X002000Y018000
X002000Y019000
X002000Y020000
X001000Y015000
X002000Y015000
X002000Y016000
X001000Y014000
X002000Y014000
X001000Y013000
X002000Y013000
X001000Y012000
X001000Y011000
X001000Y010000
X001000Y009000
X001000Y008000
X001000Y007000
X001000Y006000
X002000Y007000
X002000Y008000
X002000Y009000
X002000Y010000
X001000Y005000
X002000Y005000
X002000Y006000
X002000Y011000
X002000Y012000
X001000Y004000
X002000Y004000
X001000Y003000
X002000Y003000
T14
X005500Y020000
X006500Y020000
M30
