G04 start of page 9 for group -1 layer_idx 268435462 *
G04 Title: (unknown), <virtual group> *
G04 Creator: pcb-rnd 3.1.4 *
G04 CreationDate: 2026-04-07 01:30:34 UTC *
G04 For: Alex Jokela *
G04 Format: Gerber/RS-274X *
G04 PCB-Dimensions: 340000 210000 *
G04 PCB-Coordinate-Origin: lower left *
%MOIN*%
%FSLAX25Y25*%
%LNGLOBAL_VIRTUAL_PDRILL_NONE*%
%ADD45C,0.0430*%
%ADD44C,0.0280*%
%ADD43C,0.0200*%
%ADD42C,0.0380*%
G54D42*X10000Y200000D03*
Y190000D03*
Y180000D03*
Y170000D03*
Y160000D03*
G54D43*X30259Y158139D03*
X42787Y160720D03*
X58548Y160421D03*
Y181252D03*
G54D44*X259843Y200000D03*
Y190000D03*
G54D42*X228346Y200000D03*
X238346D03*
X228346Y190000D03*
X238346D03*
G54D44*X259843Y180000D03*
G54D42*X228346D03*
X238346D03*
G54D43*X76290Y178983D03*
X150190Y188496D03*
G54D44*X259843Y170000D03*
G54D42*X228346D03*
X238346D03*
G54D44*X259843Y160000D03*
G54D42*X228346D03*
X238346D03*
G54D44*X259843Y150000D03*
G54D42*X228346D03*
X238346D03*
G54D43*X198766Y152464D03*
X156420Y154999D03*
G54D45*X55000Y200000D03*
X65000D03*
G54D44*X120000D03*
X180000D03*
X120000Y190000D03*
Y180000D03*
Y170000D03*
Y160000D03*
Y150000D03*
X180000D03*
Y160000D03*
Y170000D03*
Y180000D03*
Y190000D03*
X120000Y140000D03*
X180000D03*
G54D43*X85839Y147178D03*
X135489Y135775D03*
G54D44*X120000Y130000D03*
X180000D03*
X120000Y120000D03*
Y110000D03*
Y100000D03*
G54D43*X104210Y110685D03*
G54D44*X120000Y90000D03*
Y80000D03*
Y70000D03*
Y60000D03*
G54D43*X62495Y62800D03*
G54D44*X120000Y50000D03*
X180000Y60000D03*
Y70000D03*
Y50000D03*
Y80000D03*
Y90000D03*
Y100000D03*
Y110000D03*
Y120000D03*
X120000Y40000D03*
X180000D03*
X120000Y30000D03*
X180000D03*
X120000Y20000D03*
Y10000D03*
X180000D03*
Y20000D03*
G54D42*X20000Y170000D03*
Y180000D03*
Y190000D03*
Y200000D03*
X10000Y150000D03*
X20000D03*
Y160000D03*
X10000Y140000D03*
X20000D03*
G54D44*X259843D03*
G54D43*X208389Y144239D03*
G54D44*X319843Y140000D03*
Y150000D03*
Y160000D03*
Y170000D03*
Y180000D03*
Y190000D03*
Y200000D03*
G54D42*X10000Y130000D03*
X20000D03*
G54D43*X32459Y102293D03*
G54D44*X259843Y130000D03*
X319843D03*
G54D43*X194156Y125111D03*
X229974D03*
X207089Y116449D03*
X193994Y116457D03*
X209600Y120453D03*
G54D44*X259843Y120000D03*
Y110000D03*
Y100000D03*
Y90000D03*
Y80000D03*
X319843D03*
Y90000D03*
Y100000D03*
Y110000D03*
Y120000D03*
X259843Y70000D03*
X319843D03*
G54D43*X199776Y75286D03*
X208176Y80000D03*
X37647D03*
X197500Y81012D03*
G54D44*X259843Y60000D03*
X319843D03*
X259843Y50000D03*
Y40000D03*
Y30000D03*
Y20000D03*
Y10000D03*
X319843D03*
Y20000D03*
Y30000D03*
Y40000D03*
Y50000D03*
G54D43*X223992Y28102D03*
X220118Y16578D03*
G54D42*X10000Y120000D03*
Y110000D03*
Y100000D03*
Y90000D03*
Y80000D03*
Y70000D03*
Y60000D03*
X20000Y70000D03*
Y80000D03*
Y90000D03*
Y100000D03*
X10000Y50000D03*
X20000D03*
Y60000D03*
Y110000D03*
Y120000D03*
X10000Y40000D03*
X20000D03*
X10000Y30000D03*
X20000D03*
M02*
