G04 start of page 5 for group 2 layer_idx 5 *
G04 Title: (unknown), top_mask *
G04 Creator: pcb-rnd 3.1.4 *
G04 CreationDate: 2026-04-06 23:37:44 UTC *
G04 For: Alex Jokela *
G04 Format: Gerber/RS-274X *
G04 PCB-Dimensions: 340000 210000 *
G04 PCB-Coordinate-Origin: lower left *
%MOIN*%
%FSLAX25Y25*%
%LNTOP_MASK_NONE_2*%
%ADD39C,0.0710*%
%ADD38C,0.0420*%
%ADD37C,0.0660*%
%ADD36C,0.0001*%
G54D36*G36*
X43902Y203252D02*X38184D01*
Y196748D01*
X43902D01*
Y203252D01*
G37*
G54D37*X100000Y200000D03*
Y190000D03*
G54D38*X82404Y186443D03*
X68413Y188457D03*
X32328D03*
X86594Y183409D03*
G54D37*X100000Y170000D03*
Y160000D03*
Y180000D03*
G54D36*G36*
X51450Y203550D02*X58550D01*
Y196450D01*
X51450D01*
Y203550D01*
G37*
G54D39*X65000Y200000D03*
G54D38*X72286Y174989D03*
X77451Y171561D03*
X84065Y172587D03*
G54D36*G36*
X6700Y203300D02*X13300D01*
Y196700D01*
X6700D01*
Y203300D01*
G37*
G54D37*X20000Y200000D03*
G54D36*G36*
X36816Y203252D02*X31098D01*
Y196748D01*
X36816D01*
Y203252D01*
G37*
G54D37*X10000Y190000D03*
Y180000D03*
Y170000D03*
Y160000D03*
X20000D03*
Y170000D03*
Y180000D03*
Y190000D03*
G54D38*X39293Y155070D03*
X153492Y186276D03*
G54D37*X180000Y160000D03*
Y170000D03*
Y180000D03*
Y190000D03*
Y200000D03*
G54D38*X185487Y154507D03*
X140102Y155493D03*
G54D37*X200000Y200000D03*
Y190000D03*
G54D36*G36*
X225046Y203300D02*X231646D01*
Y196700D01*
X225046D01*
Y203300D01*
G37*
G36*
X256543D02*X263143D01*
Y196700D01*
X256543D01*
Y203300D01*
G37*
G54D37*X238346Y200000D03*
X228346Y190000D03*
X238346D03*
X228346Y180000D03*
G54D38*X221246Y179715D03*
G54D37*X238346Y180000D03*
X228346Y170000D03*
Y160000D03*
G54D38*X217522Y172400D03*
G54D37*X238346Y170000D03*
Y160000D03*
G54D38*X249295Y170000D03*
G54D37*X259843Y190000D03*
Y180000D03*
Y170000D03*
Y160000D03*
G54D36*G36*
X116700Y203300D02*X123300D01*
Y196700D01*
X116700D01*
Y203300D01*
G37*
G54D37*X120000Y190000D03*
Y180000D03*
Y170000D03*
Y160000D03*
X10000Y150000D03*
X20000D03*
X100000D03*
X120000D03*
X180000D03*
G54D36*G36*
X76748Y151402D02*Y145684D01*
X83252D01*
Y151402D01*
X76748D01*
G37*
G54D37*X259843Y150000D03*
X228346D03*
X238346D03*
X200000Y180000D03*
Y170000D03*
Y160000D03*
Y150000D03*
G54D38*X63440Y123993D03*
X66859Y109997D03*
Y84402D03*
G54D37*X100000Y140000D03*
X120000D03*
Y130000D03*
G54D38*X92992Y84507D03*
X131263Y138796D03*
X138372Y128934D03*
X148452Y89486D03*
X139638Y109045D03*
X129691Y127091D03*
X92186Y99968D03*
X153930Y78459D03*
G54D37*X180000Y140000D03*
G54D38*X169051Y124424D03*
G54D37*X200000Y140000D03*
X180000Y130000D03*
G54D38*X185998Y102545D03*
X189489Y133344D03*
X208173Y127152D03*
X208311Y146838D03*
X186149Y90315D03*
X192993Y85000D03*
X207188Y81002D03*
G54D37*X259843Y140000D03*
X319843Y150000D03*
Y160000D03*
Y140000D03*
Y170000D03*
Y180000D03*
Y190000D03*
Y200000D03*
G54D36*G36*
X305615Y203252D02*X299897D01*
Y196748D01*
X305615D01*
Y203252D01*
G37*
G36*
X298529D02*X292811D01*
Y196748D01*
X298529D01*
Y203252D01*
G37*
G54D38*X308445Y200000D03*
G54D37*X259843Y130000D03*
X319843D03*
G54D38*X234854Y138172D03*
G54D37*X259843Y120000D03*
X319843D03*
G54D36*G36*
X232968Y126402D02*Y120684D01*
X239472D01*
Y126402D01*
X232968D01*
G37*
G36*
Y119316D02*Y113598D01*
X239472D01*
Y119316D01*
X232968D01*
G37*
G54D38*X213781Y117703D03*
X219743Y123931D03*
G54D37*X259843Y110000D03*
Y100000D03*
Y90000D03*
Y80000D03*
G54D38*X215809Y77695D03*
X211312Y88816D03*
X213802Y107553D03*
G54D37*X259843Y70000D03*
Y60000D03*
Y50000D03*
Y40000D03*
X319843Y50000D03*
Y60000D03*
Y40000D03*
Y70000D03*
Y80000D03*
Y90000D03*
Y100000D03*
Y110000D03*
G54D38*X302501Y73058D03*
G54D37*X259843Y30000D03*
X319843D03*
X259843Y20000D03*
X319843D03*
G54D36*G36*
X225094Y21402D02*Y15684D01*
X231598D01*
Y21402D01*
X225094D01*
G37*
G54D38*X232038Y24011D03*
G54D37*X259843Y10000D03*
X319843D03*
G54D36*G36*
X225094Y14316D02*Y8598D01*
X231598D01*
Y14316D01*
X225094D01*
G37*
G54D38*X48346Y127846D03*
X38258Y131152D03*
G54D36*G36*
X76748Y144316D02*Y138598D01*
X83252D01*
Y144316D01*
X76748D01*
G37*
G54D38*X70984Y144084D03*
X88715Y140931D03*
G54D37*X10000Y140000D03*
X20000D03*
X10000Y130000D03*
X20000D03*
G54D38*X35872Y110990D03*
X30796Y113074D03*
X23680Y64594D03*
G54D37*X100000Y130000D03*
X120000Y120000D03*
Y110000D03*
G54D36*G36*
X106748Y111402D02*Y105684D01*
X113252D01*
Y111402D01*
X106748D01*
G37*
G54D37*X200000Y130000D03*
X180000Y120000D03*
Y110000D03*
G54D36*G36*
X106748Y104316D02*Y98598D01*
X113252D01*
Y104316D01*
X106748D01*
G37*
G54D37*X120000Y100000D03*
Y90000D03*
Y80000D03*
Y70000D03*
Y60000D03*
Y50000D03*
Y40000D03*
Y30000D03*
X180000D03*
Y70000D03*
Y80000D03*
Y90000D03*
Y100000D03*
Y40000D03*
Y50000D03*
Y60000D03*
G54D36*G36*
X186748Y74316D02*Y68598D01*
X193252D01*
Y74316D01*
X186748D01*
G37*
G36*
Y81402D02*Y75684D01*
X193252D01*
Y81402D01*
X186748D01*
G37*
G54D37*X10000Y120000D03*
X20000D03*
X10000Y110000D03*
X20000D03*
X10000Y100000D03*
Y90000D03*
Y80000D03*
Y70000D03*
Y60000D03*
Y50000D03*
Y40000D03*
Y30000D03*
X20000D03*
G54D36*G36*
X26748Y14316D02*Y8598D01*
X33252D01*
Y14316D01*
X26748D01*
G37*
G36*
Y21402D02*Y15684D01*
X33252D01*
Y21402D01*
X26748D01*
G37*
G54D37*X20000Y40000D03*
Y50000D03*
Y60000D03*
Y70000D03*
Y80000D03*
Y90000D03*
Y100000D03*
X100000Y120000D03*
Y110000D03*
Y100000D03*
Y90000D03*
Y80000D03*
Y70000D03*
X200000Y120000D03*
X100000Y60000D03*
Y50000D03*
Y40000D03*
Y30000D03*
Y20000D03*
Y10000D03*
X120000Y20000D03*
Y10000D03*
X180000D03*
Y20000D03*
X200000Y110000D03*
Y100000D03*
Y90000D03*
Y80000D03*
Y70000D03*
Y60000D03*
Y50000D03*
Y40000D03*
Y30000D03*
Y20000D03*
Y10000D03*
M02*
