G04 start of page 3 for group 3 layer_idx 0 *
G04 Title: (unknown), top_copper *
G04 Creator: pcb-rnd 3.1.4 *
G04 CreationDate: 2026-04-06 23:37:44 UTC *
G04 For: Alex Jokela *
G04 Format: Gerber/RS-274X *
G04 PCB-Dimensions: 340000 210000 *
G04 PCB-Coordinate-Origin: lower left *
%MOIN*%
%FSLAX25Y25*%
%LNTOP_COPPER_NONE_3*%
%ADD23C,0.0280*%
%ADD22C,0.0430*%
%ADD21C,0.0380*%
%ADD20C,0.0200*%
%ADD19C,0.0460*%
%ADD18C,0.0650*%
%ADD17C,0.0360*%
%ADD16C,0.0600*%
%ADD15C,0.0001*%
%ADD14C,0.0410*%
%ADD13C,0.0560*%
%ADD12C,0.0100*%
G54D12*X10000Y120000D02*X15000Y125000D01*
X21659D01*
X21579Y115000D02*X18287D01*
X15000Y111713D01*
X15493Y75493D02*X8133D01*
X8513Y95000D02*X21769D01*
X14687Y85313D02*X10000Y90000D01*
X15000Y111713D02*Y108384D01*
X11122Y104507D01*
X8115D01*
X15000Y135000D02*X10000Y130000D01*
Y150000D02*X14913Y154913D01*
X25947D01*
X18780Y75493D02*X15000Y71713D01*
Y68287D01*
X20000Y80000D02*X15493Y75493D01*
X15000Y35000D02*X10000Y40000D01*
X5439Y34561D02*X10000Y30000D01*
X22170Y45000D02*X15000D01*
X24974Y18543D02*X15000Y28517D01*
Y35000D01*
X3401Y30051D02*X21995Y11457D01*
X30000D01*
X15000Y68287D02*X11713Y65000D01*
X14751Y55249D02*X10000Y60000D01*
X15000Y45000D02*X10000Y50000D01*
X11713Y65000D02*X8527D01*
X5439Y61913D01*
X8133Y75493D02*X5453Y78174D01*
Y91941D01*
X8513Y95000D01*
X8115Y104507D02*X3401Y99793D01*
Y30051D01*
X5439Y61913D02*Y34561D01*
X48346Y127846D02*Y123464D01*
X35872Y110990D01*
X45040Y129216D02*Y127317D01*
X70597Y129216D02*X51653D01*
X44302Y114743D02*X103639D01*
X105202Y116307D01*
X110054Y123993D02*X110787Y124725D01*
X124791D01*
X105202Y116307D02*X111577D01*
X112883Y115000D01*
X121769D01*
X125085Y131697D02*X129691Y127091D01*
X69901Y131358D02*X52349D01*
X126550Y113450D02*X120000Y120000D01*
X63440Y123993D02*X110054D01*
X67178Y108543D02*Y109678D01*
X66859Y109997D01*
X37242Y107683D02*X44302Y114743D01*
X30000Y18543D02*X24974D01*
X66859Y84402D02*X57950Y75493D01*
X23680Y64594D02*X72065D01*
X121814Y35390D02*X31780D01*
X93627Y50000D02*X98133Y45493D01*
X114507D01*
X120000Y40000D01*
X165000Y25000D02*X35000D01*
X20000Y40000D01*
X74348Y60000D02*X78821Y64473D01*
X66098Y70000D02*X81436Y85337D01*
X72065Y64594D02*X81978Y74507D01*
X31780Y35390D02*X22170Y45000D01*
X20000Y50000D02*X93627D01*
X81436Y85337D02*X88965D01*
X98134Y94507D01*
X21769Y95000D02*X34452Y107683D01*
X37242D01*
X20000Y90000D02*X33542Y103542D01*
X98134Y94507D02*X101867D01*
X33542Y103542D02*X93818D01*
X94783Y104507D01*
X101867D01*
X92186Y99968D02*X74891D01*
X101867Y104507D02*X104507Y101867D01*
Y99255D01*
X74891Y99968D02*X60236Y85313D01*
X14687D01*
X101867Y94507D02*X106374Y90000D01*
X104507Y99255D02*X108461Y95301D01*
X121791D01*
X110000Y101457D02*X118543D01*
X120000Y100000D01*
X110000Y108543D02*X67178D01*
X106374Y90000D02*X120000D01*
Y110000D02*X126987Y103013D01*
X130435Y84507D02*X92992D01*
X121769Y115000D02*X127723Y109045D01*
X121791Y95301D02*X126987Y100497D01*
Y103013D02*Y100497D01*
X120000Y80000D02*X130530D01*
X57950Y75493D02*X18780D01*
X20000Y70000D02*X66098D01*
X81978Y74507D02*X131477D01*
X20000Y60000D02*X74348D01*
X115249Y55249D02*X14751D01*
X78821Y64473D02*X114473D01*
X120000Y70000D01*
X126098Y63902D02*X120000Y70000D01*
Y60000D02*X115249Y55249D01*
X124507Y55493D02*X120000Y60000D01*
Y50000D02*X124545Y45455D01*
Y38122D01*
X121814Y35390D01*
X51653Y129216D02*X49716Y131153D01*
X50809Y153774D02*X81385D01*
X52349Y131358D02*X50547Y133160D01*
X80000Y149211D02*Y148543D01*
X76275D02*X80000D01*
X70984Y144084D02*X77373D01*
X76598Y133218D02*X71761D01*
X69901Y131358D01*
X76275Y148543D02*X37178D01*
X80313Y158377D02*X37923D01*
X79481Y160383D02*X37092D01*
X81139Y156366D02*X40588D01*
X78650Y162390D02*X36261D01*
X31972Y158102D01*
X35430Y164397D02*X75875D01*
X37923Y158377D02*X35986Y156439D01*
X37092Y160383D02*X33979Y157270D01*
Y154456D01*
X40588Y156366D02*X39293Y155070D01*
X31972Y158102D02*Y155520D01*
X25947Y154913D02*X35430Y164397D01*
X35986Y156439D02*Y153505D01*
X77373Y144084D02*X80000Y141457D01*
X80442Y134224D02*X77604D01*
X76598Y133218D01*
X49716Y131153D02*X46977D01*
X125085Y140000D02*Y131697D01*
X129696Y144611D02*X125085Y140000D01*
X120000D01*
X88715Y140931D02*X87149D01*
X80442Y134224D01*
X34112Y137453D02*Y148594D01*
X37281Y151763D01*
X48798D01*
X37178Y148543D02*Y134748D01*
X29057Y149533D02*Y142449D01*
X21607Y135000D01*
X31972Y155520D02*X20000Y143547D01*
Y140000D01*
X21659Y125000D02*X34112Y137453D01*
X37178Y134748D02*X34951Y132522D01*
Y128372D01*
X35986Y153505D02*X32063Y149583D01*
Y142063D01*
X20000Y130000D01*
X21607Y135000D02*X15000D01*
X33979Y154456D02*X29057Y149533D01*
X50547Y133160D02*X40265D01*
X38258Y131152D01*
X46977Y131153D02*X45040Y129216D01*
X48798Y151763D02*X50809Y153774D01*
X45040Y127317D02*X30796Y113074D01*
X34951Y128372D02*X21579Y115000D01*
X124791Y124725D02*X125731Y123785D01*
X139020D01*
X141743Y121061D01*
X127723Y109045D02*X139638D01*
X141917Y111443D02*X139910Y113450D01*
X126550D01*
X141743Y121061D02*X152096D01*
X156739Y116418D01*
X176418D01*
X180000Y100000D02*X182701D01*
X176418Y116418D02*X180000Y120000D01*
X188961Y114597D02*X177435D01*
X174281Y111443D01*
X141917D01*
X169051Y124424D02*X151194D01*
X180000Y90000D02*X175200Y94800D01*
X177739Y95493D02*X180970D01*
X156252Y92793D02*X164046Y85000D01*
X180970Y95493D02*X186149Y90315D01*
X164046Y85000D02*X192993D01*
X190000Y78543D02*X185543D01*
X182443Y75443D01*
X156946D01*
X153930Y78459D01*
X190000Y71457D02*X181457D01*
X180000Y70000D01*
X175200Y94800D02*X140729D01*
X126987Y100497D02*X172735D01*
X177739Y95493D01*
X143323Y92793D02*X156252D01*
X140729Y94800D02*X130435Y84507D01*
X145850Y63902D02*X126098D01*
X131477Y74507D02*X146457Y89486D01*
X148452D01*
X130530Y80000D02*X143323Y92793D01*
X175339Y128252D02*X163816D01*
X175339D02*X178309Y125282D01*
X180000Y140000D02*X175339Y135339D01*
Y128252D01*
X191823Y144611D02*X129696D01*
X189489Y133344D02*X190367Y132466D01*
X163816Y128252D02*X162007Y126443D01*
X180000Y10000D02*X165000Y25000D01*
X184687Y35313D02*X180000Y40000D01*
X162007Y126443D02*X158527D01*
X146519Y64571D02*X145850Y63902D01*
X146175Y138796D02*X131263D01*
X152924Y149444D02*X126615D01*
X122664Y145493D01*
X118021D01*
X117869Y155493D02*X140102D01*
X158527Y126443D02*X146175Y138796D01*
X151194Y124424D02*X146684Y128934D01*
X138372D01*
X118021Y145493D02*X104507Y159007D01*
X104412Y168950D02*X117869Y155493D01*
X120000Y150000D02*X103487Y166513D01*
X104507Y159007D02*Y161867D01*
X103487Y166513D02*X97302D01*
X91385Y174549D02*Y169449D01*
X89378Y175380D02*Y170280D01*
X93392Y173718D02*Y168618D01*
X104507Y161867D02*X101867Y164507D01*
X147988Y175458D02*X111490D01*
X120000Y170000D02*X110137D01*
X120000Y160000D02*X131439Y171439D01*
X164854D01*
X101867Y164507D02*X98133D01*
X95493Y161867D01*
X81385Y153774D02*X95398Y167787D01*
X91385Y169449D02*X80313Y158377D01*
X89378Y170280D02*X79481Y160383D01*
X93392Y168618D02*X81139Y156366D01*
X95493Y161867D02*Y154704D01*
X97302Y166513D02*X80000Y149211D01*
X87372Y171111D02*X78650Y162390D01*
X75875Y164397D02*X84065Y172587D01*
X95493Y154704D02*X93487Y152698D01*
Y141026D01*
X89326Y136865D01*
X87920D01*
X83920Y132865D01*
X82920D01*
X82273Y132217D01*
X78435D01*
X77429Y131211D01*
X72592D01*
X70597Y129216D01*
X185998Y102545D02*X195057Y93487D01*
X201867Y123452D02*X197979D01*
X178309Y125282D02*X187817D01*
X198660Y114439D01*
X201867Y105425D02*X198133D01*
X188961Y114597D01*
X182701Y100000D02*X198228Y84473D01*
X201962D01*
X198133Y95493D02*X201867D01*
X201772Y156514D02*X198039D01*
X195398Y159154D01*
Y161092D01*
X195493Y171161D02*Y168168D01*
X198133Y165528D01*
X201867D01*
X194954Y141480D02*X191823Y144611D01*
X180000Y110000D02*X183627D01*
X198133Y95493D01*
X210619Y104246D02*X217179D01*
X195057Y93487D02*X202698D01*
X204705Y95493D01*
X216249Y110000D02*X213802Y107553D01*
X201962Y84473D02*X202786Y85297D01*
X201867Y95493D02*X210619Y104246D01*
X217179D02*X218251Y105318D01*
X228346Y18543D02*X232038Y22234D01*
Y24011D01*
X284711Y25000D02*X321462D01*
X321378Y45000D02*X318360D01*
X319843Y40000D02*X315155Y35313D01*
X321462Y25000D02*X324446Y27983D01*
Y41933D01*
X321378Y45000D01*
X318360D02*X302501Y60859D01*
Y73058D01*
X315155Y35313D02*X184687D01*
X228346Y11457D02*X271169D01*
X284711Y25000D01*
X300239Y75472D02*X218032D01*
X215809Y77695D01*
X254413Y64571D02*X146519D01*
X202786Y85297D02*X305139D01*
X259843Y70000D02*X254413Y64571D01*
X258659Y88816D02*X211312D01*
X258841Y81002D02*X207188D01*
X314767Y90000D02*X300239Y75472D01*
X259843Y60000D02*X255336Y55493D01*
X259843Y90000D02*X258659Y88816D01*
X259843Y80000D02*X258841Y81002D01*
X255336Y55493D02*X124507D01*
X218251Y105318D02*X308118D01*
X204705Y95493D02*X302950D01*
X312068Y104611D01*
X208688Y112246D02*X201867Y105425D01*
X259843Y110000D02*X216249D01*
X305139Y85297D02*X319843Y100000D01*
X308118Y105318D02*X312800Y110000D01*
X319843D01*
X312068Y104611D02*X320835D01*
X319843Y90000D02*X314767D01*
X320835Y104611D02*X324446Y108223D01*
Y115396D01*
X324461Y127969D02*Y135381D01*
X319843Y140000D01*
X314350Y154507D02*X319843Y160000D01*
X302756Y200000D02*X308445D01*
X315131Y195289D02*X319843Y200000D01*
X198660Y114439D02*X202393D01*
X215882Y127928D01*
X234974Y117703D02*X213781D01*
X215882Y127928D02*X246604D01*
X236220Y116457D02*X234974Y117703D01*
X236220Y123543D02*X220131D01*
X219743Y123931D01*
X324446Y115396D02*X319843Y120000D01*
X246604Y127928D02*X249206Y125326D01*
X321819D01*
X324461Y127969D01*
X259843Y120000D02*X252089Y112246D01*
X208688D01*
X197979Y123452D02*X191431Y130000D01*
X180000D01*
X190367Y132466D02*X203817D01*
X204352Y128198D02*Y125938D01*
X201867Y123452D01*
X211020Y130000D02*X208173Y127152D01*
X203817Y132466D02*X209523Y138172D01*
X319843Y130000D02*X315106Y134736D01*
X210891D01*
X204352Y128198D01*
X259843Y130000D02*X211020D01*
X180000Y150000D02*X190789D01*
X185487Y154507D02*X189120D01*
X195493D02*X202603D01*
X212718Y164622D02*X314465D01*
X315196Y175354D02*X223360D01*
X222944Y175770D01*
X228346Y170000D02*X219923D01*
X217522Y172400D01*
X259843Y170000D02*X249295D01*
X210880Y154507D02*X314350D01*
X314465Y164622D02*X319843Y170000D01*
Y180000D02*X315196Y175354D01*
X222944Y175770D02*X216087D01*
X216054Y179715D02*X221246D01*
X211662Y185289D02*X315131D01*
X319843Y190000D01*
X211662Y195289D02*X315131D01*
X230872Y200000D02*X271217D01*
X295670D01*
X216087Y175770D02*X204412Y164095D01*
X201867Y165528D02*X216054Y179715D01*
X204412Y164095D02*Y159154D01*
X201772Y156514D01*
X194507Y175493D02*X201867D01*
X191050Y185493D02*X201867D01*
X182144Y184511D02*X195493Y171161D01*
X228346Y200000D02*X185476D01*
X230872D02*X228346D01*
X190789Y150000D02*X197303Y143486D01*
X189120Y154507D02*X198133Y145493D01*
X180000Y170000D02*X195493Y154507D01*
X179985Y176506D02*X152924Y149444D01*
X195398Y161092D02*X179985Y176506D01*
X198133Y145493D02*X201867D01*
X210880Y154507D01*
X202603D02*X212718Y164622D01*
X209656Y145493D02*X208311Y146838D01*
X180000Y180000D02*Y176521D01*
Y196543D02*X162333Y178876D01*
X164854Y171439D02*X177926Y184511D01*
X180000Y176521D02*X179985Y176506D01*
X162333Y178876D02*X151406D01*
X147988Y175458D01*
X180000Y190000D02*X194507Y175493D01*
X180000Y196543D02*X191050Y185493D01*
X180000Y196543D02*Y200000D01*
X177926Y184511D02*X182144D01*
X185476Y200000D02*Y201138D01*
X178711Y207903D01*
X201867Y175493D02*X211662Y185289D01*
X201867Y185493D02*X211662Y195289D01*
X197303Y143486D02*X256167D01*
X258363Y141480D02*X194954D01*
X209523Y138172D02*X234854D01*
X255335Y145493D02*X209656D01*
X256167Y143486D02*X258173Y145493D01*
X315335D01*
X319843Y150000D01*
X259843Y140000D02*X258363Y141480D01*
X259843Y150000D02*X255335Y145493D01*
X20000Y190000D02*X21935Y191935D01*
X70536D01*
X68413Y188457D02*X32328D01*
X120000Y200000D02*X124533Y195467D01*
Y188092D01*
X121828Y185387D01*
X112041D01*
X100546Y196883D01*
X96127Y205896D02*X90013Y199783D01*
X62903Y207903D02*X55000Y200000D01*
X33957D02*Y199287D01*
X37702Y195541D01*
X50541D01*
X55000Y200000D01*
X100546Y196883D02*X96812D01*
X104104Y205896D02*X96127D01*
X178711Y207903D02*X62903D01*
X20000Y200000D02*X33957D01*
X20000D02*X10000D01*
X96812Y196883D02*X92020Y192091D01*
X90013Y199783D02*Y178853D01*
X120000Y190000D02*X104104Y205896D01*
X72286Y174989D02*X14989D01*
X10000Y170000D01*
X74194Y184536D02*X75710Y183019D01*
X70536Y191935D02*X76028Y186443D01*
X82404D01*
X75710Y183019D02*X86204D01*
X86594Y183409D01*
X31561Y171561D02*X77451D01*
X95398Y167787D02*Y172887D01*
X92020Y192091D02*Y178022D01*
X89378Y175380D01*
X90013Y178853D02*X87372Y176211D01*
Y171111D01*
X95398Y172887D02*X98039Y175527D01*
X94027Y177191D02*X91385Y174549D01*
X97207Y177534D02*X93392Y173718D01*
X98039Y175527D02*X101772D01*
X100400Y186548D02*X96667D01*
X94027Y183907D01*
Y177191D01*
X101772Y175527D02*X104412Y172887D01*
Y168950D01*
X111490Y175458D02*X100400Y186548D01*
X110137Y170000D02*X102603Y177534D01*
X120000Y180000D02*X126276Y186276D01*
X102603Y177534D02*X97207D01*
X10000Y160000D02*X5489Y164511D01*
X20000Y160000D02*X31561Y171561D01*
X5489Y164511D02*Y182088D01*
X7937Y184536D01*
X74194D01*
X126276Y186276D02*X153492D01*
G54D13*X45000Y200000D03*
G54D14*X77500D03*
G54D15*G36*
X43602Y202952D02*X38484D01*
Y197048D01*
X43602D01*
Y202952D01*
G37*
G54D16*X100000Y200000D03*
Y190000D03*
G54D14*X77500D03*
G54D17*X82404Y186443D03*
X68413Y188457D03*
X32328D03*
X86594Y183409D03*
G54D16*X100000Y170000D03*
Y160000D03*
Y180000D03*
G54D15*G36*
X51750Y203250D02*X58250D01*
Y196750D01*
X51750D01*
Y203250D01*
G37*
G54D18*X65000Y200000D03*
G54D17*X72286Y174989D03*
X77451Y171561D03*
X84065Y172587D03*
G54D15*G36*
X7000Y203000D02*X13000D01*
Y197000D01*
X7000D01*
Y203000D01*
G37*
G54D16*X20000Y200000D03*
G54D15*G36*
X36516Y202952D02*X31398D01*
Y197048D01*
X36516D01*
Y202952D01*
G37*
G54D16*X10000Y190000D03*
Y180000D03*
Y170000D03*
Y160000D03*
X20000D03*
Y170000D03*
Y180000D03*
Y190000D03*
G54D17*X39293Y155070D03*
G54D14*X170000Y195000D03*
X162500Y185000D03*
X147500Y180000D03*
Y190000D03*
G54D17*X153492Y186276D03*
G54D14*X155000Y175000D03*
Y160000D03*
G54D16*X180000D03*
Y170000D03*
Y180000D03*
Y190000D03*
Y200000D03*
G54D17*X185487Y154507D03*
X140102Y155493D03*
G54D16*X200000Y200000D03*
Y190000D03*
G54D15*G36*
X225346Y203000D02*X231346D01*
Y197000D01*
X225346D01*
Y203000D01*
G37*
G36*
X256843D02*X262843D01*
Y197000D01*
X256843D01*
Y203000D01*
G37*
G54D16*X238346Y200000D03*
X228346Y190000D03*
X238346D03*
X228346Y180000D03*
G54D17*X221246Y179715D03*
G54D16*X238346Y180000D03*
X228346Y170000D03*
Y160000D03*
G54D17*X217522Y172400D03*
G54D16*X238346Y170000D03*
Y160000D03*
G54D17*X249295Y170000D03*
G54D16*X259843Y190000D03*
Y180000D03*
Y170000D03*
Y160000D03*
G54D14*X132500Y195000D03*
G54D15*G36*
X117000Y203000D02*X123000D01*
Y197000D01*
X117000D01*
Y203000D01*
G37*
G54D16*X120000Y190000D03*
Y180000D03*
Y170000D03*
Y160000D03*
G54D14*X70000Y150000D03*
G54D16*X10000D03*
X20000D03*
X100000D03*
G54D14*X162500D03*
G54D16*X120000D03*
X180000D03*
G54D15*G36*
X77048Y151102D02*Y145984D01*
X82952D01*
Y151102D01*
X77048D01*
G37*
G54D16*X259843Y150000D03*
X228346D03*
X238346D03*
X200000Y180000D03*
Y170000D03*
Y160000D03*
Y150000D03*
G54D14*X60000Y140000D03*
X65000Y145000D03*
X62500Y135000D03*
G54D17*X63440Y123993D03*
X66859Y109997D03*
Y84402D03*
G54D16*X100000Y140000D03*
X120000D03*
Y130000D03*
G54D17*X92992Y84507D03*
X131263Y138796D03*
X138372Y128934D03*
X148452Y89486D03*
X139638Y109045D03*
X129691Y127091D03*
X92186Y99968D03*
X153930Y78459D03*
G54D14*X170000Y140000D03*
X165000Y135000D03*
G54D16*X180000Y140000D03*
G54D17*X169051Y124424D03*
G54D16*X200000Y140000D03*
X180000Y130000D03*
G54D17*X185998Y102545D03*
X189489Y133344D03*
X208173Y127152D03*
X208311Y146838D03*
X186149Y90315D03*
X192993Y85000D03*
X207188Y81002D03*
G54D16*X259843Y140000D03*
X319843Y150000D03*
Y160000D03*
Y140000D03*
Y170000D03*
Y180000D03*
Y190000D03*
Y200000D03*
G54D15*G36*
X305315Y202952D02*X300197D01*
Y197048D01*
X305315D01*
Y202952D01*
G37*
G36*
X298229D02*X293111D01*
Y197048D01*
X298229D01*
Y202952D01*
G37*
G54D17*X308445Y200000D03*
G54D16*X259843Y130000D03*
X319843D03*
G54D17*X234854Y138172D03*
G54D16*X259843Y120000D03*
X319843D03*
G54D15*G36*
X233268Y126102D02*Y120984D01*
X239172D01*
Y126102D01*
X233268D01*
G37*
G36*
Y119016D02*Y113898D01*
X239172D01*
Y119016D01*
X233268D01*
G37*
G54D17*X213781Y117703D03*
X219743Y123931D03*
G54D16*X259843Y110000D03*
Y100000D03*
Y90000D03*
Y80000D03*
G54D17*X215809Y77695D03*
X211312Y88816D03*
X213802Y107553D03*
G54D16*X259843Y70000D03*
Y60000D03*
Y50000D03*
Y40000D03*
X319843Y50000D03*
Y60000D03*
Y40000D03*
Y70000D03*
Y80000D03*
Y90000D03*
Y100000D03*
Y110000D03*
G54D17*X302501Y73058D03*
G54D16*X259843Y30000D03*
X319843D03*
X259843Y20000D03*
X319843D03*
G54D15*G36*
X225394Y21102D02*Y15984D01*
X231298D01*
Y21102D01*
X225394D01*
G37*
G54D17*X232038Y24011D03*
G54D16*X259843Y10000D03*
X319843D03*
G54D15*G36*
X225394Y14016D02*Y8898D01*
X231298D01*
Y14016D01*
X225394D01*
G37*
G54D14*X55000Y135000D03*
G54D17*X48346Y127846D03*
X38258Y131152D03*
G54D19*X75000Y138000D03*
G54D15*G36*
X77048Y144016D02*Y138898D01*
X82952D01*
Y144016D01*
X77048D01*
G37*
G54D17*X70984Y144084D03*
X88715Y140931D03*
G54D16*X10000Y140000D03*
X20000D03*
X10000Y130000D03*
X20000D03*
G54D17*X35872Y110990D03*
X30796Y113074D03*
X23680Y64594D03*
G54D14*X57500Y125000D03*
X50000Y120000D03*
X57500Y110000D03*
G54D16*X100000Y130000D03*
G54D14*X85000Y107500D03*
X132500Y120000D03*
G54D16*X120000D03*
Y110000D03*
G54D15*G36*
X107048Y111102D02*Y105984D01*
X112952D01*
Y111102D01*
X107048D01*
G37*
G54D16*X200000Y130000D03*
G54D14*X145000Y115000D03*
Y125000D03*
X160000Y130000D03*
Y120000D03*
G54D16*X180000D03*
Y110000D03*
G54D15*G36*
X107048Y104016D02*Y98898D01*
X112952D01*
Y104016D01*
X107048D01*
G37*
G54D14*X135000Y132500D03*
G54D16*X120000Y100000D03*
Y90000D03*
Y80000D03*
Y70000D03*
Y60000D03*
Y50000D03*
Y40000D03*
Y30000D03*
X180000D03*
Y70000D03*
Y80000D03*
Y90000D03*
Y100000D03*
Y40000D03*
Y50000D03*
Y60000D03*
G54D15*G36*
X187048Y74016D02*Y68898D01*
X192952D01*
Y74016D01*
X187048D01*
G37*
G36*
Y81102D02*Y75984D01*
X192952D01*
Y81102D01*
X187048D01*
G37*
G54D16*X10000Y120000D03*
X20000D03*
X10000Y110000D03*
X20000D03*
X10000Y100000D03*
Y90000D03*
Y80000D03*
Y70000D03*
Y60000D03*
Y50000D03*
Y40000D03*
Y30000D03*
X20000D03*
G54D15*G36*
X27048Y14016D02*Y8898D01*
X32952D01*
Y14016D01*
X27048D01*
G37*
G36*
Y21102D02*Y15984D01*
X32952D01*
Y21102D01*
X27048D01*
G37*
G54D16*X20000Y40000D03*
Y50000D03*
Y60000D03*
Y70000D03*
Y80000D03*
Y90000D03*
Y100000D03*
X100000Y120000D03*
Y110000D03*
Y100000D03*
G54D19*X110000Y112500D03*
G54D16*X100000Y90000D03*
Y80000D03*
Y70000D03*
X200000Y120000D03*
G54D14*X82500Y90000D03*
Y80000D03*
Y70000D03*
G54D16*X100000Y60000D03*
G54D14*X82500D03*
X127500Y90000D03*
X137500Y75000D03*
X130000Y95000D03*
X140000Y67500D03*
G54D16*X100000Y50000D03*
Y40000D03*
G54D14*X140000D03*
X165000D03*
G54D16*X100000Y30000D03*
Y20000D03*
Y10000D03*
G54D14*X135000Y15000D03*
X160000D03*
G54D16*X120000Y20000D03*
Y10000D03*
X180000D03*
Y20000D03*
X200000Y110000D03*
Y100000D03*
Y90000D03*
Y80000D03*
Y70000D03*
Y60000D03*
Y50000D03*
Y40000D03*
Y30000D03*
Y20000D03*
Y10000D03*
G54D20*G54D21*G54D20*G54D21*G54D22*G54D20*G54D21*G54D20*G54D23*G54D20*G54D21*G54D23*G54D21*G54D20*G54D21*G54D20*G54D21*G54D20*G54D23*G54D20*G54D23*G54D20*G54D21*G54D20*G54D23*G54D21*G54D20*G54D21*G54D23*G54D20*G54D23*G54D20*G54D21*G54D23*G54D20*G54D23*G54D20*G54D23*G54D20*G54D23*G54D20*G54D23*G54D20*G54D23*G54D20*G54D23*G54D20*G54D23*G54D20*G54D21*G54D20*G54D21*G54D20*G54D23*G54D21*G54D20*G54D23*G54D20*G54D23*G54D21*G54D20*G54D21*G54D20*G54D21*G54D20*G54D21*G54D20*G54D21*G54D20*G54D23*G54D21*M02*
