G04 start of page 11 for group -1 layer_idx 268435461 *
G04 Title: (unknown), <virtual group> *
G04 Creator: pcb-rnd 3.1.4 *
G04 CreationDate: 2026-04-06 20:17:58 UTC *
G04 For: Alex Jokela *
G04 Format: Gerber/RS-274X *
G04 PCB-Dimensions: 340000 210000 *
G04 PCB-Coordinate-Origin: lower left *
%MOIN*%
%FSLAX25Y25*%
%LNLOGICAL_VIRTUAL_FAB_NONE*%
%ADD56C,0.0100*%
%ADD55C,0.0075*%
%ADD54C,0.0060*%
%ADD53C,0.0080*%
G54D53*X54200Y200000D02*G75*G03X55800Y200000I800J0D01*G01*
G75*G03X54200Y200000I-800J0D01*G01*
X64200D02*G75*G03X65800Y200000I800J0D01*G01*
G75*G03X64200Y200000I-800J0D01*G01*
X14200Y221250D02*G75*G03X15800Y221250I800J0D01*G01*
G75*G03X14200Y221250I-800J0D01*G01*
G54D54*X135000Y223500D02*X136500Y220500D01*
X138000Y223500D01*
X136500Y220500D02*Y217500D01*
X139800Y220800D02*X142050D01*
X139800Y217500D02*X142800D01*
X139800Y223500D02*Y217500D01*
Y223500D02*X142800D01*
X147600D02*X148350Y222750D01*
X145350Y223500D02*X147600D01*
X144600Y222750D02*X145350Y223500D01*
X144600Y222750D02*Y221250D01*
X145350Y220500D01*
X147600D01*
X148350Y219750D01*
Y218250D01*
X147600Y217500D02*X148350Y218250D01*
X145350Y217500D02*X147600D01*
X144600Y218250D02*X145350Y217500D01*
X98000Y222750D02*X98750Y223500D01*
X101000D01*
X101750Y222750D01*
Y221250D01*
X98000Y217500D02*X101750Y221250D01*
X98000Y217500D02*X101750D01*
X45000Y218250D02*X45750Y217500D01*
X45000Y222750D02*Y218250D01*
Y222750D02*X45750Y223500D01*
X47250D01*
X48000Y222750D01*
Y218250D01*
X47250Y217500D02*X48000Y218250D01*
X45750Y217500D02*X47250D01*
X45000Y219000D02*X48000Y222000D01*
X49800Y217500D02*X50550D01*
X52350Y218250D02*X53100Y217500D01*
X52350Y222750D02*Y218250D01*
Y222750D02*X53100Y223500D01*
X54600D01*
X55350Y222750D01*
Y218250D01*
X54600Y217500D02*X55350Y218250D01*
X53100Y217500D02*X54600D01*
X52350Y219000D02*X55350Y222000D01*
X57150Y219750D02*X60150Y223500D01*
X57150Y219750D02*X60900D01*
X60150Y223500D02*Y217500D01*
X62700Y222750D02*X63450Y223500D01*
X64950D01*
X65700Y222750D01*
X64950Y217500D02*X65700Y218250D01*
X63450Y217500D02*X64950D01*
X62700Y218250D02*X63450Y217500D01*
Y220800D02*X64950D01*
X65700Y222750D02*Y221550D01*
Y220050D02*Y218250D01*
Y220050D02*X64950Y220800D01*
X65700Y221550D02*X64950Y220800D01*
X98800Y201200D02*X101200Y198800D01*
X98800D02*X101200Y201200D01*
X98800Y191200D02*X101200Y188800D01*
X98800D02*X101200Y191200D01*
X98800Y181200D02*X101200Y178800D01*
X98800D02*X101200Y181200D01*
X98800Y171200D02*X101200Y168800D01*
X98800D02*X101200Y171200D01*
X98800Y161200D02*X101200Y158800D01*
X98800D02*X101200Y161200D01*
X8800Y201200D02*X11200Y198800D01*
X8800D02*X11200Y201200D01*
X18800D02*X21200Y198800D01*
X18800D02*X21200Y201200D01*
X8800Y191200D02*X11200Y188800D01*
X8800D02*X11200Y191200D01*
X8800Y181200D02*X11200Y178800D01*
X8800D02*X11200Y181200D01*
X8800Y171200D02*X11200Y168800D01*
X8800D02*X11200Y171200D01*
X8800Y161200D02*X11200Y158800D01*
X8800D02*X11200Y161200D01*
X18800D02*X21200Y158800D01*
X18800D02*X21200Y161200D01*
X18800Y171200D02*X21200Y168800D01*
X18800D02*X21200Y171200D01*
X18800Y181200D02*X21200Y178800D01*
X18800D02*X21200Y181200D01*
X18800Y191200D02*X21200Y188800D01*
X18800D02*X21200Y191200D01*
X198800Y201200D02*X201200Y198800D01*
X198800D02*X201200Y201200D01*
X198800Y191200D02*X201200Y188800D01*
X198800D02*X201200Y191200D01*
X227146Y201200D02*X229546Y198800D01*
X227146D02*X229546Y201200D01*
X237146D02*X239546Y198800D01*
X237146D02*X239546Y201200D01*
X227146Y191200D02*X229546Y188800D01*
X227146D02*X229546Y191200D01*
X237146D02*X239546Y188800D01*
X237146D02*X239546Y191200D01*
X227146Y181200D02*X229546Y178800D01*
X227146D02*X229546Y181200D01*
X237146D02*X239546Y178800D01*
X237146D02*X239546Y181200D01*
X227146Y171200D02*X229546Y168800D01*
X227146D02*X229546Y171200D01*
X227146Y161200D02*X229546Y158800D01*
X227146D02*X229546Y161200D01*
X237146Y171200D02*X239546Y168800D01*
X237146D02*X239546Y171200D01*
X237146Y161200D02*X239546Y158800D01*
X237146D02*X239546Y161200D01*
X8800Y151200D02*X11200Y148800D01*
X8800D02*X11200Y151200D01*
X18800D02*X21200Y148800D01*
X18800D02*X21200Y151200D01*
X98800D02*X101200Y148800D01*
X98800D02*X101200Y151200D01*
X227146D02*X229546Y148800D01*
X227146D02*X229546Y151200D01*
X237146D02*X239546Y148800D01*
X237146D02*X239546Y151200D01*
X198800Y181200D02*X201200Y178800D01*
X198800D02*X201200Y181200D01*
X198800Y171200D02*X201200Y168800D01*
X198800D02*X201200Y171200D01*
X198800Y161200D02*X201200Y158800D01*
X198800D02*X201200Y161200D01*
X198800Y151200D02*X201200Y148800D01*
X198800D02*X201200Y151200D01*
X98800Y141200D02*X101200Y138800D01*
X98800D02*X101200Y141200D01*
X198800D02*X201200Y138800D01*
X198800D02*X201200Y141200D01*
X8800D02*X11200Y138800D01*
X8800D02*X11200Y141200D01*
X18800D02*X21200Y138800D01*
X18800D02*X21200Y141200D01*
X8800Y131200D02*X11200Y128800D01*
X8800D02*X11200Y131200D01*
X18800D02*X21200Y128800D01*
X18800D02*X21200Y131200D01*
X98800D02*X101200Y128800D01*
X98800D02*X101200Y131200D01*
X198800D02*X201200Y128800D01*
X198800D02*X201200Y131200D01*
X8800Y121200D02*X11200Y118800D01*
X8800D02*X11200Y121200D01*
X18800D02*X21200Y118800D01*
X18800D02*X21200Y121200D01*
X8800Y111200D02*X11200Y108800D01*
X8800D02*X11200Y111200D01*
X18800D02*X21200Y108800D01*
X18800D02*X21200Y111200D01*
X8800Y101200D02*X11200Y98800D01*
X8800D02*X11200Y101200D01*
X8800Y91200D02*X11200Y88800D01*
X8800D02*X11200Y91200D01*
X8800Y81200D02*X11200Y78800D01*
X8800D02*X11200Y81200D01*
X8800Y71200D02*X11200Y68800D01*
X8800D02*X11200Y71200D01*
X8800Y61200D02*X11200Y58800D01*
X8800D02*X11200Y61200D01*
X8800Y51200D02*X11200Y48800D01*
X8800D02*X11200Y51200D01*
X8800Y41200D02*X11200Y38800D01*
X8800D02*X11200Y41200D01*
X8800Y31200D02*X11200Y28800D01*
X8800D02*X11200Y31200D01*
X18800D02*X21200Y28800D01*
X18800D02*X21200Y31200D01*
X18800Y41200D02*X21200Y38800D01*
X18800D02*X21200Y41200D01*
X18800Y51200D02*X21200Y48800D01*
X18800D02*X21200Y51200D01*
X18800Y61200D02*X21200Y58800D01*
X18800D02*X21200Y61200D01*
X18800Y71200D02*X21200Y68800D01*
X18800D02*X21200Y71200D01*
X18800Y81200D02*X21200Y78800D01*
X18800D02*X21200Y81200D01*
X18800Y91200D02*X21200Y88800D01*
X18800D02*X21200Y91200D01*
X18800Y101200D02*X21200Y98800D01*
X18800D02*X21200Y101200D01*
X98800Y121200D02*X101200Y118800D01*
X98800D02*X101200Y121200D01*
X98800Y111200D02*X101200Y108800D01*
X98800D02*X101200Y111200D01*
X98800Y101200D02*X101200Y98800D01*
X98800D02*X101200Y101200D01*
X98800Y91200D02*X101200Y88800D01*
X98800D02*X101200Y91200D01*
X98800Y81200D02*X101200Y78800D01*
X98800D02*X101200Y81200D01*
X98800Y71200D02*X101200Y68800D01*
X98800D02*X101200Y71200D01*
X198800Y121200D02*X201200Y118800D01*
X198800D02*X201200Y121200D01*
X98800Y61200D02*X101200Y58800D01*
X98800D02*X101200Y61200D01*
X98800Y51200D02*X101200Y48800D01*
X98800D02*X101200Y51200D01*
X98800Y41200D02*X101200Y38800D01*
X98800D02*X101200Y41200D01*
X98800Y31200D02*X101200Y28800D01*
X98800D02*X101200Y31200D01*
X98800Y21200D02*X101200Y18800D01*
X98800D02*X101200Y21200D01*
X98800Y11200D02*X101200Y8800D01*
X98800D02*X101200Y11200D01*
X198800Y111200D02*X201200Y108800D01*
X198800D02*X201200Y111200D01*
X198800Y101200D02*X201200Y98800D01*
X198800D02*X201200Y101200D01*
X198800Y91200D02*X201200Y88800D01*
X198800D02*X201200Y91200D01*
X198800Y81200D02*X201200Y78800D01*
X198800D02*X201200Y81200D01*
X198800Y71200D02*X201200Y68800D01*
X198800D02*X201200Y71200D01*
X198800Y61200D02*X201200Y58800D01*
X198800D02*X201200Y61200D01*
X198800Y51200D02*X201200Y48800D01*
X198800D02*X201200Y51200D01*
X198800Y41200D02*X201200Y38800D01*
X198800D02*X201200Y41200D01*
X198800Y31200D02*X201200Y28800D01*
X198800D02*X201200Y31200D01*
X198800Y21200D02*X201200Y18800D01*
X198800D02*X201200Y21200D01*
X198800Y11200D02*X201200Y8800D01*
X198800D02*X201200Y11200D01*
X13800Y237450D02*X16200Y235050D01*
X13800D02*X16200Y237450D01*
X135000Y238500D02*X136500Y235500D01*
X138000Y238500D01*
X136500Y235500D02*Y232500D01*
X139800Y235800D02*X142050D01*
X139800Y232500D02*X142800D01*
X139800Y238500D02*Y232500D01*
Y238500D02*X142800D01*
X147600D02*X148350Y237750D01*
X145350Y238500D02*X147600D01*
X144600Y237750D02*X145350Y238500D01*
X144600Y237750D02*Y236250D01*
X145350Y235500D01*
X147600D01*
X148350Y234750D01*
Y233250D01*
X147600Y232500D02*X148350Y233250D01*
X145350Y232500D02*X147600D01*
X144600Y233250D02*X145350Y232500D01*
X98000Y233250D02*X98750Y232500D01*
X98000Y234450D02*Y233250D01*
Y234450D02*X99050Y235500D01*
X99950D01*
X101000Y234450D01*
Y233250D01*
X100250Y232500D02*X101000Y233250D01*
X98750Y232500D02*X100250D01*
X98000Y236550D02*X99050Y235500D01*
X98000Y237750D02*Y236550D01*
Y237750D02*X98750Y238500D01*
X100250D01*
X101000Y237750D01*
Y236550D01*
X99950Y235500D02*X101000Y236550D01*
X102800Y233250D02*X103550Y232500D01*
X102800Y234450D02*Y233250D01*
Y234450D02*X103850Y235500D01*
X104750D01*
X105800Y234450D01*
Y233250D01*
X105050Y232500D02*X105800Y233250D01*
X103550Y232500D02*X105050D01*
X102800Y236550D02*X103850Y235500D01*
X102800Y237750D02*Y236550D01*
Y237750D02*X103550Y238500D01*
X105050D01*
X105800Y237750D01*
Y236550D01*
X104750Y235500D02*X105800Y236550D01*
X45000Y233250D02*X45750Y232500D01*
X45000Y237750D02*Y233250D01*
Y237750D02*X45750Y238500D01*
X47250D01*
X48000Y237750D01*
Y233250D01*
X47250Y232500D02*X48000Y233250D01*
X45750Y232500D02*X47250D01*
X45000Y234000D02*X48000Y237000D01*
X49800Y232500D02*X50550D01*
X52350Y233250D02*X53100Y232500D01*
X52350Y237750D02*Y233250D01*
Y237750D02*X53100Y238500D01*
X54600D01*
X55350Y237750D01*
Y233250D01*
X54600Y232500D02*X55350Y233250D01*
X53100Y232500D02*X54600D01*
X52350Y234000D02*X55350Y237000D01*
X57150Y237750D02*X57900Y238500D01*
X59400D01*
X60150Y237750D01*
X59400Y232500D02*X60150Y233250D01*
X57900Y232500D02*X59400D01*
X57150Y233250D02*X57900Y232500D01*
Y235800D02*X59400D01*
X60150Y237750D02*Y236550D01*
Y235050D02*Y233250D01*
Y235050D02*X59400Y235800D01*
X60150Y236550D02*X59400Y235800D01*
X61950Y233250D02*X62700Y232500D01*
X61950Y234450D02*Y233250D01*
Y234450D02*X63000Y235500D01*
X63900D01*
X64950Y234450D01*
Y233250D01*
X64200Y232500D02*X64950Y233250D01*
X62700Y232500D02*X64200D01*
X61950Y236550D02*X63000Y235500D01*
X61950Y237750D02*Y236550D01*
Y237750D02*X62700Y238500D01*
X64200D01*
X64950Y237750D01*
Y236550D01*
X63900Y235500D02*X64950Y236550D01*
X180000Y161600D02*Y158400D01*
X178400Y160000D02*X181600D01*
X180000Y171600D02*Y168400D01*
X178400Y170000D02*X181600D01*
X180000Y181600D02*Y178400D01*
X178400Y180000D02*X181600D01*
X180000Y191600D02*Y188400D01*
X178400Y190000D02*X181600D01*
X180000Y201600D02*Y198400D01*
X178400Y200000D02*X181600D01*
X259843Y201600D02*Y198400D01*
X258243Y200000D02*X261443D01*
X259843Y191600D02*Y188400D01*
X258243Y190000D02*X261443D01*
X259843Y181600D02*Y178400D01*
X258243Y180000D02*X261443D01*
X259843Y171600D02*Y168400D01*
X258243Y170000D02*X261443D01*
X259843Y161600D02*Y158400D01*
X258243Y160000D02*X261443D01*
X120000Y201600D02*Y198400D01*
X118400Y200000D02*X121600D01*
X120000Y191600D02*Y188400D01*
X118400Y190000D02*X121600D01*
X120000Y181600D02*Y178400D01*
X118400Y180000D02*X121600D01*
X120000Y171600D02*Y168400D01*
X118400Y170000D02*X121600D01*
X120000Y161600D02*Y158400D01*
X118400Y160000D02*X121600D01*
X120000Y151600D02*Y148400D01*
X118400Y150000D02*X121600D01*
X180000Y151600D02*Y148400D01*
X178400Y150000D02*X181600D01*
X259843Y151600D02*Y148400D01*
X258243Y150000D02*X261443D01*
X120000Y141600D02*Y138400D01*
X118400Y140000D02*X121600D01*
X120000Y131600D02*Y128400D01*
X118400Y130000D02*X121600D01*
X180000Y141600D02*Y138400D01*
X178400Y140000D02*X181600D01*
X180000Y131600D02*Y128400D01*
X178400Y130000D02*X181600D01*
X259843Y141600D02*Y138400D01*
X258243Y140000D02*X261443D01*
X319843Y151600D02*Y148400D01*
X318243Y150000D02*X321443D01*
X319843Y161600D02*Y158400D01*
X318243Y160000D02*X321443D01*
X319843Y141600D02*Y138400D01*
X318243Y140000D02*X321443D01*
X319843Y171600D02*Y168400D01*
X318243Y170000D02*X321443D01*
X319843Y181600D02*Y178400D01*
X318243Y180000D02*X321443D01*
X319843Y191600D02*Y188400D01*
X318243Y190000D02*X321443D01*
X319843Y201600D02*Y198400D01*
X318243Y200000D02*X321443D01*
X259843Y131600D02*Y128400D01*
X258243Y130000D02*X261443D01*
X319843Y131600D02*Y128400D01*
X318243Y130000D02*X321443D01*
X259843Y121600D02*Y118400D01*
X258243Y120000D02*X261443D01*
X319843Y121600D02*Y118400D01*
X318243Y120000D02*X321443D01*
X259843Y111600D02*Y108400D01*
X258243Y110000D02*X261443D01*
X259843Y101600D02*Y98400D01*
X258243Y100000D02*X261443D01*
X259843Y91600D02*Y88400D01*
X258243Y90000D02*X261443D01*
X259843Y81600D02*Y78400D01*
X258243Y80000D02*X261443D01*
X259843Y71600D02*Y68400D01*
X258243Y70000D02*X261443D01*
X259843Y61600D02*Y58400D01*
X258243Y60000D02*X261443D01*
X259843Y51600D02*Y48400D01*
X258243Y50000D02*X261443D01*
X259843Y41600D02*Y38400D01*
X258243Y40000D02*X261443D01*
X319843Y51600D02*Y48400D01*
X318243Y50000D02*X321443D01*
X319843Y61600D02*Y58400D01*
X318243Y60000D02*X321443D01*
X319843Y41600D02*Y38400D01*
X318243Y40000D02*X321443D01*
X319843Y71600D02*Y68400D01*
X318243Y70000D02*X321443D01*
X319843Y81600D02*Y78400D01*
X318243Y80000D02*X321443D01*
X319843Y91600D02*Y88400D01*
X318243Y90000D02*X321443D01*
X319843Y101600D02*Y98400D01*
X318243Y100000D02*X321443D01*
X319843Y111600D02*Y108400D01*
X318243Y110000D02*X321443D01*
X259843Y31600D02*Y28400D01*
X258243Y30000D02*X261443D01*
X319843Y31600D02*Y28400D01*
X318243Y30000D02*X321443D01*
X259843Y21600D02*Y18400D01*
X258243Y20000D02*X261443D01*
X319843Y21600D02*Y18400D01*
X318243Y20000D02*X321443D01*
X259843Y11600D02*Y8400D01*
X258243Y10000D02*X261443D01*
X319843Y11600D02*Y8400D01*
X318243Y10000D02*X321443D01*
X120000Y121600D02*Y118400D01*
X118400Y120000D02*X121600D01*
X120000Y111600D02*Y108400D01*
X118400Y110000D02*X121600D01*
X180000Y121600D02*Y118400D01*
X178400Y120000D02*X181600D01*
X180000Y111600D02*Y108400D01*
X178400Y110000D02*X181600D01*
X120000Y101600D02*Y98400D01*
X118400Y100000D02*X121600D01*
X120000Y91600D02*Y88400D01*
X118400Y90000D02*X121600D01*
X120000Y81600D02*Y78400D01*
X118400Y80000D02*X121600D01*
X120000Y71600D02*Y68400D01*
X118400Y70000D02*X121600D01*
X120000Y61600D02*Y58400D01*
X118400Y60000D02*X121600D01*
X120000Y51600D02*Y48400D01*
X118400Y50000D02*X121600D01*
X120000Y41600D02*Y38400D01*
X118400Y40000D02*X121600D01*
X120000Y31600D02*Y28400D01*
X118400Y30000D02*X121600D01*
X180000Y31600D02*Y28400D01*
X178400Y30000D02*X181600D01*
X180000Y71600D02*Y68400D01*
X178400Y70000D02*X181600D01*
X180000Y81600D02*Y78400D01*
X178400Y80000D02*X181600D01*
X180000Y91600D02*Y88400D01*
X178400Y90000D02*X181600D01*
X180000Y101600D02*Y98400D01*
X178400Y100000D02*X181600D01*
X180000Y41600D02*Y38400D01*
X178400Y40000D02*X181600D01*
X180000Y51600D02*Y48400D01*
X178400Y50000D02*X181600D01*
X180000Y61600D02*Y58400D01*
X178400Y60000D02*X181600D01*
X120000Y21600D02*Y18400D01*
X118400Y20000D02*X121600D01*
X120000Y11600D02*Y8400D01*
X118400Y10000D02*X121600D01*
X180000Y11600D02*Y8400D01*
X178400Y10000D02*X181600D01*
X180000Y21600D02*Y18400D01*
X178400Y20000D02*X181600D01*
X15000Y252850D02*Y249650D01*
X13400Y251250D02*X16600D01*
X135000Y253500D02*X136500Y250500D01*
X138000Y253500D01*
X136500Y250500D02*Y247500D01*
X139800Y250800D02*X142050D01*
X139800Y247500D02*X142800D01*
X139800Y253500D02*Y247500D01*
Y253500D02*X142800D01*
X147600D02*X148350Y252750D01*
X145350Y253500D02*X147600D01*
X144600Y252750D02*X145350Y253500D01*
X144600Y252750D02*Y251250D01*
X145350Y250500D01*
X147600D01*
X148350Y249750D01*
Y248250D01*
X147600Y247500D02*X148350Y248250D01*
X145350Y247500D02*X147600D01*
X144600Y248250D02*X145350Y247500D01*
X98000Y248250D02*X98750Y247500D01*
X98000Y249450D02*Y248250D01*
Y249450D02*X99050Y250500D01*
X99950D01*
X101000Y249450D01*
Y248250D01*
X100250Y247500D02*X101000Y248250D01*
X98750Y247500D02*X100250D01*
X98000Y251550D02*X99050Y250500D01*
X98000Y252750D02*Y251550D01*
Y252750D02*X98750Y253500D01*
X100250D01*
X101000Y252750D01*
Y251550D01*
X99950Y250500D02*X101000Y251550D01*
X102800Y248250D02*X103550Y247500D01*
X102800Y252750D02*Y248250D01*
Y252750D02*X103550Y253500D01*
X105050D01*
X105800Y252750D01*
Y248250D01*
X105050Y247500D02*X105800Y248250D01*
X103550Y247500D02*X105050D01*
X102800Y249000D02*X105800Y252000D01*
X45000Y248250D02*X45750Y247500D01*
X45000Y252750D02*Y248250D01*
Y252750D02*X45750Y253500D01*
X47250D01*
X48000Y252750D01*
Y248250D01*
X47250Y247500D02*X48000Y248250D01*
X45750Y247500D02*X47250D01*
X45000Y249000D02*X48000Y252000D01*
X49800Y247500D02*X50550D01*
X52350Y248250D02*X53100Y247500D01*
X52350Y252750D02*Y248250D01*
Y252750D02*X53100Y253500D01*
X54600D01*
X55350Y252750D01*
Y248250D01*
X54600Y247500D02*X55350Y248250D01*
X53100Y247500D02*X54600D01*
X52350Y249000D02*X55350Y252000D01*
X57150Y252750D02*X57900Y253500D01*
X60150D01*
X60900Y252750D01*
Y251250D01*
X57150Y247500D02*X60900Y251250D01*
X57150Y247500D02*X60900D01*
X62700Y248250D02*X63450Y247500D01*
X62700Y249450D02*Y248250D01*
Y249450D02*X63750Y250500D01*
X64650D01*
X65700Y249450D01*
Y248250D01*
X64950Y247500D02*X65700Y248250D01*
X63450Y247500D02*X64950D01*
X62700Y251550D02*X63750Y250500D01*
X62700Y252750D02*Y251550D01*
Y252750D02*X63450Y253500D01*
X64950D01*
X65700Y252750D01*
Y251550D01*
X64650Y250500D02*X65700Y251550D01*
X45000Y200000D02*Y198400D01*
Y200000D02*X46387Y200800D01*
X45000Y200000D02*X43613Y200800D01*
X77500Y190000D02*Y188400D01*
Y190000D02*X78887Y190800D01*
X77500Y190000D02*X76113Y190800D01*
X77500Y200000D02*Y198400D01*
Y200000D02*X78887Y200800D01*
X77500Y200000D02*X76113Y200800D01*
X109305Y175493D02*Y173893D01*
Y175493D02*X110691Y176293D01*
X109305Y175493D02*X107918Y176293D01*
X80959Y177702D02*Y176102D01*
Y177702D02*X82346Y178502D01*
X80959Y177702D02*X79572Y178502D01*
X75365Y180902D02*Y179302D01*
Y180902D02*X76752Y181702D01*
X75365Y180902D02*X73979Y181702D01*
X111649Y187335D02*Y185735D01*
Y187335D02*X113036Y188135D01*
X111649Y187335D02*X110263Y188135D01*
X44447Y179931D02*Y178331D01*
Y179931D02*X45834Y180731D01*
X44447Y179931D02*X43060Y180731D01*
X29361Y178766D02*Y177166D01*
Y178766D02*X30748Y179566D01*
X29361Y178766D02*X27974Y179566D01*
X26408Y193509D02*Y191909D01*
Y193509D02*X27795Y194309D01*
X26408Y193509D02*X25021Y194309D01*
X170000Y195000D02*Y193400D01*
Y195000D02*X171387Y195800D01*
X170000Y195000D02*X168613Y195800D01*
X162500Y185000D02*Y183400D01*
Y185000D02*X163887Y185800D01*
X162500Y185000D02*X161113Y185800D01*
X147500Y180000D02*Y178400D01*
Y180000D02*X148887Y180800D01*
X147500Y180000D02*X146113Y180800D01*
X147500Y190000D02*Y188400D01*
Y190000D02*X148887Y190800D01*
X147500Y190000D02*X146113Y190800D01*
X165535Y191139D02*Y189539D01*
Y191139D02*X166922Y191939D01*
X165535Y191139D02*X164148Y191939D01*
X155000Y175000D02*Y173400D01*
Y175000D02*X156387Y175800D01*
X155000Y175000D02*X153613Y175800D01*
X155000Y160000D02*Y158400D01*
Y160000D02*X156387Y160800D01*
X155000Y160000D02*X153613Y160800D01*
X163493Y165072D02*Y163472D01*
Y165072D02*X164880Y165872D01*
X163493Y165072D02*X162106Y165872D01*
X159036Y169051D02*Y167451D01*
Y169051D02*X160423Y169851D01*
X159036Y169051D02*X157650Y169851D01*
X170356Y173237D02*Y171637D01*
Y173237D02*X171742Y174037D01*
X170356Y173237D02*X168969Y174037D01*
X147618Y161047D02*Y159447D01*
Y161047D02*X149004Y161847D01*
X147618Y161047D02*X146231Y161847D01*
X221492Y198809D02*Y197209D01*
Y198809D02*X222878Y199609D01*
X221492Y198809D02*X220105Y199609D01*
X191839Y158709D02*Y157109D01*
Y158709D02*X193225Y159509D01*
X191839Y158709D02*X190452Y159509D01*
X132500Y195000D02*Y193400D01*
Y195000D02*X133887Y195800D01*
X132500Y195000D02*X131113Y195800D01*
X127756Y189589D02*Y187989D01*
Y189589D02*X129143Y190389D01*
X127756Y189589D02*X126369Y190389D01*
X70000Y150000D02*Y148400D01*
Y150000D02*X71387Y150800D01*
X70000Y150000D02*X68613Y150800D01*
X162500Y150000D02*Y148400D01*
Y150000D02*X163887Y150800D01*
X162500Y150000D02*X161113Y150800D01*
X218163Y150596D02*Y148996D01*
Y150596D02*X219550Y151396D01*
X218163Y150596D02*X216776Y151396D01*
X60000Y140000D02*Y138400D01*
Y140000D02*X61387Y140800D01*
X60000Y140000D02*X58613Y140800D01*
X65000Y145000D02*Y143400D01*
Y145000D02*X66387Y145800D01*
X65000Y145000D02*X63613Y145800D01*
X62500Y135000D02*Y133400D01*
Y135000D02*X63887Y135800D01*
X62500Y135000D02*X61113Y135800D01*
X64579Y126190D02*Y124590D01*
Y126190D02*X65965Y126990D01*
X64579Y126190D02*X63192Y126990D01*
X47114Y145808D02*Y144208D01*
Y145808D02*X48501Y146608D01*
X47114Y145808D02*X45728Y146608D01*
X126844Y147326D02*Y145726D01*
Y147326D02*X128231Y148126D01*
X126844Y147326D02*X125457Y148126D01*
X129428Y52539D02*Y50939D01*
Y52539D02*X130815Y53339D01*
X129428Y52539D02*X128042Y53339D01*
X152064Y20836D02*Y19236D01*
Y20836D02*X153451Y21636D01*
X152064Y20836D02*X150678Y21636D01*
X123409Y65185D02*Y63585D01*
Y65185D02*X124796Y65985D01*
X123409Y65185D02*X122022Y65985D01*
X172025Y38710D02*Y37110D01*
Y38710D02*X173412Y39510D01*
X172025Y38710D02*X170639Y39510D01*
X170000Y140000D02*Y138400D01*
Y140000D02*X171387Y140800D01*
X170000Y140000D02*X168613Y140800D01*
X165000Y135000D02*Y133400D01*
Y135000D02*X166387Y135800D01*
X165000Y135000D02*X163613Y135800D01*
X159519Y137550D02*Y135950D01*
Y137550D02*X160906Y138350D01*
X159519Y137550D02*X158132Y138350D01*
X173293Y102505D02*Y100905D01*
Y102505D02*X174679Y103305D01*
X173293Y102505D02*X171906Y103305D01*
X299213Y174531D02*Y172931D01*
Y174531D02*X300599Y175331D01*
X299213Y174531D02*X297826Y175331D01*
X225720Y125454D02*Y123854D01*
Y125454D02*X227107Y126254D01*
X225720Y125454D02*X224333Y126254D01*
X230372Y119190D02*Y117590D01*
Y119190D02*X231759Y119990D01*
X230372Y119190D02*X228986Y119990D01*
X265141Y124507D02*Y122907D01*
Y124507D02*X266528Y125307D01*
X265141Y124507D02*X263755Y125307D01*
X207587Y78976D02*Y77376D01*
Y78976D02*X208974Y79776D01*
X207587Y78976D02*X206201Y79776D01*
X208106Y100283D02*Y98683D01*
Y100283D02*X209492Y101083D01*
X208106Y100283D02*X206719Y101083D01*
X214179Y77207D02*Y75607D01*
Y77207D02*X215565Y78007D01*
X214179Y77207D02*X212792Y78007D01*
X216950Y97423D02*Y95823D01*
Y97423D02*X218337Y98223D01*
X216950Y97423D02*X215563Y98223D01*
X209350Y111893D02*Y110293D01*
Y111893D02*X210736Y112693D01*
X209350Y111893D02*X207963Y112693D01*
X220024Y45404D02*Y43804D01*
Y45404D02*X221411Y46204D01*
X220024Y45404D02*X218638Y46204D01*
X253991Y59702D02*Y58102D01*
Y59702D02*X255377Y60502D01*
X253991Y59702D02*X252604Y60502D01*
X222407Y71972D02*Y70372D01*
Y71972D02*X223794Y72772D01*
X222407Y71972D02*X221021Y72772D01*
X331028Y45404D02*Y43804D01*
Y45404D02*X332414Y46204D01*
X331028Y45404D02*X329641Y46204D01*
X218743Y28158D02*Y26558D01*
Y28158D02*X220129Y28958D01*
X218743Y28158D02*X217356Y28958D01*
X55000Y135000D02*Y133400D01*
Y135000D02*X56387Y135800D01*
X55000Y135000D02*X53613Y135800D01*
X37308Y13609D02*Y12009D01*
Y13609D02*X38695Y14409D01*
X37308Y13609D02*X35921Y14409D01*
X62383Y39775D02*Y38175D01*
Y39775D02*X63770Y40575D01*
X62383Y39775D02*X60996Y40575D01*
X36688Y91709D02*Y90109D01*
Y91709D02*X38075Y92509D01*
X36688Y91709D02*X35302Y92509D01*
X45660Y103596D02*Y101996D01*
Y103596D02*X47047Y104396D01*
X45660Y103596D02*X44273Y104396D01*
X75000Y138000D02*Y136400D01*
Y138000D02*X76387Y138800D01*
X75000Y138000D02*X73613Y138800D01*
X87051Y96134D02*Y94534D01*
Y96134D02*X88438Y96934D01*
X87051Y96134D02*X85665Y96934D01*
X93487Y124537D02*Y122937D01*
Y124537D02*X94874Y125337D01*
X93487Y124537D02*X92101Y125337D01*
X80995Y118819D02*Y117219D01*
Y118819D02*X82382Y119619D01*
X80995Y118819D02*X79608Y119619D01*
X75009Y115451D02*Y113851D01*
Y115451D02*X76396Y116251D01*
X75009Y115451D02*X73622Y116251D01*
X32275Y102303D02*Y100703D01*
Y102303D02*X33662Y103103D01*
X32275Y102303D02*X30889Y103103D01*
X32826Y135199D02*Y133599D01*
Y135199D02*X34213Y135999D01*
X32826Y135199D02*X31440Y135999D01*
X26276Y111563D02*Y109963D01*
Y111563D02*X27663Y112363D01*
X26276Y111563D02*X24889Y112363D01*
X57500Y125000D02*Y123400D01*
Y125000D02*X58887Y125800D01*
X57500Y125000D02*X56113Y125800D01*
X50000Y120000D02*Y118400D01*
Y120000D02*X51387Y120800D01*
X50000Y120000D02*X48613Y120800D01*
X57500Y110000D02*Y108400D01*
Y110000D02*X58887Y110800D01*
X57500Y110000D02*X56113Y110800D01*
X85000Y107500D02*Y105900D01*
Y107500D02*X86387Y108300D01*
X85000Y107500D02*X83613Y108300D01*
X132500Y120000D02*Y118400D01*
Y120000D02*X133887Y120800D01*
X132500Y120000D02*X131113Y120800D01*
X145000Y115000D02*Y113400D01*
Y115000D02*X146387Y115800D01*
X145000Y115000D02*X143613Y115800D01*
X145000Y125000D02*Y123400D01*
Y125000D02*X146387Y125800D01*
X145000Y125000D02*X143613Y125800D01*
X160000Y130000D02*Y128400D01*
Y130000D02*X161387Y130800D01*
X160000Y130000D02*X158613Y130800D01*
X160000Y120000D02*Y118400D01*
Y120000D02*X161387Y120800D01*
X160000Y120000D02*X158613Y120800D01*
X135000Y132500D02*Y130900D01*
Y132500D02*X136387Y133300D01*
X135000Y132500D02*X133613Y133300D01*
X110000Y112500D02*Y110900D01*
Y112500D02*X111387Y113300D01*
X110000Y112500D02*X108613Y113300D01*
X82500Y90000D02*Y88400D01*
Y90000D02*X83887Y90800D01*
X82500Y90000D02*X81113Y90800D01*
X82500Y80000D02*Y78400D01*
Y80000D02*X83887Y80800D01*
X82500Y80000D02*X81113Y80800D01*
X82500Y70000D02*Y68400D01*
Y70000D02*X83887Y70800D01*
X82500Y70000D02*X81113Y70800D01*
X82500Y60000D02*Y58400D01*
Y60000D02*X83887Y60800D01*
X82500Y60000D02*X81113Y60800D01*
X127500Y90000D02*Y88400D01*
Y90000D02*X128887Y90800D01*
X127500Y90000D02*X126113Y90800D01*
X137500Y75000D02*Y73400D01*
Y75000D02*X138887Y75800D01*
X137500Y75000D02*X136113Y75800D01*
X130000Y95000D02*Y93400D01*
Y95000D02*X131387Y95800D01*
X130000Y95000D02*X128613Y95800D01*
X140000Y67500D02*Y65900D01*
Y67500D02*X141387Y68300D01*
X140000Y67500D02*X138613Y68300D01*
X140000Y40000D02*Y38400D01*
Y40000D02*X141387Y40800D01*
X140000Y40000D02*X138613Y40800D01*
X165000Y40000D02*Y38400D01*
Y40000D02*X166387Y40800D01*
X165000Y40000D02*X163613Y40800D01*
X135000Y15000D02*Y13400D01*
Y15000D02*X136387Y15800D01*
X135000Y15000D02*X133613Y15800D01*
X160000Y15000D02*Y13400D01*
Y15000D02*X161387Y15800D01*
X160000Y15000D02*X158613Y15800D01*
X177659Y4179D02*Y2579D01*
Y4179D02*X179046Y4979D01*
X177659Y4179D02*X176272Y4979D01*
X15000Y266250D02*Y264650D01*
Y266250D02*X16387Y267050D01*
X15000Y266250D02*X13613Y267050D01*
X135000Y268500D02*X136500Y265500D01*
X138000Y268500D01*
X136500Y265500D02*Y262500D01*
X139800Y265800D02*X142050D01*
X139800Y262500D02*X142800D01*
X139800Y268500D02*Y262500D01*
Y268500D02*X142800D01*
X147600D02*X148350Y267750D01*
X145350Y268500D02*X147600D01*
X144600Y267750D02*X145350Y268500D01*
X144600Y267750D02*Y266250D01*
X145350Y265500D01*
X147600D01*
X148350Y264750D01*
Y263250D01*
X147600Y262500D02*X148350Y263250D01*
X145350Y262500D02*X147600D01*
X144600Y263250D02*X145350Y262500D01*
X98750D02*X101000Y265500D01*
Y267750D02*Y265500D01*
X100250Y268500D02*X101000Y267750D01*
X98750Y268500D02*X100250D01*
X98000Y267750D02*X98750Y268500D01*
X98000Y267750D02*Y266250D01*
X98750Y265500D01*
X101000D01*
X102800Y267750D02*X103550Y268500D01*
X105050D01*
X105800Y267750D01*
X105050Y262500D02*X105800Y263250D01*
X103550Y262500D02*X105050D01*
X102800Y263250D02*X103550Y262500D01*
Y265800D02*X105050D01*
X105800Y267750D02*Y266550D01*
Y265050D02*Y263250D01*
Y265050D02*X105050Y265800D01*
X105800Y266550D02*X105050Y265800D01*
X45000Y263250D02*X45750Y262500D01*
X45000Y267750D02*Y263250D01*
Y267750D02*X45750Y268500D01*
X47250D01*
X48000Y267750D01*
Y263250D01*
X47250Y262500D02*X48000Y263250D01*
X45750Y262500D02*X47250D01*
X45000Y264000D02*X48000Y267000D01*
X49800Y262500D02*X50550D01*
X52350Y263250D02*X53100Y262500D01*
X52350Y267750D02*Y263250D01*
Y267750D02*X53100Y268500D01*
X54600D01*
X55350Y267750D01*
Y263250D01*
X54600Y262500D02*X55350Y263250D01*
X53100Y262500D02*X54600D01*
X52350Y264000D02*X55350Y267000D01*
X57150Y267750D02*X57900Y268500D01*
X60150D01*
X60900Y267750D01*
Y266250D01*
X57150Y262500D02*X60900Y266250D01*
X57150Y262500D02*X60900D01*
X62700Y263250D02*X63450Y262500D01*
X62700Y267750D02*Y263250D01*
Y267750D02*X63450Y268500D01*
X64950D01*
X65700Y267750D01*
Y263250D01*
X64950Y262500D02*X65700Y263250D01*
X63450Y262500D02*X64950D01*
X62700Y264000D02*X65700Y267000D01*
X3000Y283500D02*X3750Y282750D01*
X750Y283500D02*X3000D01*
X0Y282750D02*X750Y283500D01*
X0Y282750D02*Y281250D01*
X750Y280500D01*
X3000D01*
X3750Y279750D01*
Y278250D01*
X3000Y277500D02*X3750Y278250D01*
X750Y277500D02*X3000D01*
X0Y278250D02*X750Y277500D01*
X5550Y280500D02*Y278250D01*
X6300Y277500D01*
X8550Y280500D02*Y276000D01*
X7800Y275250D02*X8550Y276000D01*
X6300Y275250D02*X7800D01*
X5550Y276000D02*X6300Y275250D01*
Y277500D02*X7800D01*
X8550Y278250D01*
X11100Y279750D02*Y277500D01*
Y279750D02*X11850Y280500D01*
X12600D01*
X13350Y279750D01*
Y277500D01*
Y279750D02*X14100Y280500D01*
X14850D01*
X15600Y279750D01*
Y277500D01*
X10350Y280500D02*X11100Y279750D01*
X17400Y283500D02*Y277500D01*
Y278250D02*X18150Y277500D01*
X19650D01*
X20400Y278250D01*
Y279750D02*Y278250D01*
X19650Y280500D02*X20400Y279750D01*
X18150Y280500D02*X19650D01*
X17400Y279750D02*X18150Y280500D01*
X22200Y279750D02*Y278250D01*
Y279750D02*X22950Y280500D01*
X24450D01*
X25200Y279750D01*
Y278250D01*
X24450Y277500D02*X25200Y278250D01*
X22950Y277500D02*X24450D01*
X22200Y278250D02*X22950Y277500D01*
X27000Y283500D02*Y278250D01*
X27750Y277500D01*
X0Y274250D02*X29250D01*
X41750Y283500D02*Y277500D01*
X43700Y283500D02*X44750Y282450D01*
Y278550D01*
X43700Y277500D02*X44750Y278550D01*
X41000Y277500D02*X43700D01*
X41000Y283500D02*X43700D01*
G54D55*X46550Y282000D02*Y281850D01*
G54D54*Y279750D02*Y277500D01*
X50300Y280500D02*X51050Y279750D01*
X48800Y280500D02*X50300D01*
X48050Y279750D02*X48800Y280500D01*
X48050Y279750D02*Y278250D01*
X48800Y277500D01*
X51050Y280500D02*Y278250D01*
X51800Y277500D01*
X48800D02*X50300D01*
X51050Y278250D01*
X54350Y279750D02*Y277500D01*
Y279750D02*X55100Y280500D01*
X55850D01*
X56600Y279750D01*
Y277500D01*
Y279750D02*X57350Y280500D01*
X58100D01*
X58850Y279750D01*
Y277500D01*
X53600Y280500D02*X54350Y279750D01*
X60650Y277500D02*X61400D01*
X65900Y278250D02*X66650Y277500D01*
X65900Y282750D02*X66650Y283500D01*
X65900Y282750D02*Y278250D01*
X68450Y283500D02*X69950D01*
X69200D02*Y277500D01*
X68450D02*X69950D01*
X72500Y279750D02*Y277500D01*
Y279750D02*X73250Y280500D01*
X74000D01*
X74750Y279750D01*
Y277500D01*
X71750Y280500D02*X72500Y279750D01*
X77300Y280500D02*X79550D01*
X76550Y279750D02*X77300Y280500D01*
X76550Y279750D02*Y278250D01*
X77300Y277500D01*
X79550D01*
X81350Y283500D02*Y277500D01*
Y279750D02*X82100Y280500D01*
X83600D01*
X84350Y279750D01*
Y277500D01*
X86150Y283500D02*X86900Y282750D01*
Y278250D01*
X86150Y277500D02*X86900Y278250D01*
X41000Y274250D02*X88700D01*
X96050Y277500D02*X98000D01*
X95000Y278550D02*X96050Y277500D01*
X95000Y282450D02*Y278550D01*
Y282450D02*X96050Y283500D01*
X98000D01*
X99800Y279750D02*Y278250D01*
Y279750D02*X100550Y280500D01*
X102050D01*
X102800Y279750D01*
Y278250D01*
X102050Y277500D02*X102800Y278250D01*
X100550Y277500D02*X102050D01*
X99800Y278250D02*X100550Y277500D01*
X104600Y280500D02*Y278250D01*
X105350Y277500D01*
X106850D01*
X107600Y278250D01*
Y280500D02*Y278250D01*
X110150Y279750D02*Y277500D01*
Y279750D02*X110900Y280500D01*
X111650D01*
X112400Y279750D01*
Y277500D01*
X109400Y280500D02*X110150Y279750D01*
X114950Y283500D02*Y278250D01*
X115700Y277500D01*
X114200Y281250D02*X115700D01*
X95000Y274250D02*X117200D01*
X130750Y283500D02*Y277500D01*
X130000Y283500D02*X133000D01*
X133750Y282750D01*
Y281250D01*
X133000Y280500D02*X133750Y281250D01*
X130750Y280500D02*X133000D01*
X135550Y283500D02*Y278250D01*
X136300Y277500D01*
X140050Y280500D02*X140800Y279750D01*
X138550Y280500D02*X140050D01*
X137800Y279750D02*X138550Y280500D01*
X137800Y279750D02*Y278250D01*
X138550Y277500D01*
X140800Y280500D02*Y278250D01*
X141550Y277500D01*
X138550D02*X140050D01*
X140800Y278250D01*
X144100Y283500D02*Y278250D01*
X144850Y277500D01*
X143350Y281250D02*X144850D01*
X147100Y277500D02*X149350D01*
X146350Y278250D02*X147100Y277500D01*
X146350Y279750D02*Y278250D01*
Y279750D02*X147100Y280500D01*
X148600D01*
X149350Y279750D01*
X146350Y279000D02*X149350D01*
Y279750D01*
X154150Y283500D02*Y277500D01*
X153400D02*X154150Y278250D01*
X151900Y277500D02*X153400D01*
X151150Y278250D02*X151900Y277500D01*
X151150Y279750D02*Y278250D01*
Y279750D02*X151900Y280500D01*
X153400D01*
X154150Y279750D01*
X157450Y280500D02*Y279750D01*
Y278250D02*Y277500D01*
X155950Y282750D02*Y282000D01*
Y282750D02*X156700Y283500D01*
X158200D01*
X158950Y282750D01*
Y282000D01*
X157450Y280500D02*X158950Y282000D01*
X130000Y274250D02*X160750D01*
X0Y298500D02*X3000D01*
X1500D02*Y292500D01*
X4800Y298500D02*Y292500D01*
Y294750D02*X5550Y295500D01*
X7050D01*
X7800Y294750D01*
Y292500D01*
X10350D02*X12600D01*
X9600Y293250D02*X10350Y292500D01*
X9600Y294750D02*Y293250D01*
Y294750D02*X10350Y295500D01*
X11850D01*
X12600Y294750D01*
X9600Y294000D02*X12600D01*
Y294750D01*
X15150D02*Y292500D01*
Y294750D02*X15900Y295500D01*
X17400D01*
X14400D02*X15150Y294750D01*
X19950Y292500D02*X22200D01*
X19200Y293250D02*X19950Y292500D01*
X19200Y294750D02*Y293250D01*
Y294750D02*X19950Y295500D01*
X21450D01*
X22200Y294750D01*
X19200Y294000D02*X22200D01*
Y294750D01*
X28950Y295500D02*X29700Y294750D01*
X27450Y295500D02*X28950D01*
X26700Y294750D02*X27450Y295500D01*
X26700Y294750D02*Y293250D01*
X27450Y292500D01*
X29700Y295500D02*Y293250D01*
X30450Y292500D01*
X27450D02*X28950D01*
X29700Y293250D01*
X33000Y294750D02*Y292500D01*
Y294750D02*X33750Y295500D01*
X35250D01*
X32250D02*X33000Y294750D01*
X37800Y292500D02*X40050D01*
X37050Y293250D02*X37800Y292500D01*
X37050Y294750D02*Y293250D01*
Y294750D02*X37800Y295500D01*
X39300D01*
X40050Y294750D01*
X37050Y294000D02*X40050D01*
Y294750D01*
X44550D02*X47550Y298500D01*
X44550Y294750D02*X48300D01*
X47550Y298500D02*Y292500D01*
X55800Y298500D02*Y292500D01*
X55050D02*X55800Y293250D01*
X53550Y292500D02*X55050D01*
X52800Y293250D02*X53550Y292500D01*
X52800Y294750D02*Y293250D01*
Y294750D02*X53550Y295500D01*
X55050D01*
X55800Y294750D01*
G54D55*X57600Y297000D02*Y296850D01*
G54D54*Y294750D02*Y292500D01*
X59850Y297750D02*Y292500D01*
Y297750D02*X60600Y298500D01*
X61350D01*
X59100Y295500D02*X60600D01*
X63600Y297750D02*Y292500D01*
Y297750D02*X64350Y298500D01*
X65100D01*
X62850Y295500D02*X64350D01*
X67350Y292500D02*X69600D01*
X66600Y293250D02*X67350Y292500D01*
X66600Y294750D02*Y293250D01*
Y294750D02*X67350Y295500D01*
X68850D01*
X69600Y294750D01*
X66600Y294000D02*X69600D01*
Y294750D01*
X72150D02*Y292500D01*
Y294750D02*X72900Y295500D01*
X74400D01*
X71400D02*X72150Y294750D01*
X76950Y292500D02*X79200D01*
X76200Y293250D02*X76950Y292500D01*
X76200Y294750D02*Y293250D01*
Y294750D02*X76950Y295500D01*
X78450D01*
X79200Y294750D01*
X76200Y294000D02*X79200D01*
Y294750D01*
X81750D02*Y292500D01*
Y294750D02*X82500Y295500D01*
X83250D01*
X84000Y294750D01*
Y292500D01*
X81000Y295500D02*X81750Y294750D01*
X86550Y298500D02*Y293250D01*
X87300Y292500D01*
X85800Y296250D02*X87300D01*
X94500Y298500D02*Y292500D01*
X93750D02*X94500Y293250D01*
X92250Y292500D02*X93750D01*
X91500Y293250D02*X92250Y292500D01*
X91500Y294750D02*Y293250D01*
Y294750D02*X92250Y295500D01*
X93750D01*
X94500Y294750D01*
X97050D02*Y292500D01*
Y294750D02*X97800Y295500D01*
X99300D01*
X96300D02*X97050Y294750D01*
G54D55*X101100Y297000D02*Y296850D01*
G54D54*Y294750D02*Y292500D01*
X102600Y298500D02*Y293250D01*
X103350Y292500D01*
X104850Y298500D02*Y293250D01*
X105600Y292500D01*
X110550D02*X112800D01*
X113550Y293250D01*
X112800Y294000D02*X113550Y293250D01*
X110550Y294000D02*X112800D01*
X109800Y294750D02*X110550Y294000D01*
X109800Y294750D02*X110550Y295500D01*
X112800D01*
X113550Y294750D01*
X109800Y293250D02*X110550Y292500D01*
G54D55*X115350Y297000D02*Y296850D01*
G54D54*Y294750D02*Y292500D01*
X116850Y295500D02*X119850D01*
X116850Y292500D02*X119850Y295500D01*
X116850Y292500D02*X119850D01*
X122400D02*X124650D01*
X121650Y293250D02*X122400Y292500D01*
X121650Y294750D02*Y293250D01*
Y294750D02*X122400Y295500D01*
X123900D01*
X124650Y294750D01*
X121650Y294000D02*X124650D01*
Y294750D01*
X127200Y292500D02*X129450D01*
X130200Y293250D01*
X129450Y294000D02*X130200Y293250D01*
X127200Y294000D02*X129450D01*
X126450Y294750D02*X127200Y294000D01*
X126450Y294750D02*X127200Y295500D01*
X129450D01*
X130200Y294750D01*
X126450Y293250D02*X127200Y292500D01*
X134700Y295500D02*Y293250D01*
X135450Y292500D01*
X136950D01*
X137700Y293250D01*
Y295500D02*Y293250D01*
X140250Y292500D02*X142500D01*
X143250Y293250D01*
X142500Y294000D02*X143250Y293250D01*
X140250Y294000D02*X142500D01*
X139500Y294750D02*X140250Y294000D01*
X139500Y294750D02*X140250Y295500D01*
X142500D01*
X143250Y294750D01*
X139500Y293250D02*X140250Y292500D01*
X145800D02*X148050D01*
X145050Y293250D02*X145800Y292500D01*
X145050Y294750D02*Y293250D01*
Y294750D02*X145800Y295500D01*
X147300D01*
X148050Y294750D01*
X145050Y294000D02*X148050D01*
Y294750D01*
X152850Y298500D02*Y292500D01*
X152100D02*X152850Y293250D01*
X150600Y292500D02*X152100D01*
X149850Y293250D02*X150600Y292500D01*
X149850Y294750D02*Y293250D01*
Y294750D02*X150600Y295500D01*
X152100D01*
X152850Y294750D01*
G54D55*X157350Y297000D02*Y296850D01*
G54D54*Y294750D02*Y292500D01*
X159600Y294750D02*Y292500D01*
Y294750D02*X160350Y295500D01*
X161100D01*
X161850Y294750D01*
Y292500D01*
X158850Y295500D02*X159600Y294750D01*
X167100Y298500D02*Y293250D01*
X167850Y292500D01*
X166350Y296250D02*X167850D01*
X169350Y298500D02*Y292500D01*
Y294750D02*X170100Y295500D01*
X171600D01*
X172350Y294750D01*
Y292500D01*
G54D55*X174150Y297000D02*Y296850D01*
G54D54*Y294750D02*Y292500D01*
X176400D02*X178650D01*
X179400Y293250D01*
X178650Y294000D02*X179400Y293250D01*
X176400Y294000D02*X178650D01*
X175650Y294750D02*X176400Y294000D01*
X175650Y294750D02*X176400Y295500D01*
X178650D01*
X179400Y294750D01*
X175650Y293250D02*X176400Y292500D01*
X183900Y298500D02*Y293250D01*
X184650Y292500D01*
X188400Y295500D02*X189150Y294750D01*
X186900Y295500D02*X188400D01*
X186150Y294750D02*X186900Y295500D01*
X186150Y294750D02*Y293250D01*
X186900Y292500D01*
X189150Y295500D02*Y293250D01*
X189900Y292500D01*
X186900D02*X188400D01*
X189150Y293250D01*
X191700Y295500D02*Y293250D01*
X192450Y292500D01*
X194700Y295500D02*Y291000D01*
X193950Y290250D02*X194700Y291000D01*
X192450Y290250D02*X193950D01*
X191700Y291000D02*X192450Y290250D01*
Y292500D02*X193950D01*
X194700Y293250D01*
X196500Y294750D02*Y293250D01*
Y294750D02*X197250Y295500D01*
X198750D01*
X199500Y294750D01*
Y293250D01*
X198750Y292500D02*X199500Y293250D01*
X197250Y292500D02*X198750D01*
X196500Y293250D02*X197250Y292500D01*
X201300Y295500D02*Y293250D01*
X202050Y292500D01*
X203550D01*
X204300Y293250D01*
Y295500D02*Y293250D01*
X206850Y298500D02*Y293250D01*
X207600Y292500D01*
X206100Y296250D02*X207600D01*
X209100Y291000D02*X210600Y292500D01*
X215100Y297750D02*X215850Y298500D01*
X218100D01*
X218850Y297750D01*
Y296250D01*
X215100Y292500D02*X218850Y296250D01*
X215100Y292500D02*X218850D01*
X222900Y298500D02*X223650Y297750D01*
X221400Y298500D02*X222900D01*
X220650Y297750D02*X221400Y298500D01*
X220650Y297750D02*Y293250D01*
X221400Y292500D01*
X222900Y295800D02*X223650Y295050D01*
X220650Y295800D02*X222900D01*
X221400Y292500D02*X222900D01*
X223650Y293250D01*
Y295050D02*Y293250D01*
X225450Y297750D02*X226200Y298500D01*
X227700D01*
X228450Y297750D01*
X227700Y292500D02*X228450Y293250D01*
X226200Y292500D02*X227700D01*
X225450Y293250D02*X226200Y292500D01*
Y295800D02*X227700D01*
X228450Y297750D02*Y296550D01*
Y295050D02*Y293250D01*
Y295050D02*X227700Y295800D01*
X228450Y296550D02*X227700Y295800D01*
X232950Y298500D02*Y292500D01*
Y294750D02*X233700Y295500D01*
X235200D01*
X235950Y294750D01*
Y292500D01*
X237750Y294750D02*Y293250D01*
Y294750D02*X238500Y295500D01*
X240000D01*
X240750Y294750D01*
Y293250D01*
X240000Y292500D02*X240750Y293250D01*
X238500Y292500D02*X240000D01*
X237750Y293250D02*X238500Y292500D01*
X242550Y298500D02*Y293250D01*
X243300Y292500D01*
X245550D02*X247800D01*
X244800Y293250D02*X245550Y292500D01*
X244800Y294750D02*Y293250D01*
Y294750D02*X245550Y295500D01*
X247050D01*
X247800Y294750D01*
X244800Y294000D02*X247800D01*
Y294750D01*
X250350Y292500D02*X252600D01*
X253350Y293250D01*
X252600Y294000D02*X253350Y293250D01*
X250350Y294000D02*X252600D01*
X249600Y294750D02*X250350Y294000D01*
X249600Y294750D02*X250350Y295500D01*
X252600D01*
X253350Y294750D01*
X249600Y293250D02*X250350Y292500D01*
X258600Y298500D02*Y293250D01*
X259350Y292500D01*
X257850Y296250D02*X259350D01*
X260850Y294750D02*Y293250D01*
Y294750D02*X261600Y295500D01*
X263100D01*
X263850Y294750D01*
Y293250D01*
X263100Y292500D02*X263850Y293250D01*
X261600Y292500D02*X263100D01*
X260850Y293250D02*X261600Y292500D01*
X266400Y298500D02*Y293250D01*
X267150Y292500D01*
X265650Y296250D02*X267150D01*
X270900Y295500D02*X271650Y294750D01*
X269400Y295500D02*X270900D01*
X268650Y294750D02*X269400Y295500D01*
X268650Y294750D02*Y293250D01*
X269400Y292500D01*
X271650Y295500D02*Y293250D01*
X272400Y292500D01*
X269400D02*X270900D01*
X271650Y293250D01*
X274200Y298500D02*Y293250D01*
X274950Y292500D01*
G54D56*X0Y210000D02*X340000D01*
X0D02*Y0D01*
X340000Y210000D02*Y0D01*
X0D02*X340000D01*
G54D54*X200000Y223500D02*Y217500D01*
Y223500D02*X202250Y220500D01*
X204500Y223500D01*
Y217500D01*
X208550Y220500D02*X209300Y219750D01*
X207050Y220500D02*X208550D01*
X206300Y219750D02*X207050Y220500D01*
X206300Y219750D02*Y218250D01*
X207050Y217500D01*
X209300Y220500D02*Y218250D01*
X210050Y217500D01*
X207050D02*X208550D01*
X209300Y218250D01*
X211850Y220500D02*X214850Y217500D01*
X211850D02*X214850Y220500D01*
G54D55*X216650Y222000D02*Y221850D01*
G54D54*Y219750D02*Y217500D01*
X218900Y219750D02*Y217500D01*
Y219750D02*X219650Y220500D01*
X220400D01*
X221150Y219750D01*
Y217500D01*
Y219750D02*X221900Y220500D01*
X222650D01*
X223400Y219750D01*
Y217500D01*
X218150Y220500D02*X218900Y219750D01*
X225200Y220500D02*Y218250D01*
X225950Y217500D01*
X227450D01*
X228200Y218250D01*
Y220500D02*Y218250D01*
X230750Y219750D02*Y217500D01*
Y219750D02*X231500Y220500D01*
X232250D01*
X233000Y219750D01*
Y217500D01*
Y219750D02*X233750Y220500D01*
X234500D01*
X235250Y219750D01*
Y217500D01*
X230000Y220500D02*X230750Y219750D01*
X240500Y223500D02*Y217500D01*
X242450Y223500D02*X243500Y222450D01*
Y218550D01*
X242450Y217500D02*X243500Y218550D01*
X239750Y217500D02*X242450D01*
X239750Y223500D02*X242450D01*
G54D55*X245300Y222000D02*Y221850D01*
G54D54*Y219750D02*Y217500D01*
X247550Y219750D02*Y217500D01*
Y219750D02*X248300Y220500D01*
X249050D01*
X249800Y219750D01*
Y217500D01*
Y219750D02*X250550Y220500D01*
X251300D01*
X252050Y219750D01*
Y217500D01*
X246800Y220500D02*X247550Y219750D01*
X254600Y217500D02*X256850D01*
X253850Y218250D02*X254600Y217500D01*
X253850Y219750D02*Y218250D01*
Y219750D02*X254600Y220500D01*
X256100D01*
X256850Y219750D01*
X253850Y219000D02*X256850D01*
Y219750D01*
X259400D02*Y217500D01*
Y219750D02*X260150Y220500D01*
X260900D01*
X261650Y219750D01*
Y217500D01*
X258650Y220500D02*X259400Y219750D01*
X264200Y217500D02*X266450D01*
X267200Y218250D01*
X266450Y219000D02*X267200Y218250D01*
X264200Y219000D02*X266450D01*
X263450Y219750D02*X264200Y219000D01*
X263450Y219750D02*X264200Y220500D01*
X266450D01*
X267200Y219750D01*
X263450Y218250D02*X264200Y217500D01*
G54D55*X269000Y222000D02*Y221850D01*
G54D54*Y219750D02*Y217500D01*
X270500Y219750D02*Y218250D01*
Y219750D02*X271250Y220500D01*
X272750D01*
X273500Y219750D01*
Y218250D01*
X272750Y217500D02*X273500Y218250D01*
X271250Y217500D02*X272750D01*
X270500Y218250D02*X271250Y217500D01*
X276050Y219750D02*Y217500D01*
Y219750D02*X276800Y220500D01*
X277550D01*
X278300Y219750D01*
Y217500D01*
X275300Y220500D02*X276050Y219750D01*
X280850Y217500D02*X283100D01*
X283850Y218250D01*
X283100Y219000D02*X283850Y218250D01*
X280850Y219000D02*X283100D01*
X280100Y219750D02*X280850Y219000D01*
X280100Y219750D02*X280850Y220500D01*
X283100D01*
X283850Y219750D01*
X280100Y218250D02*X280850Y217500D01*
X285650Y221250D02*X286400D01*
X285650Y219750D02*X286400D01*
X290900Y222750D02*X291650Y223500D01*
X293150D01*
X293900Y222750D01*
X293150Y217500D02*X293900Y218250D01*
X291650Y217500D02*X293150D01*
X290900Y218250D02*X291650Y217500D01*
Y220800D02*X293150D01*
X293900Y222750D02*Y221550D01*
Y220050D02*Y218250D01*
Y220050D02*X293150Y220800D01*
X293900Y221550D02*X293150Y220800D01*
X295700Y219750D02*X298700Y223500D01*
X295700Y219750D02*X299450D01*
X298700Y223500D02*Y217500D01*
X301250Y218250D02*X302000Y217500D01*
X301250Y222750D02*Y218250D01*
Y222750D02*X302000Y223500D01*
X303500D01*
X304250Y222750D01*
Y218250D01*
X303500Y217500D02*X304250Y218250D01*
X302000Y217500D02*X303500D01*
X301250Y219000D02*X304250Y222000D01*
X306050Y218250D02*X306800Y217500D01*
X306050Y222750D02*Y218250D01*
Y222750D02*X306800Y223500D01*
X308300D01*
X309050Y222750D01*
Y218250D01*
X308300Y217500D02*X309050Y218250D01*
X306800Y217500D02*X308300D01*
X306050Y219000D02*X309050Y222000D01*
X310850Y217500D02*X311600D01*
X313400Y218250D02*X314150Y217500D01*
X313400Y222750D02*Y218250D01*
Y222750D02*X314150Y223500D01*
X315650D01*
X316400Y222750D01*
Y218250D01*
X315650Y217500D02*X316400Y218250D01*
X314150Y217500D02*X315650D01*
X313400Y219000D02*X316400Y222000D01*
X318200Y218250D02*X318950Y217500D01*
X318200Y222750D02*Y218250D01*
Y222750D02*X318950Y223500D01*
X320450D01*
X321200Y222750D01*
Y218250D01*
X320450Y217500D02*X321200Y218250D01*
X318950Y217500D02*X320450D01*
X318200Y219000D02*X321200Y222000D01*
X323000Y218250D02*X323750Y217500D01*
X323000Y222750D02*Y218250D01*
Y222750D02*X323750Y223500D01*
X325250D01*
X326000Y222750D01*
Y218250D01*
X325250Y217500D02*X326000Y218250D01*
X323750Y217500D02*X325250D01*
X323000Y219000D02*X326000Y222000D01*
X327800Y218250D02*X328550Y217500D01*
X327800Y222750D02*Y218250D01*
Y222750D02*X328550Y223500D01*
X330050D01*
X330800Y222750D01*
Y218250D01*
X330050Y217500D02*X330800Y218250D01*
X328550Y217500D02*X330050D01*
X327800Y219000D02*X330800Y222000D01*
X332600Y218250D02*X333350Y217500D01*
X332600Y222750D02*Y218250D01*
Y222750D02*X333350Y223500D01*
X334850D01*
X335600Y222750D01*
Y218250D01*
X334850Y217500D02*X335600Y218250D01*
X333350Y217500D02*X334850D01*
X332600Y219000D02*X335600Y222000D01*
X337400Y218250D02*X338150Y217500D01*
X337400Y222750D02*Y218250D01*
Y222750D02*X338150Y223500D01*
X339650D01*
X340400Y222750D01*
Y218250D01*
X339650Y217500D02*X340400Y218250D01*
X338150Y217500D02*X339650D01*
X337400Y219000D02*X340400Y222000D01*
X345650Y219750D02*Y217500D01*
Y219750D02*X346400Y220500D01*
X347150D01*
X347900Y219750D01*
Y217500D01*
Y219750D02*X348650Y220500D01*
X349400D01*
X350150Y219750D01*
Y217500D01*
X344900Y220500D02*X345650Y219750D01*
G54D55*X351950Y222000D02*Y221850D01*
G54D54*Y219750D02*Y217500D01*
X353450Y223500D02*Y218250D01*
X354200Y217500D01*
X356450D02*X358700D01*
X359450Y218250D01*
X358700Y219000D02*X359450Y218250D01*
X356450Y219000D02*X358700D01*
X355700Y219750D02*X356450Y219000D01*
X355700Y219750D02*X356450Y220500D01*
X358700D01*
X359450Y219750D01*
X355700Y218250D02*X356450Y217500D01*
X363950Y220500D02*Y218250D01*
X364700Y217500D01*
X365450D01*
X366200Y218250D01*
Y220500D02*Y218250D01*
X366950Y217500D01*
X367700D01*
X368450Y218250D01*
Y220500D02*Y218250D01*
G54D55*X370250Y222000D02*Y221850D01*
G54D54*Y219750D02*Y217500D01*
X374750Y223500D02*Y217500D01*
X374000D02*X374750Y218250D01*
X372500Y217500D02*X374000D01*
X371750Y218250D02*X372500Y217500D01*
X371750Y219750D02*Y218250D01*
Y219750D02*X372500Y220500D01*
X374000D01*
X374750Y219750D01*
X377300Y217500D02*X379550D01*
X376550Y218250D02*X377300Y217500D01*
X376550Y219750D02*Y218250D01*
Y219750D02*X377300Y220500D01*
X378800D01*
X379550Y219750D01*
X376550Y219000D02*X379550D01*
Y219750D01*
X381350Y216000D02*X382850Y217500D01*
X387350Y222750D02*X388100Y223500D01*
X390350D01*
X391100Y222750D01*
Y221250D01*
X387350Y217500D02*X391100Y221250D01*
X387350Y217500D02*X391100D01*
X392900Y222300D02*X394100Y223500D01*
Y217500D01*
X392900D02*X395150D01*
X396950Y218250D02*X397700Y217500D01*
X396950Y222750D02*Y218250D01*
Y222750D02*X397700Y223500D01*
X399200D01*
X399950Y222750D01*
Y218250D01*
X399200Y217500D02*X399950Y218250D01*
X397700Y217500D02*X399200D01*
X396950Y219000D02*X399950Y222000D01*
X401750Y218250D02*X402500Y217500D01*
X401750Y222750D02*Y218250D01*
Y222750D02*X402500Y223500D01*
X404000D01*
X404750Y222750D01*
Y218250D01*
X404000Y217500D02*X404750Y218250D01*
X402500Y217500D02*X404000D01*
X401750Y219000D02*X404750Y222000D01*
X406550Y217500D02*X407300D01*
X409100Y218250D02*X409850Y217500D01*
X409100Y222750D02*Y218250D01*
Y222750D02*X409850Y223500D01*
X411350D01*
X412100Y222750D01*
Y218250D01*
X411350Y217500D02*X412100Y218250D01*
X409850Y217500D02*X411350D01*
X409100Y219000D02*X412100Y222000D01*
X413900Y218250D02*X414650Y217500D01*
X413900Y222750D02*Y218250D01*
Y222750D02*X414650Y223500D01*
X416150D01*
X416900Y222750D01*
Y218250D01*
X416150Y217500D02*X416900Y218250D01*
X414650Y217500D02*X416150D01*
X413900Y219000D02*X416900Y222000D01*
X418700Y218250D02*X419450Y217500D01*
X418700Y222750D02*Y218250D01*
Y222750D02*X419450Y223500D01*
X420950D01*
X421700Y222750D01*
Y218250D01*
X420950Y217500D02*X421700Y218250D01*
X419450Y217500D02*X420950D01*
X418700Y219000D02*X421700Y222000D01*
X423500Y218250D02*X424250Y217500D01*
X423500Y222750D02*Y218250D01*
Y222750D02*X424250Y223500D01*
X425750D01*
X426500Y222750D01*
Y218250D01*
X425750Y217500D02*X426500Y218250D01*
X424250Y217500D02*X425750D01*
X423500Y219000D02*X426500Y222000D01*
X428300Y218250D02*X429050Y217500D01*
X428300Y222750D02*Y218250D01*
Y222750D02*X429050Y223500D01*
X430550D01*
X431300Y222750D01*
Y218250D01*
X430550Y217500D02*X431300Y218250D01*
X429050Y217500D02*X430550D01*
X428300Y219000D02*X431300Y222000D01*
X433100Y218250D02*X433850Y217500D01*
X433100Y222750D02*Y218250D01*
Y222750D02*X433850Y223500D01*
X435350D01*
X436100Y222750D01*
Y218250D01*
X435350Y217500D02*X436100Y218250D01*
X433850Y217500D02*X435350D01*
X433100Y219000D02*X436100Y222000D01*
X441350Y219750D02*Y217500D01*
Y219750D02*X442100Y220500D01*
X442850D01*
X443600Y219750D01*
Y217500D01*
Y219750D02*X444350Y220500D01*
X445100D01*
X445850Y219750D01*
Y217500D01*
X440600Y220500D02*X441350Y219750D01*
G54D55*X447650Y222000D02*Y221850D01*
G54D54*Y219750D02*Y217500D01*
X449150Y223500D02*Y218250D01*
X449900Y217500D01*
X452150D02*X454400D01*
X455150Y218250D01*
X454400Y219000D02*X455150Y218250D01*
X452150Y219000D02*X454400D01*
X451400Y219750D02*X452150Y219000D01*
X451400Y219750D02*X452150Y220500D01*
X454400D01*
X455150Y219750D01*
X451400Y218250D02*X452150Y217500D01*
X459650Y223500D02*Y217500D01*
Y219750D02*X460400Y220500D01*
X461900D01*
X462650Y219750D01*
Y217500D01*
G54D55*X464450Y222000D02*Y221850D01*
G54D54*Y219750D02*Y217500D01*
X468200Y220500D02*X468950Y219750D01*
X466700Y220500D02*X468200D01*
X465950Y219750D02*X466700Y220500D01*
X465950Y219750D02*Y218250D01*
X466700Y217500D01*
X468200D01*
X468950Y218250D01*
X465950Y216000D02*X466700Y215250D01*
X468200D01*
X468950Y216000D01*
Y220500D02*Y216000D01*
X470750Y223500D02*Y217500D01*
Y219750D02*X471500Y220500D01*
X473000D01*
X473750Y219750D01*
Y217500D01*
X0Y-9500D02*X3000D01*
X3750Y-8750D01*
Y-6950D02*Y-8750D01*
X3000Y-6200D02*X3750Y-6950D01*
X750Y-6200D02*X3000D01*
X750Y-3500D02*Y-9500D01*
X0Y-3500D02*X3000D01*
X3750Y-4250D01*
Y-5450D01*
X3000Y-6200D02*X3750Y-5450D01*
X5550Y-7250D02*Y-8750D01*
Y-7250D02*X6300Y-6500D01*
X7800D01*
X8550Y-7250D01*
Y-8750D01*
X7800Y-9500D02*X8550Y-8750D01*
X6300Y-9500D02*X7800D01*
X5550Y-8750D02*X6300Y-9500D01*
X12600Y-6500D02*X13350Y-7250D01*
X11100Y-6500D02*X12600D01*
X10350Y-7250D02*X11100Y-6500D01*
X10350Y-7250D02*Y-8750D01*
X11100Y-9500D01*
X13350Y-6500D02*Y-8750D01*
X14100Y-9500D01*
X11100D02*X12600D01*
X13350Y-8750D01*
X16650Y-7250D02*Y-9500D01*
Y-7250D02*X17400Y-6500D01*
X18900D01*
X15900D02*X16650Y-7250D01*
X23700Y-3500D02*Y-9500D01*
X22950D02*X23700Y-8750D01*
X21450Y-9500D02*X22950D01*
X20700Y-8750D02*X21450Y-9500D01*
X20700Y-7250D02*Y-8750D01*
Y-7250D02*X21450Y-6500D01*
X22950D01*
X23700Y-7250D01*
X28200D02*Y-8750D01*
Y-7250D02*X28950Y-6500D01*
X30450D01*
X31200Y-7250D01*
Y-8750D01*
X30450Y-9500D02*X31200Y-8750D01*
X28950Y-9500D02*X30450D01*
X28200Y-8750D02*X28950Y-9500D01*
X33000Y-6500D02*Y-8750D01*
X33750Y-9500D01*
X35250D01*
X36000Y-8750D01*
Y-6500D02*Y-8750D01*
X38550Y-3500D02*Y-8750D01*
X39300Y-9500D01*
X37800Y-5750D02*X39300D01*
X40800Y-3500D02*Y-8750D01*
X41550Y-9500D01*
G54D55*X43050Y-5000D02*Y-5150D01*
G54D54*Y-7250D02*Y-9500D01*
X45300Y-7250D02*Y-9500D01*
Y-7250D02*X46050Y-6500D01*
X46800D01*
X47550Y-7250D01*
Y-9500D01*
X44550Y-6500D02*X45300Y-7250D01*
X50100Y-9500D02*X52350D01*
X49350Y-8750D02*X50100Y-9500D01*
X49350Y-7250D02*Y-8750D01*
Y-7250D02*X50100Y-6500D01*
X51600D01*
X52350Y-7250D01*
X49350Y-8000D02*X52350D01*
Y-7250D01*
G54D55*X56850Y-5000D02*Y-5150D01*
G54D54*Y-7250D02*Y-9500D01*
X59100D02*X61350D01*
X62100Y-8750D01*
X61350Y-8000D02*X62100Y-8750D01*
X59100Y-8000D02*X61350D01*
X58350Y-7250D02*X59100Y-8000D01*
X58350Y-7250D02*X59100Y-6500D01*
X61350D01*
X62100Y-7250D01*
X58350Y-8750D02*X59100Y-9500D01*
X67350Y-3500D02*Y-8750D01*
X68100Y-9500D01*
X66600Y-5750D02*X68100D01*
X69600Y-3500D02*Y-9500D01*
Y-7250D02*X70350Y-6500D01*
X71850D01*
X72600Y-7250D01*
Y-9500D01*
X75150D02*X77400D01*
X74400Y-8750D02*X75150Y-9500D01*
X74400Y-7250D02*Y-8750D01*
Y-7250D02*X75150Y-6500D01*
X76650D01*
X77400Y-7250D01*
X74400Y-8000D02*X77400D01*
Y-7250D01*
X82650Y-6500D02*X84900D01*
X81900Y-7250D02*X82650Y-6500D01*
X81900Y-7250D02*Y-8750D01*
X82650Y-9500D01*
X84900D01*
X87450D02*X89700D01*
X86700Y-8750D02*X87450Y-9500D01*
X86700Y-7250D02*Y-8750D01*
Y-7250D02*X87450Y-6500D01*
X88950D01*
X89700Y-7250D01*
X86700Y-8000D02*X89700D01*
Y-7250D01*
X92250D02*Y-9500D01*
Y-7250D02*X93000Y-6500D01*
X93750D01*
X94500Y-7250D01*
Y-9500D01*
X91500Y-6500D02*X92250Y-7250D01*
X97050Y-3500D02*Y-8750D01*
X97800Y-9500D01*
X96300Y-5750D02*X97800D01*
X100050Y-9500D02*X102300D01*
X99300Y-8750D02*X100050Y-9500D01*
X99300Y-7250D02*Y-8750D01*
Y-7250D02*X100050Y-6500D01*
X101550D01*
X102300Y-7250D01*
X99300Y-8000D02*X102300D01*
Y-7250D01*
X104850D02*Y-9500D01*
Y-7250D02*X105600Y-6500D01*
X107100D01*
X104100D02*X104850Y-7250D01*
X108900Y-3500D02*Y-8750D01*
X109650Y-9500D01*
G54D55*X111150Y-5000D02*Y-5150D01*
G54D54*Y-7250D02*Y-9500D01*
X113400Y-7250D02*Y-9500D01*
Y-7250D02*X114150Y-6500D01*
X114900D01*
X115650Y-7250D01*
Y-9500D01*
X112650Y-6500D02*X113400Y-7250D01*
X118200Y-9500D02*X120450D01*
X117450Y-8750D02*X118200Y-9500D01*
X117450Y-7250D02*Y-8750D01*
Y-7250D02*X118200Y-6500D01*
X119700D01*
X120450Y-7250D01*
X117450Y-8000D02*X120450D01*
Y-7250D01*
X124950D02*Y-8750D01*
Y-7250D02*X125700Y-6500D01*
X127200D01*
X127950Y-7250D01*
Y-8750D01*
X127200Y-9500D02*X127950Y-8750D01*
X125700Y-9500D02*X127200D01*
X124950Y-8750D02*X125700Y-9500D01*
X130500Y-4250D02*Y-9500D01*
Y-4250D02*X131250Y-3500D01*
X132000D01*
X129750Y-6500D02*X131250D01*
X136950Y-3500D02*Y-8750D01*
X137700Y-9500D01*
X136200Y-5750D02*X137700D01*
X139200Y-3500D02*Y-9500D01*
Y-7250D02*X139950Y-6500D01*
X141450D01*
X142200Y-7250D01*
Y-9500D01*
G54D55*X144000Y-5000D02*Y-5150D01*
G54D54*Y-7250D02*Y-9500D01*
X146250D02*X148500D01*
X149250Y-8750D01*
X148500Y-8000D02*X149250Y-8750D01*
X146250Y-8000D02*X148500D01*
X145500Y-7250D02*X146250Y-8000D01*
X145500Y-7250D02*X146250Y-6500D01*
X148500D01*
X149250Y-7250D01*
X145500Y-8750D02*X146250Y-9500D01*
X153750Y-8750D02*X154500Y-9500D01*
X153750Y-7550D02*Y-8750D01*
Y-7550D02*X154800Y-6500D01*
X155700D01*
X156750Y-7550D01*
Y-8750D01*
X156000Y-9500D02*X156750Y-8750D01*
X154500Y-9500D02*X156000D01*
X153750Y-5450D02*X154800Y-6500D01*
X153750Y-4250D02*Y-5450D01*
Y-4250D02*X154500Y-3500D01*
X156000D01*
X156750Y-4250D01*
Y-5450D01*
X155700Y-6500D02*X156750Y-5450D01*
X158550Y-9500D02*X159300D01*
X161100Y-8750D02*X161850Y-9500D01*
X161100Y-4250D02*Y-8750D01*
Y-4250D02*X161850Y-3500D01*
X163350D01*
X164100Y-4250D01*
Y-8750D01*
X163350Y-9500D02*X164100Y-8750D01*
X161850Y-9500D02*X163350D01*
X161100Y-8000D02*X164100Y-5000D01*
X165900Y-8750D02*X166650Y-9500D01*
X165900Y-4250D02*Y-8750D01*
Y-4250D02*X166650Y-3500D01*
X168150D01*
X168900Y-4250D01*
Y-8750D01*
X168150Y-9500D02*X168900Y-8750D01*
X166650Y-9500D02*X168150D01*
X165900Y-8000D02*X168900Y-5000D01*
X170700Y-8750D02*X171450Y-9500D01*
X170700Y-4250D02*Y-8750D01*
Y-4250D02*X171450Y-3500D01*
X172950D01*
X173700Y-4250D01*
Y-8750D01*
X172950Y-9500D02*X173700Y-8750D01*
X171450Y-9500D02*X172950D01*
X170700Y-8000D02*X173700Y-5000D01*
X175500Y-8750D02*X176250Y-9500D01*
X175500Y-4250D02*Y-8750D01*
Y-4250D02*X176250Y-3500D01*
X177750D01*
X178500Y-4250D01*
Y-8750D01*
X177750Y-9500D02*X178500Y-8750D01*
X176250Y-9500D02*X177750D01*
X175500Y-8000D02*X178500Y-5000D01*
X180300Y-8750D02*X181050Y-9500D01*
X180300Y-4250D02*Y-8750D01*
Y-4250D02*X181050Y-3500D01*
X182550D01*
X183300Y-4250D01*
Y-8750D01*
X182550Y-9500D02*X183300Y-8750D01*
X181050Y-9500D02*X182550D01*
X180300Y-8000D02*X183300Y-5000D01*
X185100Y-8750D02*X185850Y-9500D01*
X185100Y-4250D02*Y-8750D01*
Y-4250D02*X185850Y-3500D01*
X187350D01*
X188100Y-4250D01*
Y-8750D01*
X187350Y-9500D02*X188100Y-8750D01*
X185850Y-9500D02*X187350D01*
X185100Y-8000D02*X188100Y-5000D01*
X193350Y-7250D02*Y-9500D01*
Y-7250D02*X194100Y-6500D01*
X194850D01*
X195600Y-7250D01*
Y-9500D01*
Y-7250D02*X196350Y-6500D01*
X197100D01*
X197850Y-7250D01*
Y-9500D01*
X192600Y-6500D02*X193350Y-7250D01*
G54D55*X199650Y-5000D02*Y-5150D01*
G54D54*Y-7250D02*Y-9500D01*
X201150Y-3500D02*Y-8750D01*
X201900Y-9500D01*
X206850Y-7250D02*Y-9500D01*
Y-7250D02*X207600Y-6500D01*
X209100D01*
X206100D02*X206850Y-7250D01*
X211650Y-9500D02*X213900D01*
X210900Y-8750D02*X211650Y-9500D01*
X210900Y-7250D02*Y-8750D01*
Y-7250D02*X211650Y-6500D01*
X213150D01*
X213900Y-7250D01*
X210900Y-8000D02*X213900D01*
Y-7250D01*
X216450Y-6500D02*X218700D01*
X215700Y-7250D02*X216450Y-6500D01*
X215700Y-7250D02*Y-8750D01*
X216450Y-9500D01*
X218700D01*
X221250Y-3500D02*Y-8750D01*
X222000Y-9500D01*
X220500Y-5750D02*X222000D01*
X225750Y-6500D02*X226500Y-7250D01*
X224250Y-6500D02*X225750D01*
X223500Y-7250D02*X224250Y-6500D01*
X223500Y-7250D02*Y-8750D01*
X224250Y-9500D01*
X226500Y-6500D02*Y-8750D01*
X227250Y-9500D01*
X224250D02*X225750D01*
X226500Y-8750D01*
X229800Y-7250D02*Y-9500D01*
Y-7250D02*X230550Y-6500D01*
X231300D01*
X232050Y-7250D01*
Y-9500D01*
X229050Y-6500D02*X229800Y-7250D01*
X236100Y-6500D02*X236850Y-7250D01*
X234600Y-6500D02*X236100D01*
X233850Y-7250D02*X234600Y-6500D01*
X233850Y-7250D02*Y-8750D01*
X234600Y-9500D01*
X236100D01*
X236850Y-8750D01*
X233850Y-11000D02*X234600Y-11750D01*
X236100D01*
X236850Y-11000D01*
Y-6500D02*Y-11000D01*
X238650Y-3500D02*Y-8750D01*
X239400Y-9500D01*
X241650D02*X243900D01*
X240900Y-8750D02*X241650Y-9500D01*
X240900Y-7250D02*Y-8750D01*
Y-7250D02*X241650Y-6500D01*
X243150D01*
X243900Y-7250D01*
X240900Y-8000D02*X243900D01*
Y-7250D01*
X248400Y-6500D02*X251400D01*
X255900Y-8750D02*X256650Y-9500D01*
X255900Y-4250D02*Y-8750D01*
Y-4250D02*X256650Y-3500D01*
X258150D01*
X258900Y-4250D01*
Y-8750D01*
X258150Y-9500D02*X258900Y-8750D01*
X256650Y-9500D02*X258150D01*
X255900Y-8000D02*X258900Y-5000D01*
X260700Y-11000D02*X262200Y-9500D01*
X264000Y-8750D02*X264750Y-9500D01*
X264000Y-4250D02*Y-8750D01*
Y-4250D02*X264750Y-3500D01*
X266250D01*
X267000Y-4250D01*
Y-8750D01*
X266250Y-9500D02*X267000Y-8750D01*
X264750Y-9500D02*X266250D01*
X264000Y-8000D02*X267000Y-5000D01*
X272250Y-3500D02*Y-8750D01*
X273000Y-9500D01*
X271500Y-5750D02*X273000D01*
X274500Y-7250D02*Y-8750D01*
Y-7250D02*X275250Y-6500D01*
X276750D01*
X277500Y-7250D01*
Y-8750D01*
X276750Y-9500D02*X277500Y-8750D01*
X275250Y-9500D02*X276750D01*
X274500Y-8750D02*X275250Y-9500D01*
X282000Y-4250D02*X282750Y-3500D01*
X284250D01*
X285000Y-4250D01*
X284250Y-9500D02*X285000Y-8750D01*
X282750Y-9500D02*X284250D01*
X282000Y-8750D02*X282750Y-9500D01*
Y-6200D02*X284250D01*
X285000Y-4250D02*Y-5450D01*
Y-6950D02*Y-8750D01*
Y-6950D02*X284250Y-6200D01*
X285000Y-5450D02*X284250Y-6200D01*
X286800Y-7250D02*X289800Y-3500D01*
X286800Y-7250D02*X290550D01*
X289800Y-3500D02*Y-9500D01*
X292350Y-8750D02*X293100Y-9500D01*
X292350Y-4250D02*Y-8750D01*
Y-4250D02*X293100Y-3500D01*
X294600D01*
X295350Y-4250D01*
Y-8750D01*
X294600Y-9500D02*X295350Y-8750D01*
X293100Y-9500D02*X294600D01*
X292350Y-8000D02*X295350Y-5000D01*
X297150Y-8750D02*X297900Y-9500D01*
X297150Y-4250D02*Y-8750D01*
Y-4250D02*X297900Y-3500D01*
X299400D01*
X300150Y-4250D01*
Y-8750D01*
X299400Y-9500D02*X300150Y-8750D01*
X297900Y-9500D02*X299400D01*
X297150Y-8000D02*X300150Y-5000D01*
X301950Y-9500D02*X302700D01*
X304500Y-8750D02*X305250Y-9500D01*
X304500Y-4250D02*Y-8750D01*
Y-4250D02*X305250Y-3500D01*
X306750D01*
X307500Y-4250D01*
Y-8750D01*
X306750Y-9500D02*X307500Y-8750D01*
X305250Y-9500D02*X306750D01*
X304500Y-8000D02*X307500Y-5000D01*
X309300Y-8750D02*X310050Y-9500D01*
X309300Y-4250D02*Y-8750D01*
Y-4250D02*X310050Y-3500D01*
X311550D01*
X312300Y-4250D01*
Y-8750D01*
X311550Y-9500D02*X312300Y-8750D01*
X310050Y-9500D02*X311550D01*
X309300Y-8000D02*X312300Y-5000D01*
X314100Y-8750D02*X314850Y-9500D01*
X314100Y-4250D02*Y-8750D01*
Y-4250D02*X314850Y-3500D01*
X316350D01*
X317100Y-4250D01*
Y-8750D01*
X316350Y-9500D02*X317100Y-8750D01*
X314850Y-9500D02*X316350D01*
X314100Y-8000D02*X317100Y-5000D01*
X318900Y-8750D02*X319650Y-9500D01*
X318900Y-4250D02*Y-8750D01*
Y-4250D02*X319650Y-3500D01*
X321150D01*
X321900Y-4250D01*
Y-8750D01*
X321150Y-9500D02*X321900Y-8750D01*
X319650Y-9500D02*X321150D01*
X318900Y-8000D02*X321900Y-5000D01*
X323700Y-8750D02*X324450Y-9500D01*
X323700Y-4250D02*Y-8750D01*
Y-4250D02*X324450Y-3500D01*
X325950D01*
X326700Y-4250D01*
Y-8750D01*
X325950Y-9500D02*X326700Y-8750D01*
X324450Y-9500D02*X325950D01*
X323700Y-8000D02*X326700Y-5000D01*
X328500Y-8750D02*X329250Y-9500D01*
X328500Y-4250D02*Y-8750D01*
Y-4250D02*X329250Y-3500D01*
X330750D01*
X331500Y-4250D01*
Y-8750D01*
X330750Y-9500D02*X331500Y-8750D01*
X329250Y-9500D02*X330750D01*
X328500Y-8000D02*X331500Y-5000D01*
X333300Y-11000D02*X334800Y-9500D01*
X336600Y-4250D02*X337350Y-3500D01*
X339600D01*
X340350Y-4250D01*
Y-5750D01*
X336600Y-9500D02*X340350Y-5750D01*
X336600Y-9500D02*X340350D01*
X342150Y-4700D02*X343350Y-3500D01*
Y-9500D01*
X342150D02*X344400D01*
X346200Y-8750D02*X346950Y-9500D01*
X346200Y-4250D02*Y-8750D01*
Y-4250D02*X346950Y-3500D01*
X348450D01*
X349200Y-4250D01*
Y-8750D01*
X348450Y-9500D02*X349200Y-8750D01*
X346950Y-9500D02*X348450D01*
X346200Y-8000D02*X349200Y-5000D01*
X351000Y-8750D02*X351750Y-9500D01*
X351000Y-4250D02*Y-8750D01*
Y-4250D02*X351750Y-3500D01*
X353250D01*
X354000Y-4250D01*
Y-8750D01*
X353250Y-9500D02*X354000Y-8750D01*
X351750Y-9500D02*X353250D01*
X351000Y-8000D02*X354000Y-5000D01*
X355800Y-9500D02*X356550D01*
X358350Y-8750D02*X359100Y-9500D01*
X358350Y-4250D02*Y-8750D01*
Y-4250D02*X359100Y-3500D01*
X360600D01*
X361350Y-4250D01*
Y-8750D01*
X360600Y-9500D02*X361350Y-8750D01*
X359100Y-9500D02*X360600D01*
X358350Y-8000D02*X361350Y-5000D01*
X363150Y-8750D02*X363900Y-9500D01*
X363150Y-4250D02*Y-8750D01*
Y-4250D02*X363900Y-3500D01*
X365400D01*
X366150Y-4250D01*
Y-8750D01*
X365400Y-9500D02*X366150Y-8750D01*
X363900Y-9500D02*X365400D01*
X363150Y-8000D02*X366150Y-5000D01*
X367950Y-8750D02*X368700Y-9500D01*
X367950Y-4250D02*Y-8750D01*
Y-4250D02*X368700Y-3500D01*
X370200D01*
X370950Y-4250D01*
Y-8750D01*
X370200Y-9500D02*X370950Y-8750D01*
X368700Y-9500D02*X370200D01*
X367950Y-8000D02*X370950Y-5000D01*
X372750Y-8750D02*X373500Y-9500D01*
X372750Y-4250D02*Y-8750D01*
Y-4250D02*X373500Y-3500D01*
X375000D01*
X375750Y-4250D01*
Y-8750D01*
X375000Y-9500D02*X375750Y-8750D01*
X373500Y-9500D02*X375000D01*
X372750Y-8000D02*X375750Y-5000D01*
X377550Y-8750D02*X378300Y-9500D01*
X377550Y-4250D02*Y-8750D01*
Y-4250D02*X378300Y-3500D01*
X379800D01*
X380550Y-4250D01*
Y-8750D01*
X379800Y-9500D02*X380550Y-8750D01*
X378300Y-9500D02*X379800D01*
X377550Y-8000D02*X380550Y-5000D01*
X382350Y-8750D02*X383100Y-9500D01*
X382350Y-4250D02*Y-8750D01*
Y-4250D02*X383100Y-3500D01*
X384600D01*
X385350Y-4250D01*
Y-8750D01*
X384600Y-9500D02*X385350Y-8750D01*
X383100Y-9500D02*X384600D01*
X382350Y-8000D02*X385350Y-5000D01*
X390600Y-7250D02*Y-9500D01*
Y-7250D02*X391350Y-6500D01*
X392100D01*
X392850Y-7250D01*
Y-9500D01*
Y-7250D02*X393600Y-6500D01*
X394350D01*
X395100Y-7250D01*
Y-9500D01*
X389850Y-6500D02*X390600Y-7250D01*
G54D55*X396900Y-5000D02*Y-5150D01*
G54D54*Y-7250D02*Y-9500D01*
X398400Y-3500D02*Y-8750D01*
X399150Y-9500D01*
X401401D02*X403651D01*
X404401Y-8750D01*
X403651Y-8000D02*X404401Y-8750D01*
X401401Y-8000D02*X403651D01*
X400651Y-7250D02*X401401Y-8000D01*
X400651Y-7250D02*X401401Y-6500D01*
X403651D01*
X404401Y-7250D01*
X400651Y-8750D02*X401401Y-9500D01*
X200750Y238500D02*Y232500D01*
X202700Y238500D02*X203750Y237450D01*
Y233550D01*
X202700Y232500D02*X203750Y233550D01*
X200000Y232500D02*X202700D01*
X200000Y238500D02*X202700D01*
X207800Y235500D02*X208550Y234750D01*
X206300Y235500D02*X207800D01*
X205550Y234750D02*X206300Y235500D01*
X205550Y234750D02*Y233250D01*
X206300Y232500D01*
X208550Y235500D02*Y233250D01*
X209300Y232500D01*
X206300D02*X207800D01*
X208550Y233250D01*
X211850Y238500D02*Y233250D01*
X212600Y232500D01*
X211100Y236250D02*X212600D01*
X214850Y232500D02*X217100D01*
X214100Y233250D02*X214850Y232500D01*
X214100Y234750D02*Y233250D01*
Y234750D02*X214850Y235500D01*
X216350D01*
X217100Y234750D01*
X214100Y234000D02*X217100D01*
Y234750D01*
X218900Y236250D02*X219650D01*
X218900Y234750D02*X219650D01*
X224150Y237750D02*X224900Y238500D01*
X227150D01*
X227900Y237750D01*
Y236250D01*
X224150Y232500D02*X227900Y236250D01*
X224150Y232500D02*X227900D01*
X229700Y233250D02*X230450Y232500D01*
X229700Y237750D02*Y233250D01*
Y237750D02*X230450Y238500D01*
X231950D01*
X232700Y237750D01*
Y233250D01*
X231950Y232500D02*X232700Y233250D01*
X230450Y232500D02*X231950D01*
X229700Y234000D02*X232700Y237000D01*
X234500Y237750D02*X235250Y238500D01*
X237500D01*
X238250Y237750D01*
Y236250D01*
X234500Y232500D02*X238250Y236250D01*
X234500Y232500D02*X238250D01*
X242300Y238500D02*X243050Y237750D01*
X240800Y238500D02*X242300D01*
X240050Y237750D02*X240800Y238500D01*
X240050Y237750D02*Y233250D01*
X240800Y232500D01*
X242300Y235800D02*X243050Y235050D01*
X240050Y235800D02*X242300D01*
X240800Y232500D02*X242300D01*
X243050Y233250D01*
Y235050D02*Y233250D01*
X244850Y235500D02*X247850D01*
X249650Y233250D02*X250400Y232500D01*
X249650Y237750D02*Y233250D01*
Y237750D02*X250400Y238500D01*
X251900D01*
X252650Y237750D01*
Y233250D01*
X251900Y232500D02*X252650Y233250D01*
X250400Y232500D02*X251900D01*
X249650Y234000D02*X252650Y237000D01*
X254450Y234750D02*X257450Y238500D01*
X254450Y234750D02*X258200D01*
X257450Y238500D02*Y232500D01*
X260000Y235500D02*X263000D01*
X264800Y233250D02*X265550Y232500D01*
X264800Y237750D02*Y233250D01*
Y237750D02*X265550Y238500D01*
X267050D01*
X267800Y237750D01*
Y233250D01*
X267050Y232500D02*X267800Y233250D01*
X265550Y232500D02*X267050D01*
X264800Y234000D02*X267800Y237000D01*
X271850Y238500D02*X272600Y237750D01*
X270350Y238500D02*X271850D01*
X269600Y237750D02*X270350Y238500D01*
X269600Y237750D02*Y233250D01*
X270350Y232500D01*
X271850Y235800D02*X272600Y235050D01*
X269600Y235800D02*X271850D01*
X270350Y232500D02*X271850D01*
X272600Y233250D01*
Y235050D02*Y233250D01*
X277100Y237750D02*X277850Y238500D01*
X280100D01*
X280850Y237750D01*
Y236250D01*
X277100Y232500D02*X280850Y236250D01*
X277100Y232500D02*X280850D01*
X282650Y233250D02*X283400Y232500D01*
X282650Y237750D02*Y233250D01*
Y237750D02*X283400Y238500D01*
X284900D01*
X285650Y237750D01*
Y233250D01*
X284900Y232500D02*X285650Y233250D01*
X283400Y232500D02*X284900D01*
X282650Y234000D02*X285650Y237000D01*
X287450Y236250D02*X288200D01*
X287450Y234750D02*X288200D01*
X290000Y237300D02*X291200Y238500D01*
Y232500D01*
X290000D02*X292250D01*
X294800D02*X297800Y238500D01*
X294050D02*X297800D01*
X299600Y236250D02*X300350D01*
X299600Y234750D02*X300350D01*
X302150Y238500D02*X305150D01*
X302150D02*Y235500D01*
X302900Y236250D01*
X304400D01*
X305150Y235500D01*
Y233250D01*
X304400Y232500D02*X305150Y233250D01*
X302900Y232500D02*X304400D01*
X302150Y233250D02*X302900Y232500D01*
X306950Y233250D02*X307700Y232500D01*
X306950Y234450D02*Y233250D01*
Y234450D02*X308000Y235500D01*
X308900D01*
X309950Y234450D01*
Y233250D01*
X309200Y232500D02*X309950Y233250D01*
X307700Y232500D02*X309200D01*
X306950Y236550D02*X308000Y235500D01*
X306950Y237750D02*Y236550D01*
Y237750D02*X307700Y238500D01*
X309200D01*
X309950Y237750D01*
Y236550D01*
X308900Y235500D02*X309950Y236550D01*
X314450Y238500D02*Y233250D01*
X315200Y232500D01*
X316700D01*
X317450Y233250D01*
Y238500D02*Y233250D01*
X319250Y238500D02*X322250D01*
X320750D02*Y232500D01*
X325100D02*X327050D01*
X324050Y233550D02*X325100Y232500D01*
X324050Y237450D02*Y233550D01*
Y237450D02*X325100Y238500D01*
X327050D01*
X200000Y252000D02*Y247500D01*
Y252000D02*X201050Y253500D01*
X202700D01*
X203750Y252000D01*
Y247500D01*
X200000Y250500D02*X203750D01*
X205550D02*Y248250D01*
X206300Y247500D01*
X207800D01*
X208550Y248250D01*
Y250500D02*Y248250D01*
X211100Y253500D02*Y248250D01*
X211850Y247500D01*
X210350Y251250D02*X211850D01*
X213350Y253500D02*Y247500D01*
Y249750D02*X214100Y250500D01*
X215600D01*
X216350Y249750D01*
Y247500D01*
X218150Y249750D02*Y248250D01*
Y249750D02*X218900Y250500D01*
X220400D01*
X221150Y249750D01*
Y248250D01*
X220400Y247500D02*X221150Y248250D01*
X218900Y247500D02*X220400D01*
X218150Y248250D02*X218900Y247500D01*
X223700Y249750D02*Y247500D01*
Y249750D02*X224450Y250500D01*
X225950D01*
X222950D02*X223700Y249750D01*
X227750Y251250D02*X228500D01*
X227750Y249750D02*X228500D01*
X233000Y252000D02*Y247500D01*
Y252000D02*X234050Y253500D01*
X235700D01*
X236750Y252000D01*
Y247500D01*
X233000Y250500D02*X236750D01*
X238550Y253500D02*Y248250D01*
X239300Y247500D01*
X241550D02*X243800D01*
X240800Y248250D02*X241550Y247500D01*
X240800Y249750D02*Y248250D01*
Y249750D02*X241550Y250500D01*
X243050D01*
X243800Y249750D01*
X240800Y249000D02*X243800D01*
Y249750D01*
X245600Y250500D02*X248600Y247500D01*
X245600D02*X248600Y250500D01*
X254150Y253500D02*X255350D01*
Y248250D01*
X254600Y247500D02*X255350Y248250D01*
X253850Y247500D02*X254600D01*
X253100Y248250D02*X253850Y247500D01*
X253100Y248250D02*Y249000D01*
X257150Y249750D02*Y248250D01*
Y249750D02*X257900Y250500D01*
X259400D01*
X260150Y249750D01*
Y248250D01*
X259400Y247500D02*X260150Y248250D01*
X257900Y247500D02*X259400D01*
X257150Y248250D02*X257900Y247500D01*
X261950Y253500D02*Y247500D01*
Y249750D02*X264200Y247500D01*
X261950Y249750D02*X263450Y251250D01*
X266750Y247500D02*X269000D01*
X266000Y248250D02*X266750Y247500D01*
X266000Y249750D02*Y248250D01*
Y249750D02*X266750Y250500D01*
X268250D01*
X269000Y249750D01*
X266000Y249000D02*X269000D01*
Y249750D01*
X270800Y253500D02*Y248250D01*
X271550Y247500D01*
X275300Y250500D02*X276050Y249750D01*
X273800Y250500D02*X275300D01*
X273050Y249750D02*X273800Y250500D01*
X273050Y249750D02*Y248250D01*
X273800Y247500D01*
X276050Y250500D02*Y248250D01*
X276800Y247500D01*
X273800D02*X275300D01*
X276050Y248250D01*
X200000Y268500D02*X203000D01*
X201500D02*Y262500D01*
G54D55*X204800Y267000D02*Y266850D01*
G54D54*Y264750D02*Y262500D01*
X207050Y268500D02*Y263250D01*
X207800Y262500D01*
X206300Y266250D02*X207800D01*
X209300Y268500D02*Y263250D01*
X210050Y262500D01*
X212300D02*X214550D01*
X211550Y263250D02*X212300Y262500D01*
X211550Y264750D02*Y263250D01*
Y264750D02*X212300Y265500D01*
X213800D01*
X214550Y264750D01*
X211550Y264000D02*X214550D01*
Y264750D01*
X216350Y266250D02*X217100D01*
X216350Y264750D02*X217100D01*
X221600Y263250D02*X222350Y262500D01*
X221600Y267750D02*X222350Y268500D01*
X221600Y267750D02*Y263250D01*
X224150Y265500D02*Y263250D01*
X224900Y262500D01*
X226400D01*
X227150Y263250D01*
Y265500D02*Y263250D01*
X229700Y264750D02*Y262500D01*
Y264750D02*X230450Y265500D01*
X231200D01*
X231950Y264750D01*
Y262500D01*
X228950Y265500D02*X229700Y264750D01*
X233750Y268500D02*Y262500D01*
Y264750D02*X236000Y262500D01*
X233750Y264750D02*X235250Y266250D01*
X238550Y264750D02*Y262500D01*
Y264750D02*X239300Y265500D01*
X240050D01*
X240800Y264750D01*
Y262500D01*
X237800Y265500D02*X238550Y264750D01*
X242600D02*Y263250D01*
Y264750D02*X243350Y265500D01*
X244850D01*
X245600Y264750D01*
Y263250D01*
X244850Y262500D02*X245600Y263250D01*
X243350Y262500D02*X244850D01*
X242600Y263250D02*X243350Y262500D01*
X247400Y265500D02*Y263250D01*
X248150Y262500D01*
X248900D01*
X249650Y263250D01*
Y265500D02*Y263250D01*
X250400Y262500D01*
X251150D01*
X251900Y263250D01*
Y265500D02*Y263250D01*
X254450Y264750D02*Y262500D01*
Y264750D02*X255200Y265500D01*
X255950D01*
X256700Y264750D01*
Y262500D01*
X253700Y265500D02*X254450Y264750D01*
X258500Y268500D02*X259250Y267750D01*
Y263250D01*
X258500Y262500D02*X259250Y263250D01*
X263750Y265500D02*X266750D01*
X271250Y268500D02*Y262500D01*
Y268500D02*X274250D01*
X271250Y265800D02*X273500D01*
X278300Y265500D02*X279050Y264750D01*
X276800Y265500D02*X278300D01*
X276050Y264750D02*X276800Y265500D01*
X276050Y264750D02*Y263250D01*
X276800Y262500D01*
X279050Y265500D02*Y263250D01*
X279800Y262500D01*
X276800D02*X278300D01*
X279050Y263250D01*
X281600Y268500D02*Y262500D01*
Y263250D02*X282350Y262500D01*
X283850D01*
X284600Y263250D01*
Y264750D02*Y263250D01*
X283850Y265500D02*X284600Y264750D01*
X282350Y265500D02*X283850D01*
X281600Y264750D02*X282350Y265500D01*
X287150Y264750D02*Y262500D01*
Y264750D02*X287900Y265500D01*
X289400D01*
X286400D02*X287150Y264750D01*
G54D55*X291200Y267000D02*Y266850D01*
G54D54*Y264750D02*Y262500D01*
X293450Y265500D02*X295700D01*
X292700Y264750D02*X293450Y265500D01*
X292700Y264750D02*Y263250D01*
X293450Y262500D01*
X295700D01*
X299750Y265500D02*X300500Y264750D01*
X298250Y265500D02*X299750D01*
X297500Y264750D02*X298250Y265500D01*
X297500Y264750D02*Y263250D01*
X298250Y262500D01*
X300500Y265500D02*Y263250D01*
X301250Y262500D01*
X298250D02*X299750D01*
X300500Y263250D01*
X303800Y268500D02*Y263250D01*
X304550Y262500D01*
X303050Y266250D02*X304550D01*
G54D55*X306050Y267000D02*Y266850D01*
G54D54*Y264750D02*Y262500D01*
X307550Y264750D02*Y263250D01*
Y264750D02*X308300Y265500D01*
X309800D01*
X310550Y264750D01*
Y263250D01*
X309800Y262500D02*X310550Y263250D01*
X308300Y262500D02*X309800D01*
X307550Y263250D02*X308300Y262500D01*
X313100Y264750D02*Y262500D01*
Y264750D02*X313850Y265500D01*
X314600D01*
X315350Y264750D01*
Y262500D01*
X312350Y265500D02*X313100Y264750D01*
X320600Y268500D02*Y262500D01*
X322550Y268500D02*X323600Y267450D01*
Y263550D01*
X322550Y262500D02*X323600Y263550D01*
X319850Y262500D02*X322550D01*
X319850Y268500D02*X322550D01*
X326150Y264750D02*Y262500D01*
Y264750D02*X326900Y265500D01*
X328400D01*
X325400D02*X326150Y264750D01*
X332450Y265500D02*X333200Y264750D01*
X330950Y265500D02*X332450D01*
X330200Y264750D02*X330950Y265500D01*
X330200Y264750D02*Y263250D01*
X330950Y262500D01*
X333200Y265500D02*Y263250D01*
X333950Y262500D01*
X330950D02*X332450D01*
X333200Y263250D01*
X335750Y265500D02*Y263250D01*
X336500Y262500D01*
X337250D01*
X338000Y263250D01*
Y265500D02*Y263250D01*
X338750Y262500D01*
X339500D01*
X340250Y263250D01*
Y265500D02*Y263250D01*
G54D55*X342050Y267000D02*Y266850D01*
G54D54*Y264750D02*Y262500D01*
X344300Y264750D02*Y262500D01*
Y264750D02*X345050Y265500D01*
X345800D01*
X346550Y264750D01*
Y262500D01*
X343550Y265500D02*X344300Y264750D01*
X350600Y265500D02*X351350Y264750D01*
X349100Y265500D02*X350600D01*
X348350Y264750D02*X349100Y265500D01*
X348350Y264750D02*Y263250D01*
X349100Y262500D01*
X350600D01*
X351350Y263250D01*
X348350Y261000D02*X349100Y260250D01*
X350600D01*
X351350Y261000D01*
Y265500D02*Y261000D01*
M02*
