G04 start of page 6 for group 7 layer_idx 6 *
G04 Title: (unknown), bottom_mask *
G04 Creator: pcb-rnd 3.1.4 *
G04 CreationDate: 2026-04-07 01:30:34 UTC *
G04 For: Alex Jokela *
G04 Format: Gerber/RS-274X *
G04 PCB-Dimensions: 340000 210000 *
G04 PCB-Coordinate-Origin: lower left *
%MOIN*%
%FSLAX25Y25*%
%LNBOTTOM_MASK_NONE_7*%
%ADD37C,0.0710*%
%ADD36C,0.0420*%
%ADD35C,0.0660*%
%ADD34C,0.0001*%
G54D34*G36*
X6700Y203300D02*X13300D01*
Y196700D01*
X6700D01*
Y203300D01*
G37*
G54D35*X10000Y190000D03*
Y180000D03*
Y170000D03*
Y160000D03*
G54D36*X30259Y158139D03*
X42787Y160720D03*
X58548Y160421D03*
Y181252D03*
G54D34*G36*
X256543Y203300D02*X263143D01*
Y196700D01*
X256543D01*
Y203300D01*
G37*
G54D35*X259843Y190000D03*
G54D34*G36*
X225046Y203300D02*X231646D01*
Y196700D01*
X225046D01*
Y203300D01*
G37*
G54D35*X238346Y200000D03*
X228346Y190000D03*
X238346D03*
X259843Y180000D03*
X228346D03*
X238346D03*
G54D36*X76290Y178983D03*
X150190Y188496D03*
G54D35*X259843Y170000D03*
X228346D03*
X238346D03*
X259843Y160000D03*
X228346D03*
X238346D03*
X259843Y150000D03*
X228346D03*
X238346D03*
G54D36*X198766Y152464D03*
X156420Y154999D03*
G54D34*G36*
X51450Y203550D02*X58550D01*
Y196450D01*
X51450D01*
Y203550D01*
G37*
G54D37*X65000Y200000D03*
G54D34*G36*
X116700Y203300D02*X123300D01*
Y196700D01*
X116700D01*
Y203300D01*
G37*
G54D35*X180000Y200000D03*
X120000Y190000D03*
Y180000D03*
Y170000D03*
Y160000D03*
Y150000D03*
X180000D03*
Y160000D03*
Y170000D03*
Y180000D03*
Y190000D03*
X120000Y140000D03*
X180000D03*
G54D36*X85839Y147178D03*
X135489Y135775D03*
G54D35*X120000Y130000D03*
X180000D03*
X120000Y120000D03*
Y110000D03*
Y100000D03*
G54D36*X104210Y110685D03*
G54D35*X120000Y90000D03*
Y80000D03*
Y70000D03*
Y60000D03*
G54D36*X62495Y62800D03*
G54D35*X120000Y50000D03*
X180000Y60000D03*
Y70000D03*
Y50000D03*
Y80000D03*
Y90000D03*
Y100000D03*
Y110000D03*
Y120000D03*
X120000Y40000D03*
X180000D03*
X120000Y30000D03*
X180000D03*
X120000Y20000D03*
Y10000D03*
X180000D03*
Y20000D03*
X20000Y170000D03*
Y180000D03*
Y190000D03*
Y200000D03*
X10000Y150000D03*
X20000D03*
Y160000D03*
X10000Y140000D03*
X20000D03*
X259843D03*
G54D36*X208389Y144239D03*
G54D35*X319843Y140000D03*
Y150000D03*
Y160000D03*
Y170000D03*
Y180000D03*
Y190000D03*
Y200000D03*
X10000Y130000D03*
X20000D03*
G54D36*X32459Y102293D03*
G54D35*X259843Y130000D03*
X319843D03*
G54D36*X194156Y125111D03*
X229974D03*
X207089Y116449D03*
X193994Y116457D03*
X209600Y120453D03*
G54D35*X259843Y120000D03*
Y110000D03*
Y100000D03*
Y90000D03*
Y80000D03*
X319843D03*
Y90000D03*
Y100000D03*
Y110000D03*
Y120000D03*
X259843Y70000D03*
X319843D03*
G54D36*X199776Y75286D03*
X208176Y80000D03*
X37647D03*
X197500Y81012D03*
G54D35*X259843Y60000D03*
X319843D03*
X259843Y50000D03*
Y40000D03*
Y30000D03*
Y20000D03*
Y10000D03*
X319843D03*
Y20000D03*
Y30000D03*
Y40000D03*
Y50000D03*
G54D36*X223992Y28102D03*
X220118Y16578D03*
G54D35*X10000Y120000D03*
Y110000D03*
Y100000D03*
Y90000D03*
Y80000D03*
Y70000D03*
Y60000D03*
X20000Y70000D03*
Y80000D03*
Y90000D03*
Y100000D03*
X10000Y50000D03*
X20000D03*
Y60000D03*
Y110000D03*
Y120000D03*
X10000Y40000D03*
X20000D03*
X10000Y30000D03*
X20000D03*
M02*
