M48
INCH
T14C0.043
T13C0.028
T12C0.020
T11C0.038
%
T12
G05
X004449Y015971
X004027Y017365
X011348Y019644
X010868Y019651
X012891Y017937
X008810Y017882
X013844Y018065
X021718Y017151
X014154Y017194
X008743Y017221
X016356Y016356
X013020Y015691
X011064Y015271
X015397Y016686
X016819Y015926
X020714Y015039
X024440Y014942
X014772Y013644
X014331Y014369
X014689Y014700
X010503Y013094
X005003Y013467
X008851Y011799
X009084Y013393
X011373Y013094
X012592Y011165
X018860Y011199
X016333Y011629
X019054Y008540
X015909Y008292
X017395Y007525
X024710Y014275
X025298Y014176
X026485Y015676
X030844Y020000
X029023Y020415
X027762Y020000
X003227Y011125
X004560Y013042
X025129Y012054
X022082Y012354
X019214Y009549
X020809Y010925
X021275Y011087
X021882Y009531
X019493Y010402
X021691Y009000
X023785Y009949
X024461Y013412
X020992Y013594
X026531Y013500
X031465Y008628
X028914Y007500
X020605Y007500
X004713Y008760
X023204Y002401
X001790Y001146
X022249Y001146
T13
X025984Y020000
X025984Y019000
X025984Y018000
X025984Y017000
X025984Y016000
X025984Y015000
X012000Y020000
X018000Y020000
X012000Y019000
X012000Y018000
X012000Y017000
X012000Y016000
X012000Y015000
X018000Y015000
X018000Y016000
X018000Y017000
X018000Y018000
X018000Y019000
X012000Y014000
X018000Y014000
X012000Y013000
X018000Y013000
X012000Y012000
X012000Y011000
X012000Y010000
X012000Y009000
X012000Y008000
X012000Y007000
X012000Y006000
X012000Y005000
X018000Y006000
X018000Y007000
X018000Y005000
X018000Y008000
X018000Y009000
X018000Y010000
X018000Y011000
X018000Y012000
X012000Y004000
X018000Y004000
X012000Y003000
X018000Y003000
X012000Y002000
X012000Y001000
X018000Y001000
X018000Y002000
X025984Y014000
X031984Y014000
X031984Y015000
X031984Y016000
X031984Y017000
X031984Y018000
X031984Y019000
X031984Y020000
X025984Y013000
X031984Y013000
X025984Y012000
X025984Y011000
X025984Y010000
X025984Y009000
X025984Y008000
X031984Y009000
X031984Y010000
X031984Y008000
X031984Y011000
X031984Y012000
X025984Y007000
X031984Y007000
X025984Y006000
X031984Y006000
X025984Y005000
X025984Y004000
X025984Y003000
X025984Y002000
X025984Y001000
X031984Y001000
X031984Y002000
X031984Y003000
X031984Y004000
X031984Y005000
T11
X001000Y020000
X001000Y019000
X001000Y018000
X001000Y017000
X001000Y016000
X022835Y020000
X023835Y020000
X022835Y019000
X023835Y019000
X022835Y018000
X023835Y018000
X022835Y017000
X023835Y017000
X022835Y016000
X023835Y016000
X022835Y015000
X023835Y015000
X002000Y017000
X002000Y018000
X002000Y019000
X002000Y020000
X001000Y015000
X002000Y015000
X002000Y016000
X001000Y014000
X002000Y014000
X001000Y013000
X002000Y013000
X001000Y012000
X001000Y011000
X001000Y010000
X001000Y009000
X001000Y008000
X001000Y007000
X001000Y006000
X002000Y007000
X002000Y008000
X002000Y009000
X002000Y010000
X001000Y005000
X002000Y005000
X002000Y006000
X002000Y011000
X002000Y012000
X001000Y004000
X002000Y004000
X001000Y003000
X002000Y003000
T14
X005500Y020000
X006500Y020000
M30
