G04 start of page 6 for group 7 layer_idx 6 *
G04 Title: (unknown), bottom_mask *
G04 Creator: pcb-rnd 3.1.4 *
G04 CreationDate: 2026-04-06 20:24:15 UTC *
G04 For: Alex Jokela *
G04 Format: Gerber/RS-274X *
G04 PCB-Dimensions: 340000 210000 *
G04 PCB-Coordinate-Origin: lower left *
%MOIN*%
%FSLAX25Y25*%
%LNBOTTOM_MASK_NONE_7*%
%ADD43C,0.0710*%
%ADD42C,0.0001*%
%ADD41C,0.0420*%
%ADD40C,0.0660*%
G54D40*X100000Y200000D03*
Y190000D03*
Y180000D03*
G54D41*X109305Y175493D03*
X80959Y177702D03*
X75365Y180902D03*
G54D40*X100000Y170000D03*
Y160000D03*
G54D41*X111649Y187335D03*
G54D42*G36*
X51450Y203550D02*X58550D01*
Y196450D01*
X51450D01*
Y203550D01*
G37*
G54D41*X44447Y179931D03*
G54D43*X65000Y200000D03*
G54D42*G36*
X6700Y203300D02*X13300D01*
Y196700D01*
X6700D01*
Y203300D01*
G37*
G54D40*X20000Y200000D03*
X10000Y190000D03*
Y180000D03*
Y170000D03*
Y160000D03*
X20000D03*
Y170000D03*
Y180000D03*
Y190000D03*
G54D41*X29361Y178766D03*
X26408Y193509D03*
X165535Y191139D03*
X163493Y165072D03*
X159036Y169051D03*
X170356Y173237D03*
G54D40*X180000Y160000D03*
Y170000D03*
Y180000D03*
Y190000D03*
Y200000D03*
G54D41*X147618Y161047D03*
G54D40*X200000Y200000D03*
Y190000D03*
G54D42*G36*
X225046Y203300D02*X231646D01*
Y196700D01*
X225046D01*
Y203300D01*
G37*
G54D41*X221492Y198809D03*
G54D42*G36*
X256543Y203300D02*X263143D01*
Y196700D01*
X256543D01*
Y203300D01*
G37*
G54D40*X238346Y200000D03*
X228346Y190000D03*
X238346D03*
X228346Y180000D03*
X238346D03*
X228346Y170000D03*
Y160000D03*
G54D41*X191839Y158709D03*
G54D40*X238346Y170000D03*
Y160000D03*
X259843Y190000D03*
Y180000D03*
Y170000D03*
Y160000D03*
G54D42*G36*
X116700Y203300D02*X123300D01*
Y196700D01*
X116700D01*
Y203300D01*
G37*
G54D40*X120000Y190000D03*
G54D41*X127756Y189589D03*
G54D40*X120000Y180000D03*
Y170000D03*
Y160000D03*
X10000Y150000D03*
X20000D03*
X100000D03*
X120000D03*
X180000D03*
X259843D03*
X228346D03*
G54D41*X218163Y150596D03*
G54D40*X238346Y150000D03*
X200000Y180000D03*
Y170000D03*
Y160000D03*
Y150000D03*
G54D41*X64579Y126190D03*
X47114Y145808D03*
G54D40*X100000Y140000D03*
X120000D03*
Y130000D03*
G54D41*X126844Y147326D03*
X129428Y52539D03*
X152064Y20836D03*
X123409Y65185D03*
X172025Y38710D03*
G54D40*X200000Y140000D03*
X180000D03*
G54D41*X159519Y137550D03*
G54D40*X180000Y130000D03*
G54D41*X173293Y102505D03*
G54D40*X259843Y140000D03*
X319843Y150000D03*
Y160000D03*
Y140000D03*
Y170000D03*
Y180000D03*
Y190000D03*
Y200000D03*
G54D41*X299213Y174531D03*
G54D40*X259843Y130000D03*
X319843D03*
G54D41*X225720Y125454D03*
X230372Y119190D03*
G54D40*X259843Y120000D03*
X319843D03*
G54D41*X265141Y124507D03*
G54D40*X259843Y110000D03*
Y100000D03*
Y90000D03*
Y80000D03*
G54D41*X207587Y78976D03*
X208106Y100283D03*
X214179Y77207D03*
X216950Y97423D03*
G54D40*X259843Y70000D03*
Y60000D03*
Y50000D03*
G54D41*X209350Y111893D03*
X220024Y45404D03*
X253991Y59702D03*
X222407Y71972D03*
G54D40*X259843Y40000D03*
X319843Y50000D03*
Y60000D03*
Y40000D03*
Y70000D03*
Y80000D03*
Y90000D03*
Y100000D03*
Y110000D03*
G54D41*X331028Y45404D03*
G54D40*X259843Y30000D03*
X319843D03*
G54D41*X218743Y28158D03*
G54D40*X259843Y20000D03*
X319843D03*
X259843Y10000D03*
X319843D03*
G54D41*X37308Y13609D03*
X62383Y39775D03*
X36688Y91709D03*
X45660Y103596D03*
X87051Y96134D03*
X93487Y124537D03*
X80995Y118819D03*
X75009Y115451D03*
G54D40*X10000Y140000D03*
X20000D03*
X10000Y130000D03*
X20000D03*
G54D41*X32275Y102303D03*
X32826Y135199D03*
X26276Y111563D03*
G54D40*X100000Y130000D03*
X120000Y120000D03*
Y110000D03*
X200000Y130000D03*
X180000Y120000D03*
Y110000D03*
X120000Y100000D03*
Y90000D03*
Y80000D03*
Y70000D03*
Y60000D03*
Y50000D03*
Y40000D03*
Y30000D03*
X180000D03*
Y70000D03*
Y80000D03*
Y90000D03*
Y100000D03*
Y40000D03*
Y50000D03*
Y60000D03*
X10000Y120000D03*
X20000D03*
X10000Y110000D03*
X20000D03*
X10000Y100000D03*
Y90000D03*
Y80000D03*
Y70000D03*
Y60000D03*
Y50000D03*
Y40000D03*
Y30000D03*
X20000D03*
Y40000D03*
Y50000D03*
Y60000D03*
Y70000D03*
Y80000D03*
Y90000D03*
Y100000D03*
X100000Y120000D03*
Y110000D03*
Y100000D03*
Y90000D03*
Y80000D03*
Y70000D03*
X200000Y120000D03*
X100000Y60000D03*
Y50000D03*
Y40000D03*
Y30000D03*
Y20000D03*
Y10000D03*
X120000Y20000D03*
Y10000D03*
X180000D03*
Y20000D03*
G54D41*X177659Y4179D03*
G54D40*X200000Y110000D03*
Y100000D03*
Y90000D03*
Y80000D03*
Y70000D03*
Y60000D03*
Y50000D03*
Y40000D03*
Y30000D03*
Y20000D03*
Y10000D03*
M02*
