M48
INCH
T14C0.028
T13C0.043
T12C0.038
T11C0.020
%
T11
G05
X004500Y020000
X007750Y019000
X007750Y020000
X010930Y017549
X008096Y017770
X007537Y018090
X011165Y018734
X004445Y017993
X002936Y017877
X002641Y019351
X017000Y019500
X016250Y018500
X014750Y018000
X014750Y019000
X016554Y019114
X015500Y017500
X015500Y016000
X016349Y016507
X015904Y016905
X017036Y017324
X014762Y016105
X022149Y019881
X019184Y015871
X013250Y019500
X012776Y018959
X007000Y015000
X016250Y015000
X021816Y015060
X006000Y014000
X006500Y014500
X006250Y013500
X006458Y012619
X004711Y014581
X012684Y014733
X012943Y005254
X015206Y002084
X012341Y006518
X017203Y003871
X017000Y014000
X016500Y013500
X015952Y013755
X017329Y010251
X029921Y017453
X022572Y012545
X023037Y011919
X026514Y012451
X020759Y007898
X020811Y010028
X021418Y007721
X021695Y009742
X020935Y011189
X022002Y004540
X025399Y005970
X022241Y007197
X033103Y004540
X021874Y002816
X005500Y013500
X003731Y001361
X006238Y003978
X003669Y009171
X004566Y010360
X007500Y013800
X008705Y009613
X009349Y012454
X008099Y011882
X007501Y011545
X003228Y010230
X003283Y013520
X002628Y011156
X005750Y012500
X005000Y012000
X005750Y011000
X008500Y010750
X013250Y012000
X014500Y011500
X014500Y012500
X016000Y013000
X016000Y012000
X013500Y013250
X011000Y011250
X008250Y009000
X008250Y008000
X008250Y007000
X008250Y006000
X012750Y009000
X013750Y007500
X013000Y009500
X014000Y006750
X014000Y004000
X016500Y004000
X013500Y001500
X016000Y001500
X017766Y000418
T14
X018000Y016000
X018000Y017000
X018000Y018000
X018000Y019000
X018000Y020000
X025984Y020000
X025984Y019000
X025984Y018000
X025984Y017000
X025984Y016000
X012000Y020000
X012000Y019000
X012000Y018000
X012000Y017000
X012000Y016000
X012000Y015000
X018000Y015000
X025984Y015000
X012000Y014000
X012000Y013000
X018000Y014000
X018000Y013000
X025984Y014000
X031984Y015000
X031984Y016000
X031984Y014000
X031984Y017000
X031984Y018000
X031984Y019000
X031984Y020000
X025984Y013000
X031984Y013000
X025984Y012000
X031984Y012000
X025984Y011000
X025984Y010000
X025984Y009000
X025984Y008000
X025984Y007000
X025984Y006000
X025984Y005000
X025984Y004000
X031984Y005000
X031984Y006000
X031984Y004000
X031984Y007000
X031984Y008000
X031984Y009000
X031984Y010000
X031984Y011000
X025984Y003000
X031984Y003000
X025984Y002000
X031984Y002000
X025984Y001000
X031984Y001000
X012000Y012000
X012000Y011000
X018000Y012000
X018000Y011000
X012000Y010000
X012000Y009000
X012000Y008000
X012000Y007000
X012000Y006000
X012000Y005000
X012000Y004000
X012000Y003000
X018000Y003000
X018000Y007000
X018000Y008000
X018000Y009000
X018000Y010000
X018000Y004000
X018000Y005000
X018000Y006000
X012000Y002000
X012000Y001000
X018000Y001000
X018000Y002000
T12
X010000Y020000
X010000Y019000
X010000Y018000
X010000Y017000
X010000Y016000
X001000Y020000
X002000Y020000
X001000Y019000
X001000Y018000
X001000Y017000
X001000Y016000
X002000Y016000
X002000Y017000
X002000Y018000
X002000Y019000
X020000Y020000
X020000Y019000
X022835Y020000
X023835Y020000
X022835Y019000
X023835Y019000
X022835Y018000
X023835Y018000
X022835Y017000
X022835Y016000
X023835Y017000
X023835Y016000
X001000Y015000
X002000Y015000
X010000Y015000
X022835Y015000
X023835Y015000
X020000Y018000
X020000Y017000
X020000Y016000
X020000Y015000
X010000Y014000
X020000Y014000
X001000Y014000
X002000Y014000
X001000Y013000
X002000Y013000
X010000Y013000
X020000Y013000
X001000Y012000
X002000Y012000
X001000Y011000
X002000Y011000
X001000Y010000
X001000Y009000
X001000Y008000
X001000Y007000
X001000Y006000
X001000Y005000
X001000Y004000
X001000Y003000
X002000Y003000
X002000Y004000
X002000Y005000
X002000Y006000
X002000Y007000
X002000Y008000
X002000Y009000
X002000Y010000
X010000Y012000
X010000Y011000
X010000Y010000
X010000Y009000
X010000Y008000
X010000Y007000
X020000Y012000
X010000Y006000
X010000Y005000
X010000Y004000
X010000Y003000
X010000Y002000
X010000Y001000
X020000Y011000
X020000Y010000
X020000Y009000
X020000Y008000
X020000Y007000
X020000Y006000
X020000Y005000
X020000Y004000
X020000Y003000
X020000Y002000
X020000Y001000
T13
X005500Y020000
X006500Y020000
M30
