G04 start of page 2 for group 8 layer_idx 3 *
G04 Title: (unknown), bottom_silk *
G04 Creator: pcb-rnd 3.1.4 *
G04 CreationDate: 2026-04-06 20:17:58 UTC *
G04 For: Alex Jokela *
G04 Format: Gerber/RS-274X *
G04 PCB-Dimensions: 340000 210000 *
G04 PCB-Coordinate-Origin: lower left *
%MOIN*%
%FSLAX25Y25*%
%LNBOTTOM_SILK_NONE_8*%
%ADD11C,0.0100*%
G54D11*X48940Y146780D02*X54700D01*
X48940Y147500D02*Y144620D01*
X49660Y143900D01*
X51100D01*
X51820Y144620D02*X51100Y143900D01*
X51820Y146780D02*Y144620D01*
X52540Y141452D02*X54700D01*
X52540D02*X51820Y140732D01*
Y139292D01*
Y142172D02*X52540Y141452D01*
Y137564D02*X53980D01*
X52540D02*X51820Y136844D01*
Y135404D01*
X52540Y134684D01*
X53980D01*
X54700Y135404D02*X53980Y134684D01*
X54700Y136844D02*Y135404D01*
X53980Y137564D02*X54700Y136844D01*
X51820Y130796D02*X52540Y130076D01*
X51820Y132236D02*Y130796D01*
X52540Y132956D02*X51820Y132236D01*
X52540Y132956D02*X53980D01*
X54700Y132236D01*
Y130796D01*
X53980Y130076D01*
X56140Y132956D02*X56860Y132236D01*
Y130796D01*
X56140Y130076D01*
X51820D02*X56140D01*
X52540Y127628D02*X54700D01*
X52540D02*X51820Y126908D01*
Y125468D01*
Y128348D02*X52540Y127628D01*
X51820Y121580D02*X52540Y120860D01*
X51820Y123020D02*Y121580D01*
X52540Y123740D02*X51820Y123020D01*
X52540Y123740D02*X53980D01*
X54700Y123020D01*
X51820Y120860D02*X53980D01*
X54700Y120140D01*
Y123020D02*Y121580D01*
X53980Y120860D01*
X52540Y117692D02*X54700D01*
X52540D02*X51820Y116972D01*
Y116252D01*
X52540Y115532D01*
X54700D01*
X52540D02*X51820Y114812D01*
Y114092D01*
X52540Y113372D01*
X54700D01*
X51820Y118412D02*X52540Y117692D01*
X50380Y109052D02*X54700D01*
X50380D02*X48940Y108044D01*
Y106460D01*
X50380Y105452D01*
X54700D01*
X51820Y109052D02*Y105452D01*
X52540Y103004D02*X54700D01*
X52540D02*X51820Y102284D01*
Y100844D01*
Y103724D02*X52540Y103004D01*
X48940Y96236D02*X54700D01*
Y96956D02*X53980Y96236D01*
X54700Y98396D02*Y96956D01*
X53980Y99116D02*X54700Y98396D01*
X52540Y99116D02*X53980D01*
X52540D02*X51820Y98396D01*
Y96956D01*
X52540Y96236D01*
X51820Y94508D02*X53980D01*
X54700Y93788D01*
Y92348D01*
X53980Y91628D01*
X51820D02*X53980D01*
X50380Y89900D02*X50524D01*
X52540D02*X54700D01*
X52540Y87740D02*X54700D01*
X52540D02*X51820Y87020D01*
Y86300D01*
X52540Y85580D01*
X54700D01*
X51820Y88460D02*X52540Y87740D01*
Y83852D02*X53980D01*
X52540D02*X51820Y83132D01*
Y81692D01*
X52540Y80972D01*
X53980D01*
X54700Y81692D02*X53980Y80972D01*
X54700Y83132D02*Y81692D01*
X53980Y83852D02*X54700Y83132D01*
X48940Y76652D02*X54700D01*
X48940D02*X51820Y74492D01*
X48940Y72332D01*
X54700D01*
Y69884D02*Y67724D01*
X53980Y70604D02*X54700Y69884D01*
X52540Y70604D02*X53980D01*
X52540D02*X51820Y69884D01*
Y68444D01*
X52540Y67724D01*
X53260Y70604D02*Y67724D01*
X52540D01*
X51820Y63836D02*X52540Y63116D01*
X51820Y65276D02*Y63836D01*
X52540Y65996D02*X51820Y65276D01*
X52540Y65996D02*X53980D01*
X54700Y65276D01*
Y63836D01*
X53980Y63116D01*
X56140Y65996D02*X56860Y65276D01*
Y63836D01*
X56140Y63116D01*
X51820D02*X56140D01*
X51820Y59228D02*X52540Y58508D01*
X51820Y60668D02*Y59228D01*
X52540Y61388D02*X51820Y60668D01*
X52540Y61388D02*X53980D01*
X54700Y60668D01*
X51820Y58508D02*X53980D01*
X54700Y57788D01*
Y60668D02*Y59228D01*
X53980Y58508D01*
X48940Y53468D02*X54700D01*
X48940D02*Y50588D01*
X51532Y53468D02*Y51308D01*
X48940Y48860D02*Y47420D01*
Y48140D02*X54700D01*
Y48860D02*Y47420D01*
X48940Y45692D02*Y42812D01*
X49660Y42092D01*
X51100D01*
X51820Y42812D02*X51100Y42092D01*
X51820Y44972D02*Y42812D01*
X48940Y44972D02*X54700D01*
X51820Y43820D02*X54700Y42092D01*
X48940Y37484D02*X49660Y36764D01*
X48940Y39644D02*Y37484D01*
X49660Y40364D02*X48940Y39644D01*
X49660Y40364D02*X51100D01*
X51820Y39644D01*
Y37484D01*
X52540Y36764D01*
X53980D01*
X54700Y37484D02*X53980Y36764D01*
X54700Y39644D02*Y37484D01*
X53980Y40364D02*X54700Y39644D01*
X48940Y35036D02*Y32156D01*
Y33596D02*X54700D01*
X61440Y117500D02*Y114620D01*
Y116060D02*X67200D01*
X61440Y112892D02*X67200D01*
X65040D02*X64320Y112172D01*
Y110732D01*
X65040Y110012D01*
X67200D01*
Y107564D02*Y105404D01*
X66480Y108284D02*X67200Y107564D01*
X65040Y108284D02*X66480D01*
X65040D02*X64320Y107564D01*
Y106124D01*
X65040Y105404D01*
X65760Y108284D02*Y105404D01*
X65040D01*
Y102956D02*X67200D01*
X65040D02*X64320Y102236D01*
Y101516D01*
X65040Y100796D01*
X67200D01*
X64320Y103676D02*X65040Y102956D01*
X61440Y95756D02*X67200D01*
X61440Y96476D02*Y93596D01*
X62160Y92876D01*
X63600D01*
X64320Y93596D02*X63600Y92876D01*
X64320Y95756D02*Y93596D01*
X61440Y91148D02*X66480D01*
X67200Y90428D01*
X64320Y88988D02*X66480D01*
X67200Y88268D01*
Y86828D01*
X66480Y86108D01*
X64320D02*X66480D01*
X64320Y82220D02*X65040Y81500D01*
X64320Y83660D02*Y82220D01*
X65040Y84380D02*X64320Y83660D01*
X65040Y84380D02*X66480D01*
X67200Y83660D01*
Y82220D01*
X66480Y81500D01*
X68640Y84380D02*X69360Y83660D01*
Y82220D01*
X68640Y81500D01*
X64320D02*X68640D01*
X61440Y77180D02*Y74300D01*
X62160Y73580D01*
X63600D01*
X64320Y74300D02*X63600Y73580D01*
X64320Y76460D02*Y74300D01*
X61440Y76460D02*X67200D01*
X64320Y75308D02*X67200Y73580D01*
Y71132D02*Y68972D01*
X66480Y71852D02*X67200Y71132D01*
X65040Y71852D02*X66480D01*
X65040D02*X64320Y71132D01*
Y69692D01*
X65040Y68972D01*
X65760Y71852D02*Y68972D01*
X65040D01*
X61440Y66524D02*X66480D01*
X67200Y65804D01*
X63600Y67244D02*Y65804D01*
X65040Y63644D02*X67200D01*
X65040D02*X64320Y62924D01*
Y61484D01*
Y64364D02*X65040Y63644D01*
Y59756D02*X66480D01*
X65040D02*X64320Y59036D01*
Y57596D01*
X65040Y56876D01*
X66480D01*
X67200Y57596D02*X66480Y56876D01*
X67200Y59036D02*Y57596D01*
X66480Y59756D02*X67200Y59036D01*
X61440Y52268D02*X62160Y51548D01*
X61440Y54428D02*Y52268D01*
X62160Y55148D02*X61440Y54428D01*
X62160Y55148D02*X63600D01*
X64320Y54428D01*
Y52268D01*
X65040Y51548D01*
X66480D01*
X67200Y52268D02*X66480Y51548D01*
X67200Y54428D02*Y52268D01*
X66480Y55148D02*X67200Y54428D01*
X61440Y49820D02*X67200D01*
X65040D02*X64320Y49100D01*
Y47660D01*
X65040Y46940D01*
X67200D01*
X62880Y45212D02*X63024D01*
X65040D02*X67200D01*
Y43052D02*Y40892D01*
X66480Y43772D02*X67200Y43052D01*
X65040Y43772D02*X66480D01*
X65040D02*X64320Y43052D01*
Y41612D01*
X65040Y40892D01*
X65760Y43772D02*Y40892D01*
X65040D01*
X61440Y39164D02*X66480D01*
X67200Y38444D01*
X61440Y34124D02*X67200D01*
Y34844D02*X66480Y34124D01*
X67200Y36284D02*Y34844D01*
X66480Y37004D02*X67200Y36284D01*
X65040Y37004D02*X66480D01*
X65040D02*X64320Y36284D01*
Y34844D01*
X65040Y34124D01*
M02*
