G04 start of page 3 for group 3 layer_idx 0 *
G04 Title: (unknown), top_copper *
G04 Creator: pcb-rnd 3.1.4 *
G04 CreationDate: 2026-04-06 23:45:46 UTC *
G04 For: Alex Jokela *
G04 Format: Gerber/RS-274X *
G04 PCB-Dimensions: 340000 210000 *
G04 PCB-Coordinate-Origin: lower left *
%MOIN*%
%FSLAX25Y25*%
%LNTOP_COPPER_NONE_3*%
%ADD21C,0.0430*%
%ADD20C,0.0280*%
%ADD19C,0.0200*%
%ADD18C,0.0380*%
%ADD17C,0.0650*%
%ADD16C,0.0001*%
%ADD15C,0.0410*%
%ADD14C,0.0360*%
%ADD13C,0.0600*%
%ADD12C,0.0100*%
G54D12*X3231Y99847D02*Y67401D01*
X5488Y84512D02*Y91957D01*
X8537Y95006D01*
X3231Y67401D02*X5238Y65394D01*
X10000Y70000D02*X15000Y75000D01*
X10000Y80000D02*X5488Y84512D01*
X14537Y85463D02*X10000Y90000D01*
X15000Y35000D02*X10000Y40000D01*
X5238Y65394D02*Y34762D01*
X10000Y60000D02*X14563Y55437D01*
X10000Y50000D02*X15000Y45000D01*
X22999Y92999D02*X20000Y90000D01*
X24974Y18543D02*X15000Y28517D01*
Y35000D01*
X5238Y34762D02*X10000Y30000D01*
X30000Y11457D02*X17899D01*
X32271Y111252D02*X45599Y124580D01*
Y130422D01*
X80271Y111275D02*X92352D01*
X82838Y121401D02*X92226D01*
X88514Y117987D02*X82261D01*
X113726Y130937D02*X105033D01*
X96150Y124507D02*X92100Y128557D01*
X92226Y121401D02*X98133Y115493D01*
X101867D01*
X106373Y120000D01*
X105294Y111714D02*X108087Y114507D01*
X123069D01*
X106373Y120000D02*X120000D01*
X122656D01*
X92100Y128557D02*X56148D01*
X92352Y111275D02*X98133Y105493D01*
X101867D01*
X105405Y98103D02*Y104876D01*
X109072Y108543D01*
X110000D01*
X101867Y105493D02*X105294Y108920D01*
Y111714D01*
X56443Y95006D02*X82838Y121401D01*
X82261Y117987D02*X57274Y92999D01*
X30000Y18543D02*X24974D01*
X77470Y60000D02*X81027Y56443D01*
X79195Y55437D02*X80909Y53723D01*
X20000Y40000D02*X44507Y15493D01*
X81027Y56443D02*X97183D01*
X80909Y53723D02*X89904D01*
X83627Y50000D02*X98133Y35493D01*
X44507Y15493D02*X101867D01*
X101776Y65394D02*X110888Y74507D01*
X108073Y95435D02*X105405Y98103D01*
X97183Y56443D02*X98133Y55493D01*
X107311D01*
X89904Y53723D02*X98133Y45493D01*
X105493D01*
X49704Y70000D02*X64176Y84473D01*
X57274Y92999D02*X22999D01*
X47128Y87602D02*X44989Y85463D01*
X78627Y45000D02*X98133Y25493D01*
X101867D01*
X111480Y35106D01*
X98133Y35493D02*X101867D01*
X106373Y40000D01*
X101867Y15493D02*X110929Y24556D01*
X64176Y84473D02*X114473D01*
X43996Y75000D02*X80271Y111275D01*
X20000Y60000D02*X77470D01*
X14563Y55437D02*X79195D01*
X15000Y45000D02*X78627D01*
X20000Y50000D02*X83627D01*
X107311Y55493D02*X120000Y68183D01*
X105493Y45493D02*X120000Y60000D01*
X124583Y45417D02*X120000Y50000D01*
X111480Y35106D02*X121504D01*
X124583Y38185D01*
Y45417D01*
X106373Y40000D02*X120000D01*
Y68183D02*X124281Y63902D01*
X124507Y55493D02*X120000Y60000D01*
X114473Y84473D02*X120000Y90000D01*
X110000Y101457D02*X118543D01*
X120000Y100000D01*
Y68183D02*Y70000D01*
X20000D02*X49704D01*
X15000Y75000D02*X43996D01*
X110888Y74507D02*X131977D01*
X140388Y82917D01*
X126224Y86224D02*X120000Y80000D01*
X140388Y82917D02*X159087D01*
X124281Y63902D02*X145850D01*
X146519Y64571D01*
X110929Y24556D02*X165444D01*
X190000Y78543D02*X185915D01*
X182626Y75254D01*
X173947D01*
X190000Y71457D02*X181457D01*
X190540Y85399D02*X190895D01*
X195493Y80801D01*
Y78133D01*
X194898Y88729D02*X188093D01*
X184727Y85363D01*
X161318D01*
X165444Y24556D02*X180000Y10000D01*
X184687Y35313D02*X180000Y40000D01*
X181457Y71457D02*X180000Y70000D01*
X161318Y85363D02*X160457Y86224D01*
X126224D01*
X127569Y98562D02*X124442Y95435D01*
X108073D01*
X123069Y114507D02*X125922Y111654D01*
X122656Y120000D02*X131356Y111300D01*
X120000Y110000D02*X124693Y105307D01*
X163326Y116286D02*X149411D01*
X180000Y90000D02*X171438Y98562D01*
X127569D01*
X131356Y111300D02*X168262D01*
X172456Y115493D01*
X124693Y105307D02*X181911D01*
X188597Y111993D01*
X149411Y116286D02*X146405Y119292D01*
X153044Y126443D02*X161474D01*
X152213Y124437D02*X162304D01*
X163347Y125480D01*
X146405Y119292D02*X138238D01*
X133023Y124507D01*
X96150D01*
X98209Y184582D02*X95493Y181867D01*
Y174704D01*
X93487Y172698D01*
X123697Y184582D02*X98209D01*
X93487Y172698D02*Y170723D01*
X124080Y173885D02*X123272Y174693D01*
X98320D01*
X95493Y171867D01*
X121979Y180000D02*X120000D01*
X95493Y171867D02*Y169892D01*
X105312Y135312D02*X120000Y150000D01*
X126402Y153598D02*X120000Y160000D01*
Y190000D02*X106374D01*
X120000D02*X128599Y198599D01*
X93487Y189860D02*Y175535D01*
X128907Y179372D02*X123697Y184582D01*
X146028Y183557D02*X136356Y173885D01*
X124080D01*
X138444Y180651D02*X133858Y176065D01*
X125914D01*
X130195Y156905D02*X146876D01*
X153140Y183557D02*X146028D01*
X141541Y171939D02*X139602Y170000D01*
X125914Y176065D02*X121979Y180000D01*
X139602Y170000D02*X120000D01*
X155393Y153598D02*X126402D01*
X160196Y155563D02*X151632Y146999D01*
X146888D01*
X146876Y156905D02*X153528Y163557D01*
X161051Y159256D02*X155393Y153598D01*
X153974Y166864D02*X152111Y165000D01*
X120000Y130000D02*X115387Y134613D01*
Y142009D01*
X117892Y144515D01*
X134973D01*
X167278Y145983D02*X157735Y136441D01*
X147722D01*
X161672Y143693D02*X143312D01*
X134973Y144515D02*X153044Y126443D01*
X161474D02*X170280Y135250D01*
X120000Y140000D02*X136650D01*
X152213Y124437D01*
X153528Y163557D02*X163557D01*
X168185Y159256D02*X161051D01*
X195493Y78133D02*X198133Y75493D01*
X180000Y145983D02*X167278D01*
X180517Y145467D02*X180000Y145983D01*
Y150000D01*
X195764Y104847D02*X194933Y104017D01*
X198133Y85493D02*X194898Y88729D01*
X180000Y155950D02*X173930D01*
X180000Y166394D02*X169169Y155563D01*
X181082Y165313D02*X180000Y166394D01*
Y188733D02*X158317D01*
X153140Y183557D01*
X173930Y155950D02*X161672Y143693D01*
X169169Y155563D02*X160196D01*
X180000Y155950D02*X180637Y155313D01*
X180000Y155950D02*Y160000D01*
Y170000D02*Y166394D01*
X184616Y175384D02*X180000Y180000D01*
X183240Y185493D02*X180000Y188733D01*
Y190000D02*Y188733D01*
X93487Y170723D02*X89660Y166897D01*
X58270Y154507D02*X108840D01*
X95493Y169892D02*X88189Y162588D01*
X52141D01*
X94795Y165000D02*X87672Y157877D01*
X108840Y154507D02*X110641Y152706D01*
X152111Y165000D02*X94795D01*
X89660Y166897D02*X51678D01*
X50126Y178824D02*X88099D01*
X35243Y195243D02*X20000Y180000D01*
Y160000D02*X31302D01*
X50126Y178824D01*
X31625Y165000D02*X40271Y173646D01*
X91480Y190691D02*Y177485D01*
X89512Y175517D01*
X49665D01*
X97302Y196513D02*X91480Y190691D01*
X93487Y175535D02*X91480Y173529D01*
Y171554D01*
X88829Y168904D01*
X48904D01*
X49284Y172210D02*X87427D01*
X106374Y190000D02*X101867Y194507D01*
X98133D01*
X93487Y189860D01*
X51678Y166897D02*X44493Y159711D01*
X45957Y156405D02*X43113D01*
X49665Y175517D02*X29148Y155000D01*
X27074Y150000D02*X49284Y172210D01*
X52141Y162588D02*X45957Y156405D01*
X48904Y168904D02*X20000Y140000D01*
X18613Y165000D02*X31625D01*
X25994Y125994D02*Y133133D01*
X43113Y156405D02*X22020Y135313D01*
X20000Y120000D02*X25994Y125994D01*
Y133133D02*X44884Y152024D01*
X37178Y141457D02*Y130700D01*
X44398Y154398D02*X20000Y130000D01*
X29148Y155000D02*X18626D01*
X20000Y150000D02*X27074D01*
X37178Y130700D02*X21478Y115000D01*
X18287D01*
X51690Y157877D02*X48211Y154398D01*
X44398D01*
X56148Y128557D02*X50033Y134672D01*
X44884Y152024D02*X55787D01*
X58270Y154507D01*
X80000Y148543D02*X80635D01*
X90836Y138342D01*
X87672Y157877D02*X51690D01*
X22020Y135313D02*X18837D01*
X80000Y141457D02*X37178D01*
X90836Y135312D02*Y133930D01*
Y138342D02*Y135312D01*
X105312D01*
X18837Y135313D02*X15000Y131476D01*
X18626Y155000D02*X15256Y151630D01*
Y135256D01*
X10000Y130000D01*
Y150000D02*X15000Y155000D01*
X18287Y115000D02*X15000Y111713D01*
Y108287D01*
Y155000D02*Y161387D01*
X18613Y165000D01*
X15000Y131476D02*Y125000D01*
X10000Y120000D01*
X11713Y105000D02*X8384D01*
X3231Y99847D01*
X15000Y108287D02*X11713Y105000D01*
X5238Y65394D02*X101776D01*
X8537Y95006D02*X56443D01*
X44989Y85463D02*X14537D01*
X87755Y195243D02*X35243D01*
X91006Y207534D02*X83472Y200000D01*
X41043D02*X83472D01*
X37374Y204523D02*X50477D01*
X55000Y200000D01*
X113476Y196439D02*X104389Y205527D01*
X98039D01*
X87755Y195243D01*
X180000Y200000D02*X184507Y204507D01*
X108678Y196513D02*X97302D01*
X128599Y198599D02*X174415D01*
X178347Y194668D01*
X33957Y200000D02*Y201106D01*
X37374Y204523D01*
X20000Y200000D02*X33957D01*
X20000D02*X10000D01*
X198133Y75493D02*X201867D01*
X146519Y64571D02*X254413D01*
X259843Y70000D01*
Y60000D02*X255336Y55493D01*
X206050Y75000D02*X289145D01*
X308045D01*
X319843Y86798D01*
X255336Y55493D02*X124507D01*
X201867Y85493D02*X198133D01*
X319843Y40000D02*X315155Y35313D01*
X184687D01*
X201867Y75493D02*X211668Y85295D01*
X206164Y95493D02*X192135D01*
X228346Y18543D02*X232038Y22234D01*
Y24011D01*
X228346Y11457D02*X222486D01*
X257485Y104804D02*X255478Y102798D01*
X213469D01*
X206164Y95493D01*
X237853Y99491D02*X215864D01*
X211668Y85295D02*X313663D01*
X314647Y104804D02*X257485D01*
X321755Y95313D02*X218820D01*
X319843Y86798D02*Y90000D01*
X259843D02*X216909D01*
X254690Y104847D02*X195764D01*
X215864Y99491D02*X201867Y85493D01*
X314593Y114750D02*X319843Y120000D01*
X314843Y125000D02*X319843Y130000D01*
Y140000D02*X324400Y135442D01*
Y97959D01*
X321755Y95313D01*
X313663Y85295D02*X314652Y86284D01*
X319843Y110000D02*X314647Y104804D01*
X319843Y150000D02*X315321Y145479D01*
X313291Y153449D02*X319843Y160000D01*
X311905Y164606D02*X304055Y156756D01*
X302756Y200000D02*X308445D01*
X302756D02*Y200711D01*
X295933Y207534D01*
X319843Y170000D02*X317162Y167319D01*
X319843Y180000D02*X315226Y175384D01*
X319843Y190000D02*X315336Y185493D01*
X313074Y170000D02*X317788Y174714D01*
X321652D01*
X324452Y171913D01*
Y167953D01*
X317162Y167319D02*X309967D01*
X307961Y165313D01*
X324452Y167953D02*X321106Y164606D01*
X311905D01*
X208087Y109252D02*X209831Y107509D01*
X246187D01*
X212747Y110868D02*X246293D01*
X246187Y107509D02*X253428Y114750D01*
X246293Y110868D02*X254599Y119174D01*
Y121251D01*
X258348Y125000D01*
X251292Y120544D02*X247206Y116457D01*
X259843Y110000D02*X254690Y104847D01*
X244845Y146052D02*X242259Y143466D01*
X224015D01*
X209188Y141459D02*X245810D01*
X250661Y139439D02*X213418D01*
X240452Y145472D02*X225846D01*
X216088Y137432D02*X257274D01*
X252979Y141756D02*X250661Y139439D01*
X252024Y145479D02*X251451Y146052D01*
X244845D01*
X245810Y141459D02*X247097Y142746D01*
X220498Y134125D02*X244607D01*
X213418Y139439D02*X209919Y135940D01*
X244404Y149425D02*X240452Y145472D01*
X225846D02*X220926Y150393D01*
X207135D01*
X315321Y145479D02*X252024D01*
X257274Y137432D02*X259843Y140000D01*
X236220Y123543D02*X238702D01*
X250159Y135000D01*
X265307D01*
X253428Y114750D02*X314593D01*
X258348Y125000D02*X314843D01*
X247206Y116457D02*X236220D01*
X224015Y143466D02*X222014Y145467D01*
X236220Y123543D02*X220825D01*
X170280Y135250D02*X202978D01*
X163347Y125480D02*X204135D01*
X172456Y115493D02*X201867D01*
X220498Y134125D01*
X222014Y145467D02*X180517D01*
X202978Y135250D02*X209188Y141459D01*
X204135Y125480D02*X216088Y137432D01*
X295933Y207534D02*X91006D01*
X228346Y170000D02*X218691D01*
X231596Y200000D02*X228346D01*
X178347Y194668D02*X255175D01*
X277618Y200000D02*X295670D01*
X231596D02*X271217D01*
X277618D01*
X180637Y155313D02*X261616D01*
X184507Y204507D02*X289881D01*
X290233Y204155D01*
X255175Y194668D02*X259843Y190000D01*
X307961Y165313D02*X181082D01*
X315226Y175384D02*X184616D01*
X315336Y185493D02*X183240D01*
X218691Y170000D02*X217177Y171514D01*
X259843Y170000D02*X313074D01*
X304055Y156756D02*X264849D01*
X261616Y155313D02*X263480Y153449D01*
X313291D01*
G54D13*X100000Y200000D03*
Y190000D03*
G54D14*X88099Y178824D03*
X87427Y172210D03*
G54D13*X100000Y170000D03*
Y160000D03*
Y180000D03*
G54D15*X170000Y195000D03*
X155000Y175000D03*
X147500Y180000D03*
Y190000D03*
X162500Y185000D03*
G54D13*X180000Y170000D03*
Y180000D03*
Y190000D03*
Y200000D03*
X200000D03*
Y190000D03*
Y180000D03*
G54D15*X132500Y195000D03*
G54D14*X113476Y196439D03*
X108678Y196513D03*
G54D16*G36*
X117000Y203000D02*X123000D01*
Y197000D01*
X117000D01*
Y203000D01*
G37*
G36*
X256843D02*X262843D01*
Y197000D01*
X256843D01*
Y203000D01*
G37*
G36*
X225346D02*X231346D01*
Y197000D01*
X225346D01*
Y203000D01*
G37*
G54D13*X238346Y200000D03*
X120000Y190000D03*
X228346D03*
Y180000D03*
G54D14*X128907Y179372D03*
X138444Y180651D03*
G54D13*X259843Y190000D03*
Y180000D03*
X238346Y190000D03*
Y180000D03*
X228346Y170000D03*
X238346D03*
X228346Y160000D03*
X238346D03*
G54D14*X217177Y171514D03*
G54D13*X259843Y170000D03*
Y160000D03*
Y150000D03*
X228346D03*
G54D14*X207135Y150393D03*
G54D13*X238346Y150000D03*
G54D14*X244404Y149425D03*
X163557Y163557D03*
X153974Y166864D03*
X141541Y171939D03*
X168185Y159256D03*
X130195Y156905D03*
G54D13*X120000Y180000D03*
Y170000D03*
X100000Y150000D03*
X120000Y160000D03*
Y150000D03*
G54D14*X110641Y152706D03*
G54D15*X162500Y150000D03*
X155000Y160000D03*
G54D13*X180000Y150000D03*
Y160000D03*
G54D14*X146888Y146999D03*
G54D13*X100000Y140000D03*
G54D15*X165000Y135000D03*
G54D13*X120000Y140000D03*
G54D14*X147722Y136441D03*
G54D15*X170000Y140000D03*
G54D13*X180000D03*
X259843D03*
G54D14*X143312Y143693D03*
X247097Y142746D03*
X209919Y135940D03*
X252979Y141756D03*
G54D16*G36*
X7000Y203000D02*X13000D01*
Y197000D01*
X7000D01*
Y203000D01*
G37*
G54D13*X10000Y190000D03*
Y180000D03*
G54D16*G36*
X51750Y203250D02*X58250D01*
Y196750D01*
X51750D01*
Y203250D01*
G37*
G54D13*X20000Y180000D03*
Y190000D03*
Y200000D03*
G54D16*G36*
X43602Y202952D02*X38484D01*
Y197048D01*
X43602D01*
Y202952D01*
G37*
G36*
X36516D02*X31398D01*
Y197048D01*
X36516D01*
Y202952D01*
G37*
G54D15*X77500Y190000D03*
Y200000D03*
G54D17*X65000D03*
G54D13*X10000Y170000D03*
X20000D03*
G54D14*X40271Y173646D03*
G54D13*X10000Y160000D03*
X20000D03*
G54D14*X44493Y159711D03*
G54D13*X10000Y150000D03*
X20000D03*
X10000Y140000D03*
X20000D03*
G54D15*X60000D03*
X65000Y145000D03*
X62500Y135000D03*
X55000D03*
X70000Y150000D03*
G54D16*G36*
X77048Y151102D02*Y145984D01*
X82952D01*
Y151102D01*
X77048D01*
G37*
G36*
Y144016D02*Y138898D01*
X82952D01*
Y144016D01*
X77048D01*
G37*
G54D14*X50033Y134672D03*
G54D13*X200000Y170000D03*
Y160000D03*
Y150000D03*
Y140000D03*
G54D15*X57500Y125000D03*
G54D13*X10000Y130000D03*
X20000D03*
G54D14*X45599Y130422D03*
G54D13*X100000Y130000D03*
G54D15*X135000Y132500D03*
G54D13*X120000Y130000D03*
G54D14*X105033Y130937D03*
X113726D03*
X32271Y111252D03*
X17899Y11457D03*
X125922Y111654D03*
X88514Y117987D03*
X90836Y133930D03*
X47128Y87602D03*
G54D15*X145000Y125000D03*
X160000Y130000D03*
G54D13*X180000D03*
X200000D03*
G54D14*X208087Y109252D03*
X188597Y111993D03*
X194933Y104017D03*
X190540Y85399D03*
X192135Y95493D03*
X206050Y75000D03*
X212747Y110868D03*
X220825Y123543D03*
X218820Y95313D03*
X216909Y90000D03*
X163326Y116286D03*
X159087Y82917D03*
X173947Y75254D03*
G54D13*X259843Y130000D03*
X319843Y140000D03*
Y150000D03*
G54D14*X264849Y156756D03*
X265307Y135000D03*
G54D13*X319843Y130000D03*
Y160000D03*
Y170000D03*
Y180000D03*
Y190000D03*
Y200000D03*
G54D16*G36*
X305315Y202952D02*X300197D01*
Y197048D01*
X305315D01*
Y202952D01*
G37*
G54D14*X308445Y200000D03*
G54D16*G36*
X298229Y202952D02*X293111D01*
Y197048D01*
X298229D01*
Y202952D01*
G37*
G54D14*X290233Y204155D03*
X277618Y200000D03*
G54D13*X259843Y120000D03*
X319843D03*
G54D16*G36*
X233268Y126102D02*Y120984D01*
X239172D01*
Y126102D01*
X233268D01*
G37*
G36*
Y119016D02*Y113898D01*
X239172D01*
Y119016D01*
X233268D01*
G37*
G54D14*X251292Y120544D03*
X244607Y134125D03*
G54D13*X259843Y110000D03*
X319843D03*
X259843Y100000D03*
Y90000D03*
Y80000D03*
G54D14*X289145Y75000D03*
X237853Y99491D03*
G54D13*X259843Y70000D03*
Y60000D03*
Y50000D03*
Y40000D03*
Y30000D03*
Y20000D03*
Y10000D03*
G54D16*G36*
X225394Y14016D02*Y8898D01*
X231298D01*
Y14016D01*
X225394D01*
G37*
G36*
Y21102D02*Y15984D01*
X231298D01*
Y21102D01*
X225394D01*
G37*
G54D14*X232038Y24011D03*
X222486Y11457D03*
G54D13*X319843Y40000D03*
Y50000D03*
Y60000D03*
Y70000D03*
Y10000D03*
Y20000D03*
Y30000D03*
Y80000D03*
Y90000D03*
Y100000D03*
G54D14*X314652Y86284D03*
G54D15*X50000Y120000D03*
X57500Y110000D03*
X85000Y107500D03*
G54D13*X120000Y110000D03*
Y100000D03*
Y90000D03*
Y80000D03*
G54D16*G36*
X107048Y111102D02*Y105984D01*
X112952D01*
Y111102D01*
X107048D01*
G37*
G36*
Y104016D02*Y98898D01*
X112952D01*
Y104016D01*
X107048D01*
G37*
G54D13*X120000Y70000D03*
X180000Y80000D03*
Y90000D03*
G54D16*G36*
X187048Y74016D02*Y68898D01*
X192952D01*
Y74016D01*
X187048D01*
G37*
G36*
Y81102D02*Y75984D01*
X192952D01*
Y81102D01*
X187048D01*
G37*
G54D13*X180000Y70000D03*
Y100000D03*
Y110000D03*
X120000Y60000D03*
X180000D03*
X120000Y50000D03*
X180000D03*
X120000Y40000D03*
Y30000D03*
X180000D03*
Y40000D03*
X100000Y120000D03*
G54D15*X132500D03*
G54D13*X120000D03*
X200000D03*
G54D15*X145000Y115000D03*
X160000Y120000D03*
G54D13*X180000D03*
X10000D03*
X20000D03*
X10000Y110000D03*
X20000D03*
X10000Y100000D03*
X20000D03*
X10000Y90000D03*
Y80000D03*
Y70000D03*
Y60000D03*
Y50000D03*
Y40000D03*
Y30000D03*
X20000D03*
G54D16*G36*
X27048Y14016D02*Y8898D01*
X32952D01*
Y14016D01*
X27048D01*
G37*
G36*
Y21102D02*Y15984D01*
X32952D01*
Y21102D01*
X27048D01*
G37*
G54D13*X20000Y40000D03*
Y50000D03*
Y60000D03*
Y70000D03*
Y80000D03*
Y90000D03*
X100000Y110000D03*
Y100000D03*
Y90000D03*
G54D15*X82500D03*
G54D13*X100000Y80000D03*
Y70000D03*
Y60000D03*
G54D15*X82500Y80000D03*
Y70000D03*
Y60000D03*
X127500Y90000D03*
X137500Y75000D03*
X130000Y95000D03*
X140000Y67500D03*
G54D13*X200000Y110000D03*
X100000Y50000D03*
Y40000D03*
G54D15*X140000D03*
X165000D03*
G54D13*X100000Y30000D03*
Y20000D03*
Y10000D03*
X120000Y20000D03*
G54D15*X135000Y15000D03*
X160000D03*
G54D13*X120000Y10000D03*
X180000D03*
Y20000D03*
X200000Y100000D03*
Y90000D03*
Y80000D03*
Y70000D03*
Y60000D03*
Y50000D03*
Y40000D03*
Y30000D03*
Y20000D03*
Y10000D03*
G54D18*G54D19*G54D18*G54D19*G54D20*G54D18*G54D19*G54D20*G54D18*G54D20*G54D18*G54D19*G54D20*G54D18*G54D19*G54D20*G54D18*G54D19*G54D18*G54D19*G54D20*G54D18*G54D20*G54D19*G54D20*G54D19*G54D18*G54D19*G54D20*G54D19*G54D20*G54D19*G54D18*G54D21*G54D18*G54D19*G54D21*G54D18*G54D19*G54D18*G54D19*G54D18*G54D19*G54D18*G54D19*G54D18*G54D19*G54D18*G54D19*G54D20*G54D19*G54D20*G54D18*G54D19*G54D20*G54D19*G54D20*G54D19*G54D20*G54D19*G54D20*G54D19*G54D20*G54D19*G54D20*G54D19*G54D20*G54D18*G54D19*G54D20*G54D18*G54D19*G54D20*G54D18*G54D19*G54D18*G54D19*G54D18*G54D19*G54D18*G54D20*G54D19*G54D20*G54D18*M02*
