G04 start of page 9 for group -1 layer_idx 268435462 *
G04 Title: (unknown), <virtual group> *
G04 Creator: pcb-rnd 3.1.4 *
G04 CreationDate: 2026-04-06 23:45:46 UTC *
G04 For: Alex Jokela *
G04 Format: Gerber/RS-274X *
G04 PCB-Dimensions: 340000 210000 *
G04 PCB-Coordinate-Origin: lower left *
%MOIN*%
%FSLAX25Y25*%
%LNGLOBAL_VIRTUAL_PDRILL_NONE*%
%ADD47C,0.0430*%
%ADD46C,0.0280*%
%ADD45C,0.0200*%
%ADD44C,0.0380*%
G54D44*X100000Y200000D03*
Y190000D03*
G54D45*X88099Y178824D03*
X87427Y172210D03*
G54D44*X100000Y170000D03*
Y160000D03*
Y180000D03*
G54D45*X170000Y195000D03*
X155000Y175000D03*
X147500Y180000D03*
Y190000D03*
X162500Y185000D03*
G54D46*X180000Y170000D03*
Y180000D03*
Y190000D03*
Y200000D03*
G54D44*X200000D03*
Y190000D03*
Y180000D03*
G54D45*X132500Y195000D03*
X113476Y196439D03*
X108678Y196513D03*
G54D46*X120000Y200000D03*
X259843D03*
G54D44*X228346D03*
X238346D03*
G54D46*X120000Y190000D03*
G54D44*X228346D03*
Y180000D03*
G54D45*X128907Y179372D03*
X138444Y180651D03*
G54D46*X259843Y190000D03*
Y180000D03*
G54D44*X238346Y190000D03*
Y180000D03*
X228346Y170000D03*
X238346D03*
X228346Y160000D03*
X238346D03*
G54D45*X217177Y171514D03*
G54D46*X259843Y170000D03*
Y160000D03*
Y150000D03*
G54D44*X228346D03*
G54D45*X207135Y150393D03*
G54D44*X238346Y150000D03*
G54D45*X244404Y149425D03*
X163557Y163557D03*
X153974Y166864D03*
X141541Y171939D03*
X168185Y159256D03*
X130195Y156905D03*
G54D46*X120000Y180000D03*
Y170000D03*
G54D44*X100000Y150000D03*
G54D46*X120000Y160000D03*
Y150000D03*
G54D45*X110641Y152706D03*
X162500Y150000D03*
X155000Y160000D03*
G54D46*X180000Y150000D03*
Y160000D03*
G54D45*X146888Y146999D03*
G54D44*X100000Y140000D03*
G54D45*X165000Y135000D03*
G54D46*X120000Y140000D03*
G54D45*X147722Y136441D03*
X170000Y140000D03*
G54D46*X180000D03*
X259843D03*
G54D45*X143312Y143693D03*
X247097Y142746D03*
X209919Y135940D03*
X252979Y141756D03*
G54D44*X10000Y200000D03*
Y190000D03*
Y180000D03*
G54D47*X55000Y200000D03*
G54D44*X20000Y180000D03*
Y190000D03*
Y200000D03*
G54D45*X77500Y190000D03*
Y200000D03*
G54D47*X65000D03*
G54D44*X10000Y170000D03*
X20000D03*
G54D45*X40271Y173646D03*
G54D44*X10000Y160000D03*
X20000D03*
G54D45*X44493Y159711D03*
G54D44*X10000Y150000D03*
X20000D03*
X10000Y140000D03*
X20000D03*
G54D45*X60000D03*
X65000Y145000D03*
X62500Y135000D03*
X55000D03*
X70000Y150000D03*
X50033Y134672D03*
G54D44*X200000Y170000D03*
Y160000D03*
Y150000D03*
Y140000D03*
G54D45*X57500Y125000D03*
G54D44*X10000Y130000D03*
X20000D03*
G54D45*X45599Y130422D03*
G54D44*X100000Y130000D03*
G54D45*X135000Y132500D03*
G54D46*X120000Y130000D03*
G54D45*X105033Y130937D03*
X113726D03*
X32271Y111252D03*
X17899Y11457D03*
X125922Y111654D03*
X88514Y117987D03*
X90836Y133930D03*
X47128Y87602D03*
X145000Y125000D03*
X160000Y130000D03*
G54D46*X180000D03*
G54D44*X200000D03*
G54D45*X208087Y109252D03*
X188597Y111993D03*
X194933Y104017D03*
X190540Y85399D03*
X192135Y95493D03*
X206050Y75000D03*
X212747Y110868D03*
X220825Y123543D03*
X218820Y95313D03*
X216909Y90000D03*
X163326Y116286D03*
X159087Y82917D03*
X173947Y75254D03*
G54D46*X259843Y130000D03*
X319843Y140000D03*
Y150000D03*
G54D45*X264849Y156756D03*
X265307Y135000D03*
G54D46*X319843Y130000D03*
Y160000D03*
Y170000D03*
Y180000D03*
Y190000D03*
Y200000D03*
G54D45*X308445D03*
X290233Y204155D03*
X277618Y200000D03*
G54D46*X259843Y120000D03*
X319843D03*
G54D45*X251292Y120544D03*
X244607Y134125D03*
G54D46*X259843Y110000D03*
X319843D03*
X259843Y100000D03*
Y90000D03*
Y80000D03*
G54D45*X289145Y75000D03*
X237853Y99491D03*
G54D46*X259843Y70000D03*
Y60000D03*
Y50000D03*
Y40000D03*
Y30000D03*
Y20000D03*
Y10000D03*
G54D45*X232038Y24011D03*
X222486Y11457D03*
G54D46*X319843Y40000D03*
Y50000D03*
Y60000D03*
Y70000D03*
Y10000D03*
Y20000D03*
Y30000D03*
Y80000D03*
Y90000D03*
Y100000D03*
G54D45*X314652Y86284D03*
X50000Y120000D03*
X57500Y110000D03*
X85000Y107500D03*
G54D46*X120000Y110000D03*
Y100000D03*
Y90000D03*
Y80000D03*
Y70000D03*
X180000Y80000D03*
Y90000D03*
Y70000D03*
Y100000D03*
Y110000D03*
X120000Y60000D03*
X180000D03*
X120000Y50000D03*
X180000D03*
X120000Y40000D03*
Y30000D03*
X180000D03*
Y40000D03*
G54D44*X100000Y120000D03*
G54D45*X132500D03*
G54D46*X120000D03*
G54D44*X200000D03*
G54D45*X145000Y115000D03*
X160000Y120000D03*
G54D46*X180000D03*
G54D44*X10000D03*
X20000D03*
X10000Y110000D03*
X20000D03*
X10000Y100000D03*
X20000D03*
X10000Y90000D03*
Y80000D03*
Y70000D03*
Y60000D03*
Y50000D03*
Y40000D03*
Y30000D03*
X20000D03*
Y40000D03*
Y50000D03*
Y60000D03*
Y70000D03*
Y80000D03*
Y90000D03*
X100000Y110000D03*
Y100000D03*
Y90000D03*
G54D45*X82500D03*
G54D44*X100000Y80000D03*
Y70000D03*
Y60000D03*
G54D45*X82500Y80000D03*
Y70000D03*
Y60000D03*
X127500Y90000D03*
X137500Y75000D03*
X130000Y95000D03*
X140000Y67500D03*
G54D44*X200000Y110000D03*
X100000Y50000D03*
Y40000D03*
G54D45*X140000D03*
X165000D03*
G54D44*X100000Y30000D03*
Y20000D03*
Y10000D03*
G54D46*X120000Y20000D03*
G54D45*X135000Y15000D03*
X160000D03*
G54D46*X120000Y10000D03*
X180000D03*
Y20000D03*
G54D44*X200000Y100000D03*
Y90000D03*
Y80000D03*
Y70000D03*
Y60000D03*
Y50000D03*
Y40000D03*
Y30000D03*
Y20000D03*
Y10000D03*
M02*
