M48
INCH
T14C0.043
T13C0.028
T12C0.020
T11C0.038
%
T12
G05
X008810Y017882
X008743Y017221
X017000Y019500
X015500Y017500
X014750Y018000
X014750Y019000
X016250Y018500
X013250Y019500
X011348Y019644
X010868Y019651
X012891Y017937
X013844Y018065
X021718Y017151
X020714Y015039
X024440Y014942
X016356Y016356
X015397Y016686
X014154Y017194
X016819Y015926
X013020Y015691
X011064Y015271
X016250Y015000
X015500Y016000
X014689Y014700
X016500Y013500
X014772Y013644
X017000Y014000
X014331Y014369
X024710Y014275
X020992Y013594
X025298Y014176
X007750Y019000
X007750Y020000
X004027Y017365
X004449Y015971
X006000Y014000
X006500Y014500
X006250Y013500
X005500Y013500
X007000Y015000
X005003Y013467
X005750Y012500
X004560Y013042
X013500Y013250
X010503Y013094
X011373Y013094
X003227Y011125
X001790Y001146
X012592Y011165
X008851Y011799
X009084Y013393
X004713Y008760
X014500Y012500
X016000Y013000
X020809Y010925
X018860Y011199
X019493Y010402
X019054Y008540
X019214Y009549
X020605Y007500
X021275Y011087
X022082Y012354
X021882Y009531
X021691Y009000
X016333Y011629
X015909Y008292
X017395Y007525
X026485Y015676
X026531Y013500
X030844Y020000
X029023Y020415
X027762Y020000
X025129Y012054
X024461Y013412
X028914Y007500
X023785Y009949
X023204Y002401
X022249Y001146
X031465Y008628
X005000Y012000
X005750Y011000
X008500Y010750
X013250Y012000
X014500Y011500
X016000Y012000
X008250Y009000
X008250Y008000
X008250Y007000
X008250Y006000
X012750Y009000
X013750Y007500
X013000Y009500
X014000Y006750
X014000Y004000
X016500Y004000
X013500Y001500
X016000Y001500
T13
X018000Y017000
X018000Y018000
X018000Y019000
X018000Y020000
X012000Y020000
X025984Y020000
X012000Y019000
X025984Y019000
X025984Y018000
X025984Y017000
X025984Y016000
X025984Y015000
X012000Y018000
X012000Y017000
X012000Y016000
X012000Y015000
X018000Y015000
X018000Y016000
X012000Y014000
X018000Y014000
X025984Y014000
X012000Y013000
X018000Y013000
X025984Y013000
X031984Y014000
X031984Y015000
X031984Y013000
X031984Y016000
X031984Y017000
X031984Y018000
X031984Y019000
X031984Y020000
X025984Y012000
X031984Y012000
X025984Y011000
X031984Y011000
X025984Y010000
X025984Y009000
X025984Y008000
X025984Y007000
X025984Y006000
X025984Y005000
X025984Y004000
X025984Y003000
X025984Y002000
X025984Y001000
X031984Y004000
X031984Y005000
X031984Y006000
X031984Y007000
X031984Y001000
X031984Y002000
X031984Y003000
X031984Y008000
X031984Y009000
X031984Y010000
X012000Y011000
X012000Y010000
X012000Y009000
X012000Y008000
X012000Y007000
X018000Y008000
X018000Y009000
X018000Y007000
X018000Y010000
X018000Y011000
X012000Y006000
X018000Y006000
X012000Y005000
X018000Y005000
X012000Y004000
X012000Y003000
X018000Y003000
X018000Y004000
X012000Y012000
X018000Y012000
X012000Y002000
X012000Y001000
X018000Y001000
X018000Y002000
T11
X010000Y020000
X010000Y019000
X010000Y017000
X010000Y016000
X010000Y018000
X020000Y020000
X020000Y019000
X020000Y018000
X022835Y020000
X023835Y020000
X022835Y019000
X022835Y018000
X023835Y019000
X023835Y018000
X022835Y017000
X023835Y017000
X022835Y016000
X023835Y016000
X022835Y015000
X023835Y015000
X010000Y015000
X010000Y014000
X001000Y020000
X001000Y019000
X001000Y018000
X002000Y018000
X002000Y019000
X002000Y020000
X001000Y017000
X002000Y017000
X001000Y016000
X002000Y016000
X001000Y015000
X002000Y015000
X001000Y014000
X002000Y014000
X020000Y017000
X020000Y016000
X020000Y015000
X020000Y014000
X001000Y013000
X002000Y013000
X010000Y013000
X020000Y013000
X010000Y012000
X020000Y012000
X001000Y012000
X002000Y012000
X001000Y011000
X002000Y011000
X001000Y010000
X002000Y010000
X001000Y009000
X001000Y008000
X001000Y007000
X001000Y006000
X001000Y005000
X001000Y004000
X001000Y003000
X002000Y003000
X002000Y004000
X002000Y005000
X002000Y006000
X002000Y007000
X002000Y008000
X002000Y009000
X010000Y011000
X010000Y010000
X010000Y009000
X010000Y008000
X010000Y007000
X010000Y006000
X020000Y011000
X010000Y005000
X010000Y004000
X010000Y003000
X010000Y002000
X010000Y001000
X020000Y010000
X020000Y009000
X020000Y008000
X020000Y007000
X020000Y006000
X020000Y005000
X020000Y004000
X020000Y003000
X020000Y002000
X020000Y001000
T14
X005500Y020000
X006500Y020000
M30
