G04 start of page 4 for group 6 layer_idx 1 *
G04 Title: (unknown), bottom_copper *
G04 Creator: pcb-rnd 3.1.4 *
G04 CreationDate: 2026-03-07 03:41:54 UTC *
G04 For: Alex *
G04 Format: Gerber/RS-274X *
G04 PCB-Dimensions: 340000 210000 *
G04 PCB-Coordinate-Origin: lower left *
%MOIN*%
%FSLAX25Y25*%
%LNBOTTOM_COPPER_NONE_6*%
%ADD35C,0.0280*%
%ADD34C,0.0430*%
%ADD33C,0.0380*%
%ADD32C,0.0200*%
%ADD31C,0.0460*%
%ADD30C,0.0650*%
%ADD29C,0.0360*%
%ADD28C,0.0410*%
%ADD27C,0.0600*%
%ADD26C,0.0560*%
%ADD25C,0.0100*%
%ADD24C,0.0001*%
G54D24*G36*
X219000Y209000D02*Y208132D01*
X186690D01*
X186631Y208136D01*
X186396Y208118D01*
X186167Y208062D01*
X185948Y207972D01*
X185747Y207849D01*
X185747Y207849D01*
X185568Y207695D01*
X185529Y207651D01*
X181944Y204065D01*
X181395Y204293D01*
X180706Y204458D01*
X180000Y204514D01*
X179294Y204458D01*
X178605Y204293D01*
X177951Y204022D01*
X177347Y203652D01*
X176808Y203192D01*
X176348Y202653D01*
X175978Y202049D01*
X175707Y201395D01*
X175542Y200706D01*
X175486Y200000D01*
X175542Y199294D01*
X175707Y198605D01*
X175971Y197968D01*
X165932Y208007D01*
X165893Y208052D01*
X165714Y208205D01*
X165513Y208329D01*
X165294Y208419D01*
X165065Y208474D01*
X164830Y208493D01*
X164771Y208488D01*
X9993D01*
Y209000D01*
X219000D01*
G37*
G36*
X22730Y28500D02*X22745Y28409D01*
X22782Y28297D01*
X22836Y28193D01*
X22906Y28098D01*
X22991Y28015D01*
X23087Y27946D01*
X23192Y27893D01*
X23305Y27857D01*
X23421Y27840D01*
X23539Y27841D01*
X23656Y27860D01*
X23768Y27897D01*
X23873Y27952D01*
X23968Y28022D01*
X24051Y28106D01*
X24119Y28202D01*
X24170Y28308D01*
X24240Y28500D01*
X24972D01*
X37073Y16400D01*
X36869Y16384D01*
X36440Y16281D01*
X36033Y16112D01*
X35657Y15882D01*
X35322Y15595D01*
X35036Y15260D01*
X34805Y14885D01*
X34637Y14477D01*
X34534Y14049D01*
X34499Y13609D01*
X34534Y13170D01*
X34637Y12742D01*
X34805Y12334D01*
X35036Y11959D01*
X35322Y11623D01*
X35657Y11337D01*
X36033Y11107D01*
X36440Y10938D01*
X36869Y10835D01*
X37308Y10801D01*
X37747Y10835D01*
X37919Y10877D01*
X45636Y3160D01*
X45675Y3115D01*
X45854Y2962D01*
X45854Y2961D01*
X46056Y2838D01*
X46274Y2748D01*
X46503Y2693D01*
X46739Y2674D01*
X46797Y2679D01*
X175294D01*
X175387Y2528D01*
X175673Y2193D01*
X176008Y1907D01*
X176384Y1676D01*
X176791Y1508D01*
X177220Y1405D01*
X177659Y1370D01*
X178098Y1405D01*
X178527Y1508D01*
X178934Y1676D01*
X179310Y1907D01*
X179645Y2193D01*
X179931Y2528D01*
X180162Y2904D01*
X180330Y3311D01*
X180433Y3739D01*
X180459Y4179D01*
X180433Y4618D01*
X180330Y5047D01*
X180162Y5454D01*
X180135Y5497D01*
X180706Y5542D01*
X181395Y5707D01*
X182049Y5978D01*
X182653Y6348D01*
X183192Y6808D01*
X183652Y7347D01*
X184022Y7951D01*
X184293Y8605D01*
X184458Y9294D01*
X184500Y10000D01*
X184458Y10706D01*
X184293Y11395D01*
X184022Y12049D01*
X183652Y12653D01*
X183192Y13192D01*
X182653Y13652D01*
X182049Y14022D01*
X181395Y14293D01*
X180706Y14458D01*
X180000Y14514D01*
X179294Y14458D01*
X178605Y14293D01*
X178056Y14065D01*
X166102Y26019D01*
X166064Y26064D01*
X165884Y26217D01*
X165683Y26341D01*
X165465Y26431D01*
X165235Y26486D01*
X165235Y26486D01*
X165000Y26505D01*
X164941Y26500D01*
X122831D01*
X123192Y26808D01*
X123652Y27347D01*
X124022Y27951D01*
X124293Y28605D01*
X124458Y29294D01*
X124500Y30000D01*
X124458Y30706D01*
X124293Y31395D01*
X124022Y32049D01*
X123652Y32653D01*
X123192Y33192D01*
X122653Y33652D01*
X122309Y33863D01*
X164016D01*
X175935Y21944D01*
X175707Y21395D01*
X175542Y20706D01*
X175486Y20000D01*
X175542Y19294D01*
X175707Y18605D01*
X175978Y17951D01*
X176348Y17347D01*
X176808Y16808D01*
X177347Y16348D01*
X177951Y15978D01*
X178605Y15707D01*
X179294Y15542D01*
X180000Y15486D01*
X180706Y15542D01*
X181395Y15707D01*
X182049Y15978D01*
X182653Y16348D01*
X183192Y16808D01*
X183652Y17347D01*
X184022Y17951D01*
X184293Y18605D01*
X184458Y19294D01*
X184500Y20000D01*
X184458Y20706D01*
X184293Y21395D01*
X184022Y22049D01*
X183652Y22653D01*
X183192Y23192D01*
X182653Y23652D01*
X182096Y23993D01*
X187420D01*
X197048Y14366D01*
X197086Y14321D01*
X197265Y14167D01*
X197266Y14167D01*
X197467Y14044D01*
X197685Y13954D01*
X197796Y13927D01*
X197347Y13652D01*
X196808Y13192D01*
X196348Y12653D01*
X195978Y12049D01*
X195707Y11395D01*
X195542Y10706D01*
X195486Y10000D01*
X195542Y9294D01*
X195707Y8605D01*
X195978Y7951D01*
X196348Y7347D01*
X196808Y6808D01*
X197347Y6348D01*
X197951Y5978D01*
X198605Y5707D01*
X199294Y5542D01*
X200000Y5486D01*
X200706Y5542D01*
X201395Y5707D01*
X202049Y5978D01*
X202653Y6348D01*
X203192Y6808D01*
X203652Y7347D01*
X204022Y7951D01*
X204293Y8605D01*
X204458Y9294D01*
X204500Y10000D01*
X204458Y10706D01*
X204293Y11395D01*
X204022Y12049D01*
X203652Y12653D01*
X203192Y13192D01*
X202653Y13652D01*
X202273Y13885D01*
X219000D01*
Y1000D01*
X20002D01*
Y25495D01*
X20433Y25516D01*
X20863Y25578D01*
X21284Y25682D01*
X21694Y25825D01*
X21800Y25878D01*
X21896Y25947D01*
X21981Y26030D01*
X22051Y26125D01*
X22106Y26231D01*
X22143Y26343D01*
X22163Y26460D01*
X22164Y26579D01*
X22146Y26696D01*
X22110Y26809D01*
X22057Y26915D01*
X21988Y27012D01*
X21905Y27096D01*
X21809Y27167D01*
X21704Y27221D01*
X21592Y27259D01*
X21475Y27278D01*
X21356Y27279D01*
X21239Y27261D01*
X21126Y27223D01*
X20855Y27124D01*
X20575Y27056D01*
X20289Y27014D01*
X20002Y27000D01*
Y28500D01*
X22730D01*
G37*
G36*
X10000D02*X12730D01*
X12745Y28409D01*
X12782Y28297D01*
X12836Y28193D01*
X12906Y28098D01*
X12991Y28015D01*
X13087Y27946D01*
X13192Y27893D01*
X13305Y27857D01*
X13421Y27840D01*
X13539Y27841D01*
X13656Y27860D01*
X13768Y27897D01*
X13873Y27952D01*
X13968Y28022D01*
X14051Y28106D01*
X14119Y28202D01*
X14170Y28308D01*
X14240Y28500D01*
X15757D01*
X15825Y28306D01*
X15878Y28200D01*
X15947Y28104D01*
X16030Y28019D01*
X16125Y27949D01*
X16231Y27894D01*
X16343Y27857D01*
X16460Y27837D01*
X16579Y27836D01*
X16696Y27854D01*
X16809Y27890D01*
X16915Y27943D01*
X17012Y28012D01*
X17096Y28095D01*
X17167Y28191D01*
X17221Y28296D01*
X17259Y28408D01*
X17274Y28500D01*
X20002D01*
Y27000D01*
X20000Y27000D01*
X19711Y27014D01*
X19425Y27056D01*
X19145Y27124D01*
X18872Y27220D01*
X18761Y27258D01*
X18644Y27275D01*
X18526Y27275D01*
X18409Y27255D01*
X18297Y27218D01*
X18193Y27164D01*
X18098Y27094D01*
X18015Y27009D01*
X17946Y26913D01*
X17893Y26808D01*
X17857Y26695D01*
X17840Y26579D01*
X17841Y26461D01*
X17860Y26344D01*
X17897Y26232D01*
X17952Y26127D01*
X18022Y26032D01*
X18106Y25949D01*
X18202Y25881D01*
X18308Y25830D01*
X18716Y25682D01*
X19137Y25578D01*
X19567Y25516D01*
X20000Y25495D01*
X20002Y25495D01*
Y1000D01*
X9993D01*
Y25495D01*
X10000Y25495D01*
X10433Y25516D01*
X10863Y25578D01*
X11284Y25682D01*
X11694Y25825D01*
X11800Y25878D01*
X11896Y25947D01*
X11981Y26030D01*
X12051Y26125D01*
X12106Y26231D01*
X12143Y26343D01*
X12163Y26460D01*
X12164Y26579D01*
X12146Y26696D01*
X12110Y26809D01*
X12057Y26915D01*
X11988Y27012D01*
X11905Y27096D01*
X11809Y27167D01*
X11704Y27221D01*
X11592Y27259D01*
X11475Y27278D01*
X11356Y27279D01*
X11239Y27261D01*
X11126Y27223D01*
X10855Y27124D01*
X10575Y27056D01*
X10289Y27014D01*
X10000Y27000D01*
X9993Y27000D01*
Y28500D01*
X10000Y28500D01*
G37*
G36*
X20000Y35486D02*X20706Y35542D01*
X21395Y35707D01*
X21944Y35935D01*
X33898Y23981D01*
X33936Y23936D01*
X34116Y23783D01*
X34317Y23659D01*
X34535Y23569D01*
X34765Y23514D01*
X35000Y23495D01*
X35059Y23500D01*
X97169D01*
X96808Y23192D01*
X96348Y22653D01*
X95978Y22049D01*
X95707Y21395D01*
X95542Y20706D01*
X95486Y20000D01*
X95542Y19294D01*
X95707Y18605D01*
X95978Y17951D01*
X96348Y17347D01*
X96775Y16848D01*
X40867D01*
X26696Y31019D01*
X26658Y31064D01*
X26478Y31217D01*
X26277Y31341D01*
X26059Y31431D01*
X25829Y31486D01*
X25594Y31505D01*
X25535Y31500D01*
X24243D01*
X24175Y31694D01*
X24122Y31800D01*
X24053Y31896D01*
X23970Y31981D01*
X23875Y32051D01*
X23769Y32106D01*
X23657Y32143D01*
X23540Y32163D01*
X23421Y32164D01*
X23304Y32146D01*
X23191Y32110D01*
X23085Y32057D01*
X22988Y31988D01*
X22904Y31905D01*
X22833Y31809D01*
X22779Y31704D01*
X22741Y31592D01*
X22726Y31500D01*
X20000D01*
X20000Y31500D01*
X19998D01*
Y33000D01*
X20000Y33000D01*
X20289Y32986D01*
X20575Y32944D01*
X20855Y32876D01*
X21128Y32780D01*
X21239Y32742D01*
X21356Y32725D01*
X21474Y32725D01*
X21591Y32745D01*
X21703Y32782D01*
X21807Y32836D01*
X21902Y32906D01*
X21985Y32991D01*
X22054Y33087D01*
X22107Y33192D01*
X22143Y33305D01*
X22160Y33421D01*
X22159Y33539D01*
X22140Y33656D01*
X22103Y33768D01*
X22048Y33873D01*
X21978Y33968D01*
X21894Y34051D01*
X21798Y34119D01*
X21692Y34170D01*
X21284Y34318D01*
X20863Y34422D01*
X20433Y34484D01*
X20000Y34505D01*
X19998Y34505D01*
Y35486D01*
X20000Y35486D01*
G37*
G36*
Y45486D02*X20706Y45542D01*
X21395Y45707D01*
X21944Y45935D01*
X23585Y44293D01*
X23623Y44249D01*
X23803Y44095D01*
X23803Y44095D01*
X24004Y43972D01*
X24222Y43882D01*
X24452Y43826D01*
X24687Y43808D01*
X24746Y43813D01*
X97609D01*
X97347Y43652D01*
X96808Y43192D01*
X96348Y42653D01*
X95978Y42049D01*
X95707Y41395D01*
X95542Y40706D01*
X95486Y40000D01*
X95542Y39294D01*
X95707Y38605D01*
X95978Y37951D01*
X96348Y37347D01*
X96762Y36863D01*
X67417D01*
X65116Y39164D01*
X65157Y39336D01*
X65183Y39775D01*
X65157Y40215D01*
X65054Y40643D01*
X64886Y41050D01*
X64655Y41426D01*
X64369Y41761D01*
X64034Y42047D01*
X63658Y42278D01*
X63251Y42446D01*
X62822Y42549D01*
X62383Y42584D01*
X61944Y42549D01*
X61515Y42446D01*
X61108Y42278D01*
X60732Y42047D01*
X60397Y41761D01*
X60111Y41426D01*
X59881Y41050D01*
X59712Y40643D01*
X59609Y40215D01*
X59574Y39775D01*
X59609Y39336D01*
X59712Y38907D01*
X59881Y38500D01*
X60111Y38124D01*
X60397Y37789D01*
X60732Y37503D01*
X61108Y37273D01*
X61515Y37104D01*
X61944Y37001D01*
X62383Y36967D01*
X62822Y37001D01*
X62995Y37042D01*
X65693Y34344D01*
X65732Y34299D01*
X65911Y34145D01*
X66113Y34022D01*
X66331Y33932D01*
X66560Y33876D01*
X66796Y33858D01*
X66854Y33863D01*
X97691D01*
X97347Y33652D01*
X96808Y33192D01*
X96348Y32653D01*
X95978Y32049D01*
X95707Y31395D01*
X95542Y30706D01*
X95486Y30000D01*
X95542Y29294D01*
X95707Y28605D01*
X95978Y27951D01*
X96348Y27347D01*
X96808Y26808D01*
X97169Y26500D01*
X35621D01*
X24065Y38056D01*
X24293Y38605D01*
X24458Y39294D01*
X24500Y40000D01*
X24458Y40706D01*
X24293Y41395D01*
X24022Y42049D01*
X23652Y42653D01*
X23192Y43192D01*
X22653Y43652D01*
X22049Y44022D01*
X21395Y44293D01*
X20706Y44458D01*
X20000Y44514D01*
X19998Y44514D01*
Y45486D01*
X20000Y45486D01*
G37*
G36*
X10000D02*X10706Y45542D01*
X11395Y45707D01*
X12049Y45978D01*
X12653Y46348D01*
X13192Y46808D01*
X13652Y47347D01*
X14022Y47951D01*
X14293Y48605D01*
X14458Y49294D01*
X14500Y50000D01*
X14458Y50706D01*
X14293Y51395D01*
X14065Y51944D01*
X15281Y53159D01*
X16781D01*
X16348Y52653D01*
X15978Y52049D01*
X15707Y51395D01*
X15542Y50706D01*
X15486Y50000D01*
X15542Y49294D01*
X15707Y48605D01*
X15978Y47951D01*
X16348Y47347D01*
X16808Y46808D01*
X17347Y46348D01*
X17951Y45978D01*
X18605Y45707D01*
X19294Y45542D01*
X19998Y45486D01*
Y44514D01*
X19294Y44458D01*
X18605Y44293D01*
X17951Y44022D01*
X17347Y43652D01*
X16808Y43192D01*
X16348Y42653D01*
X15978Y42049D01*
X15707Y41395D01*
X15542Y40706D01*
X15486Y40000D01*
X15542Y39294D01*
X15707Y38605D01*
X15978Y37951D01*
X16348Y37347D01*
X16808Y36808D01*
X17347Y36348D01*
X17951Y35978D01*
X18605Y35707D01*
X19294Y35542D01*
X19998Y35486D01*
Y34505D01*
X19567Y34484D01*
X19137Y34422D01*
X18716Y34318D01*
X18306Y34175D01*
X18200Y34122D01*
X18104Y34053D01*
X18019Y33970D01*
X17949Y33875D01*
X17894Y33769D01*
X17857Y33657D01*
X17837Y33540D01*
X17836Y33421D01*
X17854Y33304D01*
X17890Y33191D01*
X17943Y33085D01*
X18012Y32988D01*
X18095Y32904D01*
X18191Y32833D01*
X18296Y32779D01*
X18408Y32741D01*
X18525Y32722D01*
X18644Y32721D01*
X18761Y32739D01*
X18874Y32777D01*
X19145Y32876D01*
X19425Y32944D01*
X19711Y32986D01*
X19998Y33000D01*
Y31500D01*
X17270D01*
X17255Y31591D01*
X17218Y31703D01*
X17164Y31807D01*
X17094Y31902D01*
X17009Y31985D01*
X16913Y32054D01*
X16808Y32107D01*
X16695Y32143D01*
X16579Y32160D01*
X16461Y32159D01*
X16344Y32140D01*
X16232Y32103D01*
X16127Y32048D01*
X16032Y31978D01*
X15949Y31894D01*
X15881Y31798D01*
X15830Y31692D01*
X15760Y31500D01*
X14243D01*
X14175Y31694D01*
X14122Y31800D01*
X14053Y31896D01*
X13970Y31981D01*
X13875Y32051D01*
X13769Y32106D01*
X13657Y32143D01*
X13540Y32163D01*
X13421Y32164D01*
X13304Y32146D01*
X13191Y32110D01*
X13085Y32057D01*
X12988Y31988D01*
X12904Y31905D01*
X12833Y31809D01*
X12779Y31704D01*
X12741Y31592D01*
X12726Y31500D01*
X10000D01*
X9993Y31500D01*
Y33000D01*
X10000Y33000D01*
X10289Y32986D01*
X10575Y32944D01*
X10855Y32876D01*
X11128Y32780D01*
X11239Y32742D01*
X11356Y32725D01*
X11474Y32725D01*
X11591Y32745D01*
X11703Y32782D01*
X11807Y32836D01*
X11902Y32906D01*
X11985Y32991D01*
X12054Y33087D01*
X12107Y33192D01*
X12143Y33305D01*
X12160Y33421D01*
X12159Y33539D01*
X12140Y33656D01*
X12103Y33768D01*
X12048Y33873D01*
X11978Y33968D01*
X11894Y34051D01*
X11798Y34119D01*
X11692Y34170D01*
X11284Y34318D01*
X10863Y34422D01*
X10433Y34484D01*
X10000Y34505D01*
X9993Y34505D01*
Y35487D01*
X10000Y35486D01*
X10706Y35542D01*
X11395Y35707D01*
X12049Y35978D01*
X12653Y36348D01*
X13192Y36808D01*
X13652Y37347D01*
X14022Y37951D01*
X14293Y38605D01*
X14458Y39294D01*
X14500Y40000D01*
X14458Y40706D01*
X14293Y41395D01*
X14022Y42049D01*
X13652Y42653D01*
X13192Y43192D01*
X12653Y43652D01*
X12049Y44022D01*
X11395Y44293D01*
X10706Y44458D01*
X10000Y44514D01*
X9993Y44513D01*
Y45487D01*
X10000Y45486D01*
G37*
G36*
Y55486D02*X10706Y55542D01*
X11395Y55707D01*
X12049Y55978D01*
X12653Y56348D01*
X13192Y56808D01*
X13652Y57347D01*
X14022Y57951D01*
X14293Y58605D01*
X14458Y59294D01*
X14500Y60000D01*
X14458Y60706D01*
X14293Y61395D01*
X14022Y62049D01*
X13652Y62653D01*
X13192Y63192D01*
X12653Y63652D01*
X12394Y63811D01*
X12428Y63819D01*
X12646Y63909D01*
X12847Y64032D01*
X13027Y64186D01*
X13065Y64231D01*
X16019Y67185D01*
X16064Y67223D01*
X16217Y67402D01*
X16217Y67403D01*
X16266Y67482D01*
X16348Y67347D01*
X16808Y66808D01*
X17347Y66348D01*
X17951Y65978D01*
X18605Y65707D01*
X19294Y65542D01*
X20000Y65486D01*
X20706Y65542D01*
X21395Y65707D01*
X22049Y65978D01*
X22653Y66348D01*
X23192Y66808D01*
X23652Y67347D01*
X24022Y67951D01*
X24293Y68605D01*
X24458Y69294D01*
X24500Y70000D01*
X24458Y70706D01*
X24293Y71395D01*
X24065Y71944D01*
X24341Y72220D01*
X80403D01*
X80337Y72163D01*
X80025Y71798D01*
X79774Y71389D01*
X79590Y70945D01*
X79478Y70479D01*
X79441Y70000D01*
X79478Y69521D01*
X79590Y69055D01*
X79774Y68611D01*
X80025Y68202D01*
X80337Y67837D01*
X80702Y67525D01*
X81111Y67274D01*
X81555Y67090D01*
X82021Y66978D01*
X82500Y66941D01*
X82979Y66978D01*
X83445Y67090D01*
X83889Y67274D01*
X84298Y67525D01*
X84663Y67837D01*
X84975Y68202D01*
X85226Y68611D01*
X85410Y69055D01*
X85522Y69521D01*
X85550Y70000D01*
X85522Y70479D01*
X85410Y70945D01*
X85226Y71389D01*
X84975Y71798D01*
X84663Y72163D01*
X84597Y72220D01*
X96083D01*
X95978Y72049D01*
X95707Y71395D01*
X95542Y70706D01*
X95486Y70000D01*
X95542Y69294D01*
X95707Y68605D01*
X95978Y67951D01*
X96348Y67347D01*
X96808Y66808D01*
X97347Y66348D01*
X97951Y65978D01*
X97963Y65973D01*
X24532D01*
X24473Y65977D01*
X24237Y65959D01*
X24008Y65904D01*
X23790Y65813D01*
X23588Y65690D01*
X23588Y65690D01*
X23409Y65537D01*
X23371Y65492D01*
X21944Y64065D01*
X21395Y64293D01*
X20706Y64458D01*
X20000Y64514D01*
X19294Y64458D01*
X18605Y64293D01*
X17951Y64022D01*
X17347Y63652D01*
X16808Y63192D01*
X16348Y62653D01*
X15978Y62049D01*
X15707Y61395D01*
X15542Y60706D01*
X15486Y60000D01*
X15542Y59294D01*
X15707Y58605D01*
X15978Y57951D01*
X16348Y57347D01*
X16808Y56808D01*
X17347Y56348D01*
X17655Y56159D01*
X14718D01*
X14659Y56164D01*
X14424Y56146D01*
X14194Y56090D01*
X13976Y56000D01*
X13775Y55877D01*
X13775Y55877D01*
X13596Y55723D01*
X13557Y55679D01*
X11944Y54065D01*
X11395Y54293D01*
X10706Y54458D01*
X10000Y54514D01*
X9993Y54513D01*
Y55487D01*
X10000Y55486D01*
G37*
G36*
X20000Y115486D02*X20706Y115542D01*
X21395Y115707D01*
X21944Y115935D01*
X24311Y113568D01*
X24290Y113549D01*
X24004Y113214D01*
X23773Y112838D01*
X23679Y112609D01*
X23652Y112653D01*
X23192Y113192D01*
X22653Y113652D01*
X22049Y114022D01*
X21395Y114293D01*
X20706Y114458D01*
X20000Y114514D01*
X19993Y114513D01*
Y115487D01*
X20000Y115486D01*
G37*
G36*
Y135486D02*X20706Y135542D01*
X21395Y135707D01*
X22049Y135978D01*
X22653Y136348D01*
X23192Y136808D01*
X23652Y137347D01*
X24022Y137951D01*
X24249Y138500D01*
X41247D01*
X41306Y138495D01*
X41541Y138514D01*
X41541Y138514D01*
X41771Y138569D01*
X41989Y138659D01*
X42190Y138783D01*
X42370Y138936D01*
X42408Y138981D01*
X46503Y143076D01*
X46675Y143034D01*
X47114Y143000D01*
X47554Y143034D01*
X47982Y143137D01*
X48389Y143306D01*
X48765Y143536D01*
X49100Y143822D01*
X49386Y144157D01*
X49617Y144533D01*
X49785Y144940D01*
X49888Y145369D01*
X49914Y145808D01*
X49888Y146248D01*
X49785Y146676D01*
X49617Y147083D01*
X49386Y147459D01*
X49100Y147794D01*
X48765Y148080D01*
X48389Y148311D01*
X47982Y148479D01*
X47554Y148582D01*
X47114Y148617D01*
X46675Y148582D01*
X46246Y148479D01*
X45839Y148311D01*
X45463Y148080D01*
X45403Y148029D01*
X49603Y152229D01*
X67367D01*
X67200Y152034D01*
X66917Y151571D01*
X66709Y151069D01*
X66582Y150541D01*
X66539Y150000D01*
X66582Y149459D01*
X66709Y148931D01*
X66917Y148429D01*
X67200Y147966D01*
X67343Y147799D01*
X67152Y147962D01*
X66662Y148262D01*
X66131Y148482D01*
X65573Y148616D01*
X65000Y148661D01*
X64427Y148616D01*
X63869Y148482D01*
X63338Y148262D01*
X62848Y147962D01*
X62411Y147589D01*
X62038Y147152D01*
X61738Y146662D01*
X61518Y146131D01*
X61384Y145573D01*
X61339Y145000D01*
X61384Y144427D01*
X61518Y143869D01*
X61738Y143338D01*
X61857Y143143D01*
X61662Y143262D01*
X61131Y143482D01*
X60573Y143616D01*
X60000Y143661D01*
X59427Y143616D01*
X58869Y143482D01*
X58338Y143262D01*
X57848Y142962D01*
X57411Y142589D01*
X57038Y142152D01*
X56738Y141662D01*
X56518Y141131D01*
X56384Y140573D01*
X56339Y140000D01*
X56384Y139427D01*
X56518Y138869D01*
X56738Y138338D01*
X57038Y137848D01*
X57201Y137657D01*
X57034Y137800D01*
X56571Y138083D01*
X56069Y138291D01*
X55541Y138418D01*
X55000Y138461D01*
X54459Y138418D01*
X53931Y138291D01*
X53429Y138083D01*
X52966Y137800D01*
X52553Y137447D01*
X52200Y137034D01*
X51917Y136571D01*
X51709Y136069D01*
X51582Y135541D01*
X51539Y135000D01*
X51582Y134459D01*
X51709Y133931D01*
X51917Y133429D01*
X52200Y132966D01*
X52265Y132890D01*
X37257D01*
X35559Y134588D01*
X35600Y134760D01*
X35626Y135199D01*
X35600Y135639D01*
X35498Y136067D01*
X35329Y136474D01*
X35099Y136850D01*
X34812Y137185D01*
X34477Y137471D01*
X34101Y137702D01*
X33694Y137870D01*
X33266Y137973D01*
X32826Y138008D01*
X32387Y137973D01*
X31958Y137870D01*
X31551Y137702D01*
X31176Y137471D01*
X30840Y137185D01*
X30554Y136850D01*
X30324Y136474D01*
X30155Y136067D01*
X30052Y135639D01*
X30018Y135199D01*
X30052Y134760D01*
X30155Y134331D01*
X30324Y133924D01*
X30554Y133548D01*
X30840Y133213D01*
X31176Y132927D01*
X31551Y132697D01*
X31958Y132528D01*
X32387Y132425D01*
X32826Y132391D01*
X33266Y132425D01*
X33438Y132466D01*
X35533Y130371D01*
X35572Y130326D01*
X35751Y130173D01*
X35952Y130050D01*
X36170Y129959D01*
X36400Y129904D01*
X36635Y129886D01*
X36694Y129890D01*
X93756D01*
X93815Y129886D01*
X94050Y129904D01*
X94050Y129904D01*
X94280Y129959D01*
X94498Y130050D01*
X94699Y130173D01*
X94878Y130326D01*
X94917Y130371D01*
X95633Y131088D01*
X95542Y130706D01*
X95486Y130000D01*
X95542Y129294D01*
X95547Y129271D01*
X95440Y129363D01*
X95239Y129486D01*
X95021Y129576D01*
X94791Y129631D01*
X94556Y129650D01*
X94497Y129645D01*
X66593D01*
X66534Y129650D01*
X66298Y129631D01*
X66069Y129576D01*
X65851Y129486D01*
X65649Y129363D01*
X65649Y129362D01*
X65470Y129209D01*
X65432Y129164D01*
X65190Y128923D01*
X65018Y128964D01*
X64579Y128999D01*
X64139Y128964D01*
X63711Y128861D01*
X63304Y128693D01*
X62928Y128462D01*
X62593Y128176D01*
X62307Y127841D01*
X62076Y127465D01*
X61908Y127058D01*
X61805Y126630D01*
X61770Y126190D01*
X61805Y125751D01*
X61908Y125322D01*
X62076Y124915D01*
X62307Y124539D01*
X62543Y124262D01*
X61077D01*
X61116Y124427D01*
X61150Y125000D01*
X61116Y125573D01*
X60982Y126131D01*
X60762Y126662D01*
X60462Y127152D01*
X60089Y127589D01*
X59652Y127962D01*
X59162Y128262D01*
X58631Y128482D01*
X58073Y128616D01*
X57500Y128661D01*
X56927Y128616D01*
X56369Y128482D01*
X55838Y128262D01*
X55348Y127962D01*
X54911Y127589D01*
X54538Y127152D01*
X54238Y126662D01*
X54018Y126131D01*
X53884Y125573D01*
X53849Y125128D01*
X53798Y125132D01*
X53740Y125128D01*
X45522D01*
X45463Y125132D01*
X45228Y125114D01*
X44998Y125059D01*
X44780Y124968D01*
X44579Y124845D01*
X44579Y124845D01*
X44399Y124691D01*
X44361Y124647D01*
X26215Y106500D01*
X22831D01*
X23192Y106808D01*
X23652Y107347D01*
X24022Y107951D01*
X24293Y108605D01*
X24458Y109294D01*
X24466Y109427D01*
X24625Y109291D01*
X25001Y109061D01*
X25408Y108892D01*
X25837Y108789D01*
X26276Y108755D01*
X26715Y108789D01*
X27144Y108892D01*
X27551Y109061D01*
X27927Y109291D01*
X28262Y109577D01*
X28548Y109913D01*
X28778Y110288D01*
X28947Y110695D01*
X29050Y111124D01*
X29076Y111563D01*
X29050Y112003D01*
X28947Y112431D01*
X28778Y112838D01*
X28548Y113214D01*
X28262Y113549D01*
X27927Y113836D01*
X27764Y113935D01*
X27762Y113959D01*
X27762Y113959D01*
X27707Y114189D01*
X27617Y114407D01*
X27493Y114608D01*
X27340Y114788D01*
X27295Y114826D01*
X24065Y118056D01*
X24293Y118605D01*
X24458Y119294D01*
X24500Y120000D01*
X24458Y120706D01*
X24293Y121395D01*
X24022Y122049D01*
X23652Y122653D01*
X23192Y123192D01*
X22653Y123652D01*
X22049Y124022D01*
X21395Y124293D01*
X20706Y124458D01*
X20000Y124514D01*
X19993Y124513D01*
Y125487D01*
X20000Y125486D01*
X20706Y125542D01*
X21395Y125707D01*
X22049Y125978D01*
X22653Y126348D01*
X23192Y126808D01*
X23652Y127347D01*
X24022Y127951D01*
X24293Y128605D01*
X24458Y129294D01*
X24500Y130000D01*
X24458Y130706D01*
X24293Y131395D01*
X24022Y132049D01*
X23652Y132653D01*
X23192Y133192D01*
X22653Y133652D01*
X22049Y134022D01*
X21395Y134293D01*
X20706Y134458D01*
X20000Y134514D01*
X19993Y134513D01*
Y135487D01*
X20000Y135486D01*
G37*
G36*
X14458Y120706D02*X14293Y121395D01*
X14022Y122049D01*
X13652Y122653D01*
X13192Y123192D01*
X12653Y123652D01*
X12049Y124022D01*
X11395Y124293D01*
X10706Y124458D01*
X10000Y124514D01*
X9993Y124513D01*
Y125487D01*
X10000Y125486D01*
X10706Y125542D01*
X11395Y125707D01*
X12049Y125978D01*
X12653Y126348D01*
X13192Y126808D01*
X13652Y127347D01*
X14022Y127951D01*
X14293Y128605D01*
X14458Y129294D01*
X14500Y130000D01*
X14458Y130706D01*
X14293Y131395D01*
X14022Y132049D01*
X13652Y132653D01*
X13192Y133192D01*
X12653Y133652D01*
X12049Y134022D01*
X11395Y134293D01*
X10706Y134458D01*
X10000Y134514D01*
X9993Y134513D01*
Y135487D01*
X10000Y135486D01*
X10706Y135542D01*
X11395Y135707D01*
X12049Y135978D01*
X12653Y136348D01*
X13192Y136808D01*
X13652Y137347D01*
X14022Y137951D01*
X14293Y138605D01*
X14458Y139294D01*
X14500Y140000D01*
X14458Y140706D01*
X14293Y141395D01*
X14022Y142049D01*
X13652Y142653D01*
X13192Y143192D01*
X12653Y143652D01*
X12049Y144022D01*
X11395Y144293D01*
X10706Y144458D01*
X10000Y144514D01*
X9993Y144513D01*
Y145487D01*
X10000Y145486D01*
X10706Y145542D01*
X11395Y145707D01*
X11944Y145935D01*
X13585Y144293D01*
X13623Y144249D01*
X13803Y144095D01*
X13803Y144095D01*
X14004Y143972D01*
X14222Y143882D01*
X14452Y143826D01*
X14687Y143808D01*
X14746Y143813D01*
X17609D01*
X17347Y143652D01*
X16808Y143192D01*
X16348Y142653D01*
X15978Y142049D01*
X15707Y141395D01*
X15542Y140706D01*
X15486Y140000D01*
X15542Y139294D01*
X15707Y138605D01*
X15978Y137951D01*
X16348Y137347D01*
X16808Y136808D01*
X17347Y136348D01*
X17951Y135978D01*
X18605Y135707D01*
X19294Y135542D01*
X19993Y135487D01*
Y134513D01*
X19294Y134458D01*
X18605Y134293D01*
X17951Y134022D01*
X17347Y133652D01*
X16808Y133192D01*
X16348Y132653D01*
X15978Y132049D01*
X15707Y131395D01*
X15542Y130706D01*
X15486Y130000D01*
X15542Y129294D01*
X15707Y128605D01*
X15978Y127951D01*
X16348Y127347D01*
X16808Y126808D01*
X17347Y126348D01*
X17951Y125978D01*
X18605Y125707D01*
X19294Y125542D01*
X19993Y125487D01*
Y124513D01*
X19294Y124458D01*
X18605Y124293D01*
X17951Y124022D01*
X17347Y123652D01*
X16808Y123192D01*
X16348Y122653D01*
X15978Y122049D01*
X15707Y121395D01*
X15542Y120706D01*
X15486Y120000D01*
X15542Y119294D01*
X15707Y118605D01*
X15978Y117951D01*
X16348Y117347D01*
X16808Y116808D01*
X17347Y116348D01*
X17951Y115978D01*
X18605Y115707D01*
X19294Y115542D01*
X19993Y115487D01*
Y114513D01*
X19294Y114458D01*
X18605Y114293D01*
X17951Y114022D01*
X17347Y113652D01*
X16808Y113192D01*
X16348Y112653D01*
X15978Y112049D01*
X15707Y111395D01*
X15542Y110706D01*
X15486Y110000D01*
X15542Y109294D01*
X15707Y108605D01*
X15978Y107951D01*
X16348Y107347D01*
X16808Y106808D01*
X17169Y106500D01*
X12831D01*
X13192Y106808D01*
X13652Y107347D01*
X14022Y107951D01*
X14293Y108605D01*
X14458Y109294D01*
X14500Y110000D01*
X14458Y110706D01*
X14293Y111395D01*
X14022Y112049D01*
X13652Y112653D01*
X13192Y113192D01*
X12653Y113652D01*
X12049Y114022D01*
X11395Y114293D01*
X10706Y114458D01*
X10000Y114514D01*
X9993Y114513D01*
Y115487D01*
X10000Y115486D01*
X10706Y115542D01*
X11395Y115707D01*
X12049Y115978D01*
X12653Y116348D01*
X13192Y116808D01*
X13652Y117347D01*
X14022Y117951D01*
X14293Y118605D01*
X14458Y119294D01*
X14500Y120000D01*
X14458Y120706D01*
G37*
G36*
X9993Y209000D02*Y208488D01*
X6387D01*
Y209000D01*
X9993D01*
G37*
G36*
X6808Y36808D02*X7347Y36348D01*
X7951Y35978D01*
X8605Y35707D01*
X9294Y35542D01*
X9993Y35487D01*
Y34505D01*
X9567Y34484D01*
X9137Y34422D01*
X8716Y34318D01*
X8306Y34175D01*
X8200Y34122D01*
X8104Y34053D01*
X8019Y33970D01*
X7949Y33875D01*
X7894Y33769D01*
X7857Y33657D01*
X7837Y33540D01*
X7836Y33421D01*
X7854Y33304D01*
X7890Y33191D01*
X7943Y33085D01*
X8012Y32988D01*
X8095Y32904D01*
X8191Y32833D01*
X8296Y32779D01*
X8408Y32741D01*
X8525Y32722D01*
X8644Y32721D01*
X8761Y32739D01*
X8874Y32777D01*
X9145Y32876D01*
X9425Y32944D01*
X9711Y32986D01*
X9993Y33000D01*
Y31500D01*
X9765Y31486D01*
X9535Y31431D01*
X9317Y31341D01*
X9116Y31217D01*
X8936Y31064D01*
X8783Y30884D01*
X8659Y30683D01*
X8569Y30465D01*
X8514Y30235D01*
X8495Y30000D01*
X8514Y29765D01*
X8569Y29535D01*
X8659Y29317D01*
X8783Y29116D01*
X8936Y28936D01*
X9116Y28783D01*
X9317Y28659D01*
X9535Y28569D01*
X9765Y28514D01*
X9993Y28500D01*
Y27000D01*
X9711Y27014D01*
X9425Y27056D01*
X9145Y27124D01*
X8872Y27220D01*
X8761Y27258D01*
X8644Y27275D01*
X8526Y27275D01*
X8409Y27255D01*
X8297Y27218D01*
X8193Y27164D01*
X8098Y27094D01*
X8015Y27009D01*
X7946Y26913D01*
X7893Y26808D01*
X7857Y26695D01*
X7840Y26579D01*
X7841Y26461D01*
X7860Y26344D01*
X7897Y26232D01*
X7952Y26127D01*
X8022Y26032D01*
X8106Y25949D01*
X8202Y25881D01*
X8308Y25830D01*
X8716Y25682D01*
X9137Y25578D01*
X9567Y25516D01*
X9993Y25495D01*
Y1000D01*
X6387D01*
Y27849D01*
X6460Y27837D01*
X6579Y27836D01*
X6696Y27854D01*
X6809Y27890D01*
X6915Y27943D01*
X7012Y28012D01*
X7096Y28095D01*
X7167Y28191D01*
X7221Y28296D01*
X7259Y28408D01*
X7278Y28525D01*
X7279Y28644D01*
X7261Y28761D01*
X7223Y28874D01*
X7124Y29145D01*
X7056Y29425D01*
X7014Y29711D01*
X7000Y30000D01*
X7014Y30289D01*
X7056Y30575D01*
X7124Y30855D01*
X7220Y31128D01*
X7258Y31239D01*
X7275Y31356D01*
X7275Y31474D01*
X7255Y31591D01*
X7218Y31703D01*
X7164Y31807D01*
X7094Y31902D01*
X7009Y31985D01*
X6913Y32054D01*
X6808Y32107D01*
X6695Y32143D01*
X6579Y32160D01*
X6461Y32159D01*
X6387Y32147D01*
Y37302D01*
X6808Y36808D01*
G37*
G36*
Y46808D02*X7347Y46348D01*
X7951Y45978D01*
X8605Y45707D01*
X9294Y45542D01*
X9993Y45487D01*
Y44513D01*
X9294Y44458D01*
X8605Y44293D01*
X7951Y44022D01*
X7347Y43652D01*
X6808Y43192D01*
X6387Y42698D01*
Y47302D01*
X6808Y46808D01*
G37*
G36*
Y56808D02*X7347Y56348D01*
X7951Y55978D01*
X8605Y55707D01*
X9294Y55542D01*
X9993Y55487D01*
Y54513D01*
X9294Y54458D01*
X8605Y54293D01*
X7951Y54022D01*
X7347Y53652D01*
X6808Y53192D01*
X6387Y52698D01*
Y57302D01*
X6808Y56808D01*
G37*
G36*
X7134Y64230D02*X7173Y64186D01*
X7352Y64032D01*
X7352Y64032D01*
X7554Y63909D01*
X7681Y63856D01*
X7347Y63652D01*
X6808Y63192D01*
X6387Y62698D01*
Y64978D01*
X7134Y64230D01*
G37*
G36*
X6808Y106808D02*X7347Y106348D01*
X7587Y106201D01*
X7426Y106064D01*
X7388Y106019D01*
X6387Y105018D01*
Y107302D01*
X6808Y106808D01*
G37*
G36*
X9294Y114458D02*X8605Y114293D01*
X7951Y114022D01*
X7347Y113652D01*
X6808Y113192D01*
X6387Y112698D01*
Y117302D01*
X6808Y116808D01*
X7347Y116348D01*
X7951Y115978D01*
X8605Y115707D01*
X9294Y115542D01*
X9993Y115487D01*
Y114513D01*
X9294Y114458D01*
G37*
G36*
X6348Y112653D02*X5978Y112049D01*
X5707Y111395D01*
X5542Y110706D01*
X5486Y110000D01*
X5542Y109294D01*
X5707Y108605D01*
X5978Y107951D01*
X6348Y107347D01*
X6387Y107302D01*
Y105018D01*
X2145Y100777D01*
X2101Y100738D01*
X1947Y100559D01*
X1824Y100357D01*
X1734Y100139D01*
X1678Y99910D01*
X1678Y99909D01*
X1660Y99674D01*
X1665Y99616D01*
Y70380D01*
X1660Y70322D01*
X1678Y70086D01*
X1734Y69857D01*
X1824Y69639D01*
X1947Y69437D01*
X2101Y69258D01*
X2145Y69219D01*
X6387Y64978D01*
Y62698D01*
X6348Y62653D01*
X5978Y62049D01*
X5707Y61395D01*
X5542Y60706D01*
X5486Y60000D01*
X5542Y59294D01*
X5707Y58605D01*
X5978Y57951D01*
X6348Y57347D01*
X6387Y57302D01*
Y52698D01*
X6348Y52653D01*
X5978Y52049D01*
X5707Y51395D01*
X5542Y50706D01*
X5486Y50000D01*
X5542Y49294D01*
X5707Y48605D01*
X5978Y47951D01*
X6348Y47347D01*
X6387Y47302D01*
Y42698D01*
X6348Y42653D01*
X5978Y42049D01*
X5707Y41395D01*
X5542Y40706D01*
X5486Y40000D01*
X5542Y39294D01*
X5707Y38605D01*
X5978Y37951D01*
X6348Y37347D01*
X6387Y37302D01*
Y32147D01*
X6344Y32140D01*
X6232Y32103D01*
X6127Y32048D01*
X6032Y31978D01*
X5949Y31894D01*
X5881Y31798D01*
X5830Y31692D01*
X5682Y31284D01*
X5578Y30863D01*
X5516Y30433D01*
X5495Y30000D01*
X5516Y29567D01*
X5578Y29137D01*
X5682Y28716D01*
X5825Y28306D01*
X5878Y28200D01*
X5947Y28104D01*
X6030Y28019D01*
X6125Y27949D01*
X6231Y27894D01*
X6343Y27857D01*
X6387Y27849D01*
Y1000D01*
X1000D01*
Y209000D01*
X6387D01*
Y208488D01*
X5845D01*
X5786Y208493D01*
X5550Y208474D01*
X5321Y208419D01*
X5103Y208329D01*
X4901Y208205D01*
X4901Y208205D01*
X4722Y208052D01*
X4684Y208007D01*
X2388Y205712D01*
X2343Y205673D01*
X2190Y205494D01*
X2066Y205293D01*
X1976Y205074D01*
X1921Y204845D01*
X1921Y204844D01*
X1902Y204609D01*
X1907Y204551D01*
Y126652D01*
X1902Y126593D01*
X1921Y126358D01*
X1976Y126128D01*
X2066Y125910D01*
X2190Y125709D01*
X2343Y125529D01*
X2388Y125491D01*
X5935Y121944D01*
X5707Y121395D01*
X5542Y120706D01*
X5486Y120000D01*
X5542Y119294D01*
X5707Y118605D01*
X5978Y117951D01*
X6348Y117347D01*
X6387Y117302D01*
Y112698D01*
X6348Y112653D01*
G37*
G36*
X9294Y144458D02*X8605Y144293D01*
X7951Y144022D01*
X7347Y143652D01*
X6935Y143300D01*
Y146700D01*
X7347Y146348D01*
X7951Y145978D01*
X8605Y145707D01*
X9294Y145542D01*
X9993Y145487D01*
Y144513D01*
X9294Y144458D01*
G37*
G36*
Y134458D02*X8605Y134293D01*
X8056Y134065D01*
X6935Y135186D01*
Y136700D01*
X7347Y136348D01*
X7951Y135978D01*
X8605Y135707D01*
X9294Y135542D01*
X9993Y135487D01*
Y134513D01*
X9294Y134458D01*
G37*
G36*
Y124458D02*X8605Y124293D01*
X8056Y124065D01*
X4907Y127214D01*
Y132972D01*
X5935Y131944D01*
X5707Y131395D01*
X5542Y130706D01*
X5486Y130000D01*
X5542Y129294D01*
X5707Y128605D01*
X5978Y127951D01*
X6348Y127347D01*
X6808Y126808D01*
X7347Y126348D01*
X7951Y125978D01*
X8605Y125707D01*
X9294Y125542D01*
X9993Y125487D01*
Y124513D01*
X9294Y124458D01*
G37*
G54D25*X20000Y100000D02*X29972D01*
X8490Y105000D02*X3165Y99674D01*
X29644Y94796D02*X8355D01*
X5335Y91777D01*
X27752Y90000D02*X20000D01*
X29972Y100000D02*X32275Y102303D01*
X94183Y99444D02*X87956D01*
X14507Y85493D02*X88133D01*
X36688Y91709D02*X55998D01*
X87051Y96134D02*X97692Y85493D01*
X103149D01*
X98133Y95493D02*X94183Y99444D01*
X5335Y91777D02*Y84665D01*
X10000Y90000D02*X14507Y85493D01*
X105493Y95493D02*X98133D01*
X42353Y104965D02*Y104601D01*
X63154Y103596D02*X45660D01*
X42353Y104601D02*X27752Y90000D01*
X254215Y81140D02*X209751D01*
X253402Y100730D02*X208552D01*
X208106Y100283D01*
X218766Y94563D02*X218320Y94117D01*
X215581D01*
X215135Y94563D01*
X103149Y85493D02*X112950Y95295D01*
X122017D01*
X215135Y94563D02*X184563D01*
X180000Y90000D01*
X124508Y85492D02*X255334D01*
X124508D02*X120000Y90000D01*
X122017Y95295D02*X129227Y102505D01*
X173293D01*
X258567Y85493D02*X254215Y81140D01*
X257672Y105000D02*X253402Y100730D01*
X315280Y94563D02*X218766D01*
X255334Y85492D02*X259843Y90000D01*
Y100000D02*X257266Y97423D01*
X322024Y85493D02*X258567D01*
X314843Y105000D02*X257672D01*
X319843Y90000D02*X315280Y94563D01*
X257266Y97423D02*X216950D01*
X319843Y100000D02*X324409Y95433D01*
X319843Y110000D02*X314843Y105000D01*
X319843Y120000D02*X326572Y113270D01*
X324409Y95433D02*Y87878D01*
X322024Y85493D01*
X326572Y113270D02*Y80326D01*
X321524Y75278D01*
X325077Y34606D02*X315974D01*
X306762Y25394D01*
X321758Y25493D02*X313386D01*
X319843Y40000D02*X312649D01*
X307962Y35313D01*
X319843Y130000D02*X315298Y134544D01*
X315266Y145423D02*X319843Y150000D01*
Y200000D02*X313211Y206631D01*
X319843Y140000D02*X324417Y135426D01*
X319843Y160000D02*X334444Y145398D01*
X321311Y165000D02*X336571Y149740D01*
X324417Y135426D02*Y127924D01*
X334444Y145398D02*Y43973D01*
X325077Y34606D01*
X336571Y149740D02*Y40306D01*
X321758Y25493D01*
X324417Y127924D02*X321493Y125000D01*
X209751Y81140D02*X207587Y78976D01*
X214387Y77415D02*X214179Y77207D01*
X184544Y134544D02*X180000Y130000D01*
X254565Y111893D02*X209350D01*
X225720Y125455D02*Y125454D01*
X255297D01*
X259834Y120000D02*X255125Y115291D01*
X230372Y119190D02*X252659D01*
X257976Y124507D01*
X315298Y134544D02*X184544D01*
X255297Y125454D02*X259843Y130000D01*
Y120000D02*X259834D01*
X257976Y124507D02*X265141D01*
X311308Y125000D02*X301308Y115000D01*
X257672D01*
X254565Y111893D01*
X236307Y145423D02*X315266D01*
X227780Y144744D02*X232524Y140000D01*
X259843D01*
Y110000D02*X255715D01*
X250969Y105254D01*
X160168Y71057D02*X163637Y74526D01*
X212184D01*
X142444Y60000D02*X146985Y64541D01*
X178026Y25493D02*X172025Y31494D01*
Y38710D01*
X220024Y45404D02*X136564D01*
X212184Y74526D02*X212809Y73900D01*
X217777D01*
X188041Y25493D02*X178026D01*
X184687Y35313D02*X180000Y40000D01*
X256054Y77415D02*X214387D01*
X217777Y73900D02*X219156Y75279D01*
X254564D01*
X258191Y75278D02*X256054Y77415D01*
X221507Y25394D02*X218743Y28158D01*
X253991Y59702D02*X249663Y55375D01*
X257672Y65000D02*X250700Y71972D01*
X222407D01*
X146985Y64541D02*X254956D01*
X250969Y105254D02*X175220D01*
X170474Y110000D01*
X249663Y55375D02*X131269D01*
X306762Y25394D02*X221507D01*
X254564Y75279D02*X259843Y70000D01*
X254956Y64541D02*X259496Y60000D01*
X304843Y65000D02*X257672D01*
X321524Y75278D02*X258191D01*
X331028Y45404D02*X220024D01*
X259496Y60000D02*X259843D01*
X319843Y50000D02*X304843Y65000D01*
X313386Y25493D02*X303278Y15385D01*
X198150D01*
X307962Y35313D02*X184687D01*
X20000Y60000D02*X24473Y64473D01*
X114473D01*
X115341Y54659D02*X14659D01*
X114473Y64473D02*X120000Y70000D01*
X117857Y55375D02*X115282Y57950D01*
Y61739D01*
X118728Y65185D01*
X114687Y45313D02*X24687D01*
X20000Y50000D01*
X120000Y70000D02*X121057Y71057D01*
X120000Y50000D02*X115341Y54659D01*
X131269Y55375D02*X130602Y56042D01*
X126530D02*X125863Y55375D01*
X117857D01*
X118728Y65185D02*X123409D01*
X136564Y45404D02*X129428Y52539D01*
X121057Y71057D02*X160168D01*
X120000Y60000D02*X142444D01*
X130602Y56042D02*X126530D01*
X3165Y99674D02*Y70322D01*
X8237Y65250D01*
X15000Y68287D02*Y75000D01*
X5335Y84665D02*X10000Y80000D01*
X20000Y70000D02*X23720Y73720D01*
X8237Y65250D02*X11963D01*
X15000Y68287D01*
Y75000D02*X20000Y80000D01*
X14659Y54659D02*X10000Y50000D01*
X40346Y105498D02*X29644Y94796D01*
X47205Y106902D02*X44291D01*
X42353Y104965D01*
X23720Y73720D02*X97069D01*
X97302Y73487D01*
X102698D01*
X87956Y99444D02*X81675Y105725D01*
X88133Y85493D02*X98133Y75493D01*
X101867D01*
X106373Y80000D01*
X120000Y110000D02*X105493Y95493D01*
X170474Y110000D02*X120000D01*
X106373Y80000D02*X120000D01*
X55998Y91709D02*X80995Y116706D01*
X75009Y115451D02*X63154Y103596D01*
X102698Y73487D02*X104562Y75351D01*
X121949D01*
X124508Y77910D01*
X152064Y20836D02*X132343D01*
X177659Y4179D02*X46739D01*
X37308Y13609D01*
X180000Y10000D02*X165000Y25000D01*
X132343Y20836D02*X126854Y15348D01*
X124508Y77910D02*Y85492D01*
X120000Y40000D02*X114687Y45313D01*
X40246Y15348D02*X25594Y30000D01*
X20000D01*
X10000D01*
X126854Y15348D02*X40246D01*
X62383Y39775D02*X66796Y35363D01*
X164637D01*
X180000Y20000D01*
X165000Y25000D02*X35000D01*
X20000Y40000D01*
X198150Y15385D02*X188041Y25493D01*
X120000Y130000D02*X121413Y128587D01*
X93487Y124537D02*X91886Y126139D01*
X74661D01*
X121413Y128587D02*X150453D01*
X120000Y140000D02*X157170D01*
X161915Y144744D01*
X227780D01*
X150453Y128587D02*X153585Y125455D01*
X255125Y115291D02*X150406D01*
X147058Y118639D01*
X137116D01*
X134878Y116400D01*
X321493Y125000D02*X311308D01*
X153585Y125455D02*X225720D01*
X134878Y116400D02*X120187D01*
X120000Y116587D01*
X74661Y126139D02*X71284Y122762D01*
X83196Y124132D02*X75492D01*
X71954Y120594D01*
X82365Y122125D02*X76323D01*
X87960Y115504D02*Y119368D01*
X83196Y124132D01*
X84302Y120188D02*X82365Y122125D01*
X76323D02*X72785Y118588D01*
X80995Y116706D02*Y118819D01*
X120000Y116587D02*X108811Y105398D01*
X98065D01*
X87960Y115504D01*
X120000Y116587D02*Y120000D01*
X81675Y105725D02*Y110085D01*
X84302Y112711D01*
Y120188D01*
X71284Y122762D02*X54664D01*
X71954Y120594D02*X57530D01*
X72785Y118588D02*X58891D01*
X54664Y122762D02*X53798Y123628D01*
X45463D02*X26836Y105000D01*
X8490D01*
X43459Y108909D02*X40346Y105796D01*
Y105498D01*
X53798Y123628D02*X45463D01*
X57530Y120594D02*X45845Y108909D01*
X43459D01*
X58891Y118588D02*X47205Y106902D01*
X10000Y130000D02*X5435Y134565D01*
X20000Y140000D02*X41306D01*
X14687Y145313D02*X40565D01*
X109305Y175493D02*X98133D01*
X103825Y165337D02*X113025Y174537D01*
X148874D01*
X148861Y164480D02*X124480D01*
X101867Y115493D02*X98133D01*
X125475Y144019D02*X124940Y144554D01*
X116639D01*
X107579Y135493D01*
X105493Y155493D02*X98133D01*
X98134Y145493D02*X105493D01*
X139289Y154507D02*X128801Y144019D01*
X125475D01*
X98133Y155493D02*X97886Y155741D01*
X107579Y135493D02*X97918D01*
X147618Y161047D02*X140566D01*
X126844Y147326D01*
X120000Y170000D02*X105493Y155493D01*
Y145493D02*X120000Y160000D01*
X124480Y164480D02*X120000Y160000D01*
X132883Y135412D02*X119009D01*
X104507Y120910D02*Y118133D01*
X101867Y115493D01*
X148874Y174537D02*X157667Y165744D01*
X162124Y161765D02*X160332Y163557D01*
X149785D01*
X157667Y165744D02*X162820D01*
X174507Y154507D02*X139289D01*
X170259Y164511D02*X167513Y161765D01*
X162124D01*
X149785Y163557D02*X148861Y164480D01*
X162820Y165744D02*X163493Y165072D01*
X170356Y173237D02*X163223D01*
X159036Y169051D01*
X180000Y150000D02*X184722Y154722D01*
X191839Y158709D02*X181291D01*
X180000Y160000D01*
X184722Y154722D02*X230419D01*
X228346Y150000D02*X218759D01*
X218163Y150596D01*
X230364Y164511D02*X170259D01*
X230419Y154722D02*X233077Y152063D01*
Y148654D01*
X236307Y145423D01*
X236370Y155328D02*X233347Y158351D01*
Y161528D01*
X230364Y164511D01*
X180000Y160000D02*X174507Y154507D01*
X238346Y160000D02*X252877Y174531D01*
X255170Y155328D02*X236370D01*
X245509Y175380D02*X172896D01*
X259843Y170000D02*X264843Y165000D01*
X259843Y160000D02*X255170Y155328D01*
X159519Y137550D02*X135020D01*
X132883Y135412D01*
X119009D02*X104507Y120910D01*
X98133Y115493D02*X95493Y118133D01*
X20000Y120000D02*X26276Y113724D01*
Y111563D01*
X95493Y118133D02*Y121867D01*
X96813Y123187D01*
X97918Y135493D02*X93815Y131390D01*
X66534Y128145D02*X64579Y126190D01*
X93815Y131390D02*X36635D01*
X32826Y135199D01*
X96813Y123187D02*Y125888D01*
X94556Y128145D01*
X66534D01*
X10000Y120000D02*X3407Y126593D01*
X97886Y155741D02*X25741D01*
X48981Y153729D02*X89898D01*
X98134Y145493D01*
X25741Y155741D02*X20000Y150000D01*
X41306Y140000D02*X47114Y145808D01*
X40565Y145313D02*X48981Y153729D01*
X10000Y150000D02*X14687Y145313D01*
X98133Y175493D02*X89418Y184209D01*
X123583Y183583D02*X120000Y180000D01*
X97411Y186216D02*X98996Y184631D01*
X109678D01*
X114308Y180000D01*
X120000D01*
X127756Y189589D02*X132119D01*
X136957Y194428D01*
X153963Y183583D02*X123583D01*
X136957Y194428D02*X162246D01*
X165535Y191139D01*
X180000Y191818D02*X182864Y194682D01*
X186631Y206631D02*X180000Y200000D01*
X115046Y204954D02*X120000Y200000D01*
X162787Y198564D02*X128564D01*
X182864Y194682D02*X310226D01*
X313211Y206631D02*X186631D01*
X221492Y198809D02*Y201541D01*
X224543Y204593D01*
X255250D01*
X259843Y200000D01*
X128564Y198564D02*X120000Y190000D01*
X310226Y194682D02*X314907Y190000D01*
X319843D01*
X259843D02*X255183Y185341D01*
X176010D01*
X180000Y191818D02*Y190000D01*
X172896Y175380D02*X171731Y176544D01*
X161001D01*
X153963Y183583D01*
X176010Y185341D02*X162787Y198564D01*
X252877Y174531D02*X299213D01*
X259843Y180000D02*X250129D01*
X245509Y175380D01*
X264843Y165000D02*X321311D01*
X15430Y184570D02*X10000Y190000D01*
X20000D02*Y191777D01*
X25039Y196815D01*
X10000Y200000D02*X20000D01*
X25039Y196815D02*X39257D01*
X42385Y193687D01*
X26408Y193509D02*X32416Y187501D01*
X73041Y184570D02*X15430D01*
X42385Y193687D02*X47615D01*
X48509Y194580D01*
X32416Y187501D02*X73949D01*
X75234Y186216D01*
X97411D01*
X20000Y200000D02*X38910D01*
X43217Y195693D01*
X46783D01*
X51090Y200000D01*
X55000D01*
X48509Y194580D02*X104404D01*
X111649Y187335D01*
X5786Y206988D02*X164830D01*
X6778Y204954D02*X115046D01*
X164830Y206988D02*X180000Y191818D01*
X20000Y180000D02*X21234Y178766D01*
X29361D01*
X10000Y170000D02*X15291Y175291D01*
X78549D01*
X80959Y177702D01*
X44447Y179931D02*X45419Y180902D01*
X75365D01*
X89418Y184209D02*X73402D01*
X73041Y184570D01*
X20000Y170000D02*X24663Y165337D01*
X103825D01*
X3407Y126593D02*Y204609D01*
X5435Y134565D02*Y203611D01*
X3407Y204609D02*X5786Y206988D01*
X5435Y203611D02*X6778Y204954D01*
G54D26*X45000Y200000D03*
G54D27*X100000D03*
Y190000D03*
G54D28*X77500D03*
Y200000D03*
G54D27*X100000Y180000D03*
G54D29*X109305Y175493D03*
X80959Y177702D03*
X75365Y180902D03*
G54D27*X100000Y170000D03*
Y160000D03*
G54D29*X111649Y187335D03*
G54D24*G36*
X51750Y203250D02*X58250D01*
Y196750D01*
X51750D01*
Y203250D01*
G37*
G54D29*X44447Y179931D03*
G54D30*X65000Y200000D03*
G54D24*G36*
X7000Y203000D02*X13000D01*
Y197000D01*
X7000D01*
Y203000D01*
G37*
G54D27*X20000Y200000D03*
X10000Y190000D03*
Y180000D03*
Y170000D03*
Y160000D03*
X20000D03*
Y170000D03*
Y180000D03*
Y190000D03*
G54D29*X29361Y178766D03*
X26408Y193509D03*
G54D28*X170000Y195000D03*
X162500Y185000D03*
X147500Y180000D03*
Y190000D03*
G54D29*X165535Y191139D03*
G54D28*X155000Y175000D03*
Y160000D03*
G54D29*X163493Y165072D03*
X159036Y169051D03*
X170356Y173237D03*
G54D27*X180000Y160000D03*
Y170000D03*
Y180000D03*
Y190000D03*
Y200000D03*
G54D29*X147618Y161047D03*
G54D27*X200000Y200000D03*
Y190000D03*
G54D24*G36*
X225346Y203000D02*X231346D01*
Y197000D01*
X225346D01*
Y203000D01*
G37*
G54D29*X221492Y198809D03*
G54D24*G36*
X256843Y203000D02*X262843D01*
Y197000D01*
X256843D01*
Y203000D01*
G37*
G54D27*X238346Y200000D03*
X228346Y190000D03*
X238346D03*
X228346Y180000D03*
X238346D03*
X228346Y170000D03*
Y160000D03*
G54D29*X191839Y158709D03*
G54D27*X238346Y170000D03*
Y160000D03*
X259843Y190000D03*
Y180000D03*
Y170000D03*
Y160000D03*
G54D28*X132500Y195000D03*
G54D24*G36*
X117000Y203000D02*X123000D01*
Y197000D01*
X117000D01*
Y203000D01*
G37*
G54D27*X120000Y190000D03*
G54D29*X127756Y189589D03*
G54D27*X120000Y180000D03*
Y170000D03*
Y160000D03*
G54D28*X70000Y150000D03*
G54D27*X10000D03*
X20000D03*
X100000D03*
G54D28*X162500D03*
G54D27*X120000D03*
X180000D03*
X259843D03*
X228346D03*
G54D29*X218163Y150596D03*
G54D27*X238346Y150000D03*
X200000Y180000D03*
Y170000D03*
Y160000D03*
Y150000D03*
G54D28*X60000Y140000D03*
X65000Y145000D03*
X62500Y135000D03*
G54D29*X64579Y126190D03*
X47114Y145808D03*
G54D27*X100000Y140000D03*
X120000D03*
Y130000D03*
G54D29*X126844Y147326D03*
X129428Y52539D03*
X152064Y20836D03*
X123409Y65185D03*
X172025Y38710D03*
G54D27*X200000Y140000D03*
G54D28*X170000D03*
X165000Y135000D03*
G54D27*X180000Y140000D03*
G54D29*X159519Y137550D03*
G54D27*X180000Y130000D03*
G54D29*X173293Y102505D03*
G54D27*X259843Y140000D03*
X319843Y150000D03*
Y160000D03*
Y140000D03*
Y170000D03*
Y180000D03*
Y190000D03*
Y200000D03*
G54D29*X299213Y174531D03*
G54D27*X259843Y130000D03*
X319843D03*
G54D29*X225720Y125454D03*
X230372Y119190D03*
G54D27*X259843Y120000D03*
X319843D03*
G54D29*X265141Y124507D03*
G54D27*X259843Y110000D03*
Y100000D03*
Y90000D03*
Y80000D03*
G54D29*X207587Y78976D03*
X208106Y100283D03*
X214179Y77207D03*
X216950Y97423D03*
G54D27*X259843Y70000D03*
Y60000D03*
Y50000D03*
G54D29*X209350Y111893D03*
X220024Y45404D03*
X253991Y59702D03*
X222407Y71972D03*
G54D27*X259843Y40000D03*
X319843Y50000D03*
Y60000D03*
Y40000D03*
Y70000D03*
Y80000D03*
Y90000D03*
Y100000D03*
Y110000D03*
G54D29*X331028Y45404D03*
G54D27*X259843Y30000D03*
X319843D03*
G54D29*X218743Y28158D03*
G54D27*X259843Y20000D03*
X319843D03*
X259843Y10000D03*
X319843D03*
G54D28*X55000Y135000D03*
G54D29*X37308Y13609D03*
X62383Y39775D03*
X36688Y91709D03*
X45660Y103596D03*
G54D31*X75000Y138000D03*
G54D29*X87051Y96134D03*
X93487Y124537D03*
X80995Y118819D03*
X75009Y115451D03*
G54D27*X10000Y140000D03*
X20000D03*
X10000Y130000D03*
X20000D03*
G54D29*X32275Y102303D03*
X32826Y135199D03*
X26276Y111563D03*
G54D28*X57500Y125000D03*
X50000Y120000D03*
X57500Y110000D03*
G54D27*X100000Y130000D03*
G54D28*X85000Y107500D03*
X132500Y120000D03*
G54D27*X120000D03*
Y110000D03*
X200000Y130000D03*
G54D28*X145000Y115000D03*
Y125000D03*
X160000Y130000D03*
Y120000D03*
G54D27*X180000D03*
Y110000D03*
G54D28*X135000Y132500D03*
G54D27*X120000Y100000D03*
Y90000D03*
Y80000D03*
Y70000D03*
Y60000D03*
Y50000D03*
Y40000D03*
Y30000D03*
X180000D03*
Y70000D03*
Y80000D03*
Y90000D03*
Y100000D03*
Y40000D03*
Y50000D03*
Y60000D03*
X10000Y120000D03*
X20000D03*
X10000Y110000D03*
X20000D03*
X10000Y100000D03*
Y90000D03*
Y80000D03*
Y70000D03*
Y60000D03*
Y50000D03*
Y40000D03*
Y30000D03*
X20000D03*
Y40000D03*
Y50000D03*
Y60000D03*
Y70000D03*
Y80000D03*
Y90000D03*
Y100000D03*
X100000Y120000D03*
Y110000D03*
Y100000D03*
G54D31*X110000Y112500D03*
G54D27*X100000Y90000D03*
Y80000D03*
Y70000D03*
X200000Y120000D03*
G54D28*X82500Y90000D03*
Y80000D03*
Y70000D03*
G54D27*X100000Y60000D03*
G54D28*X82500D03*
X127500Y90000D03*
X137500Y75000D03*
X130000Y95000D03*
X140000Y67500D03*
G54D27*X100000Y50000D03*
Y40000D03*
G54D28*X140000D03*
X165000D03*
G54D27*X100000Y30000D03*
Y20000D03*
Y10000D03*
G54D28*X135000Y15000D03*
X160000D03*
G54D27*X120000Y20000D03*
Y10000D03*
X180000D03*
Y20000D03*
G54D29*X177659Y4179D03*
G54D27*X200000Y110000D03*
Y100000D03*
Y90000D03*
Y80000D03*
Y70000D03*
Y60000D03*
Y50000D03*
Y40000D03*
Y30000D03*
Y20000D03*
Y10000D03*
G54D32*G54D33*G54D32*G54D33*G54D32*G54D33*G54D32*G54D34*G54D32*G54D34*G54D33*G54D32*G54D35*G54D32*G54D33*G54D32*G54D35*G54D33*G54D32*G54D33*G54D35*G54D32*G54D35*G54D32*G54D35*G54D32*G54D33*G54D32*G54D35*G54D33*G54D32*G54D33*G54D32*G54D33*G54D35*G54D32*G54D33*G54D32*G54D35*G54D32*G54D35*G54D32*G54D35*G54D32*G54D35*G54D32*G54D35*G54D32*G54D35*G54D32*G54D35*G54D32*G54D35*G54D32*G54D35*G54D32*G54D35*G54D32*G54D33*G54D32*G54D33*G54D32*G54D35*G54D33*G54D32*G54D35*G54D32*G54D35*G54D33*G54D32*G54D33*G54D32*G54D33*G54D32*G54D33*G54D32*G54D33*G54D32*G54D35*G54D32*G54D33*M02*
